<svg width="17" height="14" viewBox="0 0 17 14" fill="none" xmlns="http://www.w3.org/2000/svg">
    <path
        d="M0 6.82031C0 7.08401 0.114259 7.34772 0.316399 7.54102L6.11714 13.333C6.32814 13.5352 6.55664 13.6318 6.81154 13.6318C7.36524 13.6318 7.76954 13.2363 7.76954 12.7002C7.76954 12.4189 7.66404 12.1816 7.47944 12.0059L5.50194 10.0019L2.95312 7.67279L5.00094 7.7959H15.6533C16.2334 7.7959 16.6377 7.39161 16.6377 6.82031C16.6377 6.24021 16.2334 5.83588 15.6533 5.83588H5.00094L2.96191 5.95898L5.50194 3.62988L7.47944 1.62598C7.66404 1.4502 7.76954 1.21289 7.76954 0.931641C7.76954 0.3955 7.36524 0 6.81154 0C6.55664 0 6.31934 0.0966859 6.09084 0.316406L0.316399 6.09082C0.114259 6.28422 0 6.54781 0 6.82031Z"
        fill="#8E8E93" />
</svg>