<svg width="24" height="24" viewBox="0 0 24 24" fill="none" xmlns="http://www.w3.org/2000/svg">
<g clip-path="url(#clip0_3944_84)">
<path d="M19 1H5C2.79086 1 1 2.79086 1 5V19C1 21.2091 2.79086 23 5 23H19C21.2091 23 23 21.2091 23 19V5C23 2.79086 21.2091 1 19 1Z" stroke="#015697" stroke-width="2"/>
<path d="M4.77424 13.3618H19.263C19.8733 13.3618 20.3936 12.8027 20.3936 12.1119C20.3936 11.4321 19.8733 10.8618 19.263 10.8618H4.77424C4.18388 10.8618 3.64355 11.4321 3.64355 12.1119C3.64355 12.8027 4.18388 13.3618 4.77424 13.3618Z" fill="#015697"/>
</g>
<defs>
<clipPath id="clip0_3944_84">
<rect width="24" height="24" fill="white"/>
</clipPath>
</defs>
</svg>
