<svg width="54" height="39" viewBox="0 0 54 39" fill="none" xmlns="http://www.w3.org/2000/svg">
    <g clip-path="url(#clip0_4181_201)">
        <path
            d="M50.3624 7.34744L52.6842 5.04692C53.8345 3.89665 53.8771 2.63986 52.8333 1.5748L52.0027 0.722763C50.9588 -0.321014 49.6595 -0.214509 48.5304 0.91446L46.2086 3.19371L50.3624 7.34744ZM24.2683 33.399L48.3173 9.34969L44.1851 5.23863L20.1358 29.2451L18.0483 34.2722C17.814 34.9113 18.4744 35.6144 19.1134 35.38L24.2683 33.399Z"
            fill="#8E8E93" />
    </g>
    <g clip-path="url(#clip1_4181_201)">
        <path
            d="M0.240615 32.858C0.565805 33.192 1.058 33.1832 1.38319 32.858L2.93007 31.3111C8.54629 25.7037 11.3412 22.9263 12.2729 23.8492C12.9408 24.5171 11.2357 26.4683 8.88029 29.2369C6.49839 32.0494 3.78262 35.0728 5.6635 36.9625C7.3158 38.6324 9.95249 36.4966 12.2553 34.273C14.1361 32.4537 15.3051 31.355 15.6479 31.6978C15.9467 31.9966 15.4193 32.647 14.7514 33.8072C13.9164 35.2662 12.8178 36.9625 13.9164 38.0699C14.7689 38.9136 16.1664 38.4478 17.8627 36.7164C18.2494 36.3296 18.267 35.8375 17.933 35.5035C17.6078 35.1871 17.1244 35.1959 16.7904 35.5035C15.6918 36.5318 15.1117 36.9537 14.9623 36.813C14.7953 36.6548 15.2084 36.022 16.0346 34.6685C17.2738 32.6207 17.6693 31.4253 16.8168 30.5816C15.6918 29.4566 13.9867 30.3619 11.1039 33.1041C8.5463 35.5211 7.30701 36.3033 6.80611 35.8111C6.20841 35.231 7.1664 33.6666 10.102 30.2916C13.6527 26.1871 14.892 24.1744 13.4154 22.7066C11.5697 20.8697 9.59219 22.3638 1.78749 30.1685L0.240615 31.7154C-0.0845849 32.0406 -0.0757948 32.5328 0.240615 32.858Z"
            fill="#009688" />
    </g>
    <defs>
        <clipPath id="clip0_4181_201">
            <rect width="35.5831" height="35.4261" fill="white" transform="translate(18)" />
        </clipPath>
        <clipPath id="clip1_4181_201">
            <rect width="18.1691" height="16.4791" fill="white" transform="translate(0 22)" />
        </clipPath>
    </defs>
</svg>
