<svg width="33" height="27" viewBox="0 0 33 27" fill="none" xmlns="http://www.w3.org/2000/svg">
    <g clip-path="url(#clip0_4047_149)">
        <path
            d="M0 11.7432C0 16.8955 4.33185 21.9876 11.0649 26.3314C11.439 26.5728 11.8975 26.8141 12.2112 26.8141C12.5249 26.8141 12.9835 26.5728 13.3576 26.3314C20.1028 21.9876 24.4225 16.8955 24.4225 11.7432C24.4225 7.2906 21.3455 4.2016 17.3998 4.2016C15.0952 4.2016 13.2972 5.25134 12.2112 6.84412C11.1494 5.2634 9.33941 4.2016 7.03473 4.2016C3.07693 4.2016 0 7.2906 0 11.7432ZM2.48569 11.7311C2.48569 8.6903 4.48873 6.62695 7.1796 6.62695C9.35152 6.62695 10.5702 7.94219 11.3304 9.0885C11.6683 9.58322 11.8975 9.74011 12.2112 9.74011C12.537 9.74011 12.7422 9.57116 13.0921 9.0885C13.9127 7.96631 15.0831 6.62695 17.2429 6.62695C19.9459 6.62695 21.9489 8.6903 21.9489 11.7311C21.9489 15.9784 17.5326 20.6844 12.4405 24.063C12.3319 24.1353 12.2596 24.1837 12.2112 24.1837C12.1631 24.1837 12.0906 24.1353 11.994 24.063C6.90197 20.6844 2.48569 15.9784 2.48569 11.7311Z"
            fill="white" />
        <path
            d="M30.2041 4.12623L31.508 2.83429C32.1539 2.18832 32.1779 1.48253 31.5917 0.884404L31.1253 0.405889C30.539 -0.180282 29.8094 -0.120459 29.1752 0.513555L27.8713 1.79352L30.2041 4.12623ZM15.55 18.7564L29.0556 5.25068L26.735 2.94196L13.2293 16.4237L12.0569 19.2468C11.9253 19.6057 12.2962 20.0006 12.655 19.869L15.55 18.7564Z"
            fill="white" />
    </g>
    <defs>
        <clipPath id="clip0_4047_149">
            <rect width="32.0127" height="26.8142" fill="white" />
        </clipPath>
    </defs>
</svg>