<svg width="24" height="24" viewBox="0 0 24 24" fill="none" xmlns="http://www.w3.org/2000/svg">
<g clip-path="url(#clip0_3944_63)">
<path d="M19 1H5C2.79086 1 1 2.79086 1 5V19C1 21.2091 2.79086 23 5 23H19C21.2091 23 23 21.2091 23 19V5C23 2.79086 21.2091 1 19 1Z" stroke="#015697" stroke-width="2"/>
<path d="M4.96593 12.9229H10.9908V18.9479C10.9908 19.5602 11.4946 20.0738 12.1169 20.0738C12.7391 20.0738 13.2429 19.5602 13.2429 18.9479V12.9229H19.2678C19.8801 12.9229 20.3937 12.4192 20.3937 11.7969C20.3937 11.1747 19.8801 10.6709 19.2678 10.6709H13.2429V4.64603C13.2429 4.03365 12.7391 3.52002 12.1169 3.52002C11.4946 3.52002 10.9908 4.03365 10.9908 4.64603V10.6709H4.96593C4.35357 10.6709 3.83997 11.1747 3.83997 11.7969C3.83997 12.4192 4.35357 12.9229 4.96593 12.9229Z" fill="#015697"/>
</g>
<defs>
<clipPath id="clip0_3944_63">
<rect width="24" height="24" fill="white"/>
</clipPath>
</defs>
</svg>
