<svg width="25" height="33" viewBox="0 0 25 33" fill="none" xmlns="http://www.w3.org/2000/svg">
    <g clip-path="url(#clip0_3998_99)">
        <path
            d="M7.43822 13.0853V7.59998C7.43822 5.57598 9.0809 3.93335 11.1049 3.93335C13.1289 3.93335 14.7716 5.57598 14.7716 7.59998V13.0853C16.5462 11.8973 17.7049 9.88798 17.7049 7.59998C17.7049 3.94798 14.7569 1 11.1049 1C7.4529 1 4.5049 3.94798 4.5049 7.59998C4.5049 9.88798 5.66356 11.8973 7.43822 13.0853ZM21.8702 19.876L15.2116 16.5613C14.9622 16.4587 14.6982 16.4 14.4196 16.4H13.3049V7.59998C13.3049 6.38264 12.3222 5.40002 11.1049 5.40002C9.88756 5.40002 8.90489 6.38264 8.90489 7.59998V23.352C3.62489 22.2373 3.7129 22.252 3.52223 22.252C3.06757 22.252 2.6569 22.4427 2.36356 22.736L1.2049 23.9094L8.45023 31.1547C8.84623 31.5507 9.40356 31.8 10.0049 31.8H19.9636C21.0636 31.8 21.9142 30.9933 22.0756 29.9227L23.1756 22.1934C23.1902 22.0907 23.2049 21.988 23.2049 21.9C23.2049 20.9907 22.6476 20.1986 21.8702 19.876Z"
            stroke="#8E8E93" />
    </g>
    <defs>
        <clipPath id="clip0_3998_99">
            <rect width="24.2049" height="32.8" fill="white" />
        </clipPath>
    </defs>
</svg>