<svg width="869" height="144" viewBox="0 0 869 144" fill="none" xmlns="http://www.w3.org/2000/svg">
    <g clip-path="url(#clip0_4365_244)">
        <path d="M397.402 29.376V114.624" stroke="#002D5B" stroke-width="1.55" />
        <path
            d="M130.055 72C130.055 101.509 105.4 125.446 74.9807 125.446C44.5615 125.446 19.9065 101.52 19.9065 72C19.9065 42.48 44.5615 18.5538 74.9807 18.5538C105.4 18.5538 130.055 42.48 130.055 72Z"
            fill="white" />
        <path
            d="M126.973 72C126.973 99.8695 103.699 122.455 74.9806 122.455C46.2621 122.455 22.9883 99.8695 22.9883 72C22.9883 44.1304 46.2621 21.5557 74.9806 21.5557C103.699 21.5557 126.973 44.1415 126.973 72Z"
            fill="white" />
        <path
            d="M74.9807 123.109C45.9426 123.109 22.3149 100.18 22.3149 71.9999C22.3149 43.8202 45.9426 20.9021 74.9807 20.9021C104.019 20.9021 127.646 43.8313 127.646 71.9999C127.646 100.169 104.019 123.109 74.9807 123.109ZM74.9807 22.2092C46.6846 22.2092 23.6618 44.5513 23.6618 71.9999C23.6618 99.4486 46.6846 121.802 74.9807 121.802C103.277 121.802 126.3 99.4596 126.3 71.9999C126.3 44.5402 103.277 22.2092 74.9807 22.2092Z"
            fill="#002856" />
        <path
            d="M127.646 72.011C127.646 100.235 104.064 123.12 74.9807 123.12C45.8969 123.12 22.3035 100.235 22.3035 72.011C22.3035 43.787 45.8855 20.9021 74.9807 20.9021C104.076 20.9021 127.646 43.787 127.646 72.011Z"
            fill="#002856" />
        <path
            d="M77.138 73.2849C76.5103 73.1409 72.1386 71.3796 72.0701 71.3242C71.7276 71.0584 72.0016 70.5267 72.675 70.7925C72.9376 70.8922 77.1723 72.4762 77.5147 72.587C77.9599 72.7199 78.0626 73.5064 77.138 73.2959V73.2849Z"
            fill="white" />
        <path
            d="M120.866 72C120.866 96.5908 100.32 116.518 74.9806 116.518C49.6408 116.518 29.095 96.5908 29.095 72C29.095 47.4093 49.6408 27.4597 74.9806 27.4597C100.32 27.4597 120.866 47.3871 120.866 72Z"
            fill="white" />
        <path
            d="M74.9807 117.172C49.3098 117.172 28.4102 96.9009 28.4102 71.9889C28.4102 47.0769 49.2984 26.795 74.9807 26.795C100.663 26.795 121.54 47.0658 121.54 71.9889C121.54 96.912 100.652 117.172 74.9807 117.172ZM74.9807 28.1132C50.0518 28.1132 29.7685 47.7969 29.7685 72C29.7685 96.203 50.0518 115.865 74.9807 115.865C99.9096 115.865 120.193 96.1809 120.193 72C120.193 47.819 99.9096 28.1132 74.9807 28.1132Z"
            fill="#002856" />
        <path
            d="M116.415 72.011C116.415 94.2757 97.8094 112.331 74.878 112.331C51.9466 112.331 33.3298 94.2867 33.3298 72.011C33.3298 49.7353 51.9352 31.691 74.878 31.691C97.8209 31.691 116.415 49.7353 116.415 72.011Z"
            fill="white" />
        <mask id="mask0_4365_244" style="mask-type:luminance" maskUnits="userSpaceOnUse" x="33"
            y="31" width="84" height="82">
            <path
                d="M116.415 72.011C116.415 94.2757 97.8094 112.331 74.878 112.331C51.9466 112.331 33.3298 94.2867 33.3298 72.011C33.3298 49.7353 51.9352 31.691 74.878 31.691C97.8209 31.691 116.415 49.7353 116.415 72.011Z"
                fill="white" />
        </mask>
        <g mask="url(#mask0_4365_244)">
            <path
                d="M64.936 31.691C65.2214 31.8793 66.7738 32.1119 67.2303 32.1341C67.6869 32.1451 67.6184 31.7685 67.4244 31.8017C67.2303 31.835 64.7534 31.2811 64.4452 31.2811C64.1485 31.2811 63.6919 31.0264 63.4864 30.9599C63.2696 30.8934 62.8358 30.683 62.9842 30.9599L62.9043 31.115C63.0983 31.3254 64.6507 31.5027 64.936 31.7021V31.691Z"
                fill="#002856" />
            <path
                d="M96.234 100.113C96.5879 99.9138 96.7477 99.5372 96.371 99.6479C95.9943 99.7476 94.0082 100.401 93.6316 100.224C93.3462 100.091 92.7641 100.545 93.2321 100.567C93.7001 100.589 95.8916 100.313 96.234 100.113Z"
                fill="#002856" />
            <path
                d="M101.017 99.1827C101.268 98.6842 100.891 99.3489 100.366 99.7144C93.5289 104.289 84.7056 103.813 84.2148 103.691C83.7354 103.569 80.7334 103.625 80.4481 103.647C80.1627 103.669 80.0257 103.935 79.8545 103.968C79.6833 104.001 79.1811 104.156 79.8317 104.245C80.4937 104.333 83.5984 104.123 83.8724 104.145C89.4083 104.356 93.6316 103.226 94.6133 102.949C95.5949 102.683 100.275 100.678 101.017 99.1938V99.1827Z"
                fill="#002856" />
            <path
                d="M70.9514 56.3704C70.8601 56.0381 71.2482 56.0935 71.6363 55.9273C72.0358 55.7612 73.4854 56.6252 74.0561 56.4923C74.6383 56.3593 75.8368 56.3926 76.5787 56.9132C77.3092 57.4449 78.9757 58.0209 79.341 58.0652C79.7062 58.0984 79.9916 58.4972 79.7747 58.6744C79.5579 58.8517 80.9961 60.3581 81.0874 60.7569C81.1444 61.1557 81.8978 61.8867 82.4114 62.9058C82.9479 63.947 85.1052 64.5563 85.4362 64.6449C85.7673 64.7224 85.9613 65.1766 86.3037 65.1212C86.6576 65.0547 86.2695 64.7113 86.2467 64.5784C86.2124 64.4455 86.4521 64.5009 86.6804 64.6006C86.9087 64.7003 87.1484 64.9993 87.194 64.8553C87.2283 64.7003 87.3082 64.7003 87.605 64.811C87.9131 64.9329 87.9474 65.1323 88.13 65.1655C88.3127 65.1987 88.2556 65.0769 88.0844 64.8664C87.9017 64.656 88.1529 64.4455 88.3811 64.5784C88.6208 64.7113 89.1231 65.3427 89.4427 65.3206C89.7509 65.2984 89.4084 64.955 89.3285 64.6892C89.2372 64.4234 89.6025 64.4344 89.7851 64.6892C89.9677 64.9329 90.6183 65.5753 91.0521 65.6086C91.4744 65.6418 90.9608 65.1434 90.9836 64.8664C91.0064 64.5784 91.2119 64.7557 91.4402 65.0215C91.6571 65.2984 92.7642 66.8381 93.0154 66.6941C93.2779 66.5501 94.6362 68.9649 94.933 70.0504C95.2412 71.136 95.6064 70.9477 95.5608 70.7704C93.9513 65.0547 92.0794 64.6892 91.4744 64.2793C90.858 63.8695 82.4913 62.064 82.4114 61.643C82.3315 61.211 80.6765 59.3501 80.6765 59.3501C80.6765 59.3501 79.4665 57.7661 79.2497 57.5667C79.0328 57.3563 76.1792 55.5175 75.403 55.163C74.6269 54.8197 73.9877 54.7864 72.6065 54.432C71.2368 54.0886 71.1911 54.0221 70.5177 53.867C69.8557 53.7009 68.9768 54.7532 68.8284 55.0523C69.4562 55.6615 70.3921 56.6141 71.1569 57.467C71.6477 57.611 72.1157 57.7218 72.1842 57.7107C72.3212 57.6886 71.0428 56.7027 70.94 56.3704H70.9514Z"
                fill="#002856" />
            <path
                d="M81.5097 96.203C81.0531 96.1698 80.8476 96.1476 80.4596 96.0923C80.0715 96.0369 79.8774 96.3913 80.1742 96.5132C80.471 96.635 81.0303 96.7126 81.3727 96.6572C81.7151 96.6018 81.9777 96.2252 81.5097 96.203Z"
                fill="#002856" />
            <path
                d="M79.1584 93.5113C79.5921 93.4006 79.4437 93.1347 79.4323 93.0461C79.4209 92.9353 78.2566 92.7359 78.0512 92.6695C77.6631 92.5366 77.3663 93.0682 77.8229 93.1901C78.2795 93.323 78.7246 93.6221 79.1698 93.5113H79.1584Z"
                fill="#002856" />
            <path
                d="M79.9002 94.8295C79.4664 94.7852 78.9071 94.5858 78.5989 94.5415C78.1766 94.4751 77.9597 94.9292 78.2907 95.0068C78.6332 95.0954 79.4892 95.3169 79.6719 95.2948C79.8431 95.2615 80.1513 94.8628 79.9116 94.8406L79.9002 94.8295Z"
                fill="#002856" />
            <path
                d="M81.1215 97.8314C81.327 97.9754 83.3587 98.1747 83.6555 98.0861C83.9637 97.9975 84.1349 97.7981 84.1121 97.6984C84.1121 97.5987 83.8381 97.5323 83.5071 97.6652C83.1647 97.7871 81.8178 97.6098 81.6123 97.5655C81.2585 97.4769 80.916 97.6984 81.1215 97.8314Z"
                fill="#002856" />
            <path
                d="M81.3954 99.3599C81.6009 99.5039 83.6326 99.7033 83.9294 99.6147C84.2376 99.5261 84.4088 99.3267 84.386 99.227C84.386 99.1273 84.112 99.0609 83.781 99.1938C83.4386 99.3267 82.1031 99.1495 81.8862 99.0941C81.5324 99.0165 81.19 99.227 81.3954 99.3599Z"
                fill="#002856" />
            <path
                d="M82.2858 100.623C82.4913 100.767 84.523 100.966 84.8198 100.878C85.128 100.789 85.2992 100.59 85.2764 100.49C85.2764 100.39 85.0024 100.324 84.6714 100.457C84.329 100.59 82.9821 100.412 82.7766 100.357C82.4228 100.268 82.0803 100.49 82.2858 100.623Z"
                fill="#002856" />
            <path
                d="M99.7498 55.584C94.271 50.832 87.9474 49.0153 82.0919 49.1483C82.2745 48.1846 82.4457 47.0104 82.5941 45.7255C83.2904 45.7698 84.7172 45.792 85.6531 45.8252C86.1211 45.8473 86.5777 45.6037 86.4636 45.3489C86.3494 45.1052 85.87 44.064 85.1623 43.92C84.7856 43.8313 83.6328 43.2 82.8909 42.9673C83.1306 40.32 83.3132 37.4289 83.3703 34.859C83.4844 29.2652 80.2427 24.9009 75.1748 24.7237C74.2844 24.6904 73.8964 24.1587 74.0904 23.1175C74.4214 21.4227 75.1633 19.2517 75.7227 17.5347C76.0194 16.6375 75.483 15.7846 74.6041 15.9286C73.9991 16.0283 73.4284 16.0726 72.8919 15.9507C72.3668 15.84 71.6934 16.2387 71.6934 16.2387C70.9857 16.5046 70.6889 17.147 70.5177 17.6123C70.3579 18.0886 69.2279 20.8246 69.0453 21.2455C68.8741 21.6664 68.7028 23.5052 68.3033 22.9957C68.0294 22.6412 67.8125 22.5747 67.6755 22.4307C67.4473 20.592 67.2989 18.7643 67.1391 17.9335C66.9222 16.7704 65.7693 16.5267 65.016 17.435C64.685 17.8338 64.3882 18.2326 64.0115 18.6092C63.6006 19.019 63.1098 19.1077 62.5391 18.9858C61.9684 18.875 61.4319 19.0855 61.0324 19.5064C60.6215 19.9495 59.8453 20.0935 59.3088 19.7723C58.9322 19.5397 58.5555 19.296 58.1217 19.2184C57.688 19.152 57.4141 19.3957 57.4597 19.739C57.6652 21.6 57.9619 23.5273 58.1103 25.1224L58.2701 28.2793C58.2701 29.675 58.2359 31.0486 58.1446 31.968C58.019 33.2418 57.9619 34.4381 58.0533 35.291C58.1217 35.9224 58.019 36.3544 57.8592 36.875C57.4483 38.2153 57.22 39.4449 57.2543 41.184C57.2999 42.923 57.2771 45.5593 57.1858 47.9298C57.1173 50.2892 56.7634 54.4873 56.889 57.9987C56.9004 57.9987 56.9118 57.9877 56.9347 57.9766C56.3868 58.2867 55.8731 58.6301 55.3709 58.9957C55.428 58.9624 55.4622 58.9292 55.5079 58.8849V58.8517C55.1768 55.3292 55.622 50.9649 54.9029 46.9772C54.5605 45.083 52.6543 45.1163 52.0493 46.8664C51.8553 47.4424 51.7297 47.808 51.5243 48.3175C51.2275 49.0264 50.8166 49.3366 49.9719 49.4806C48.9332 49.6578 47.7461 49.979 46.9928 50.2892C46.6047 50.4553 46.3878 50.8541 46.4449 51.4412C46.6047 52.8701 46.7987 56.2818 47.027 60.768C46.5019 60.923 46.0111 61.211 45.6345 61.643C44.7327 62.651 44.4245 64.0024 45.0181 65.8855C45.8627 68.5772 45.7143 69.9175 45.0181 71.6012C43.6598 74.9243 44.4131 79.6209 47.1411 82.9329C47.1982 82.9994 47.2439 83.0547 47.2895 83.099C47.5292 83.3538 47.7918 83.4978 48.0657 83.5753C48.0657 83.5753 48.0429 83.5643 48.0315 83.5643C48.431 93.5446 48.7506 102.882 48.8419 106.682C48.8305 107.202 49.1729 107.801 49.7893 108.266C50.691 108.93 51.7868 108.421 52.3004 107.834C52.8027 107.247 53.4647 107.623 53.4989 108.476C53.5332 109.207 54.1381 109.695 54.5376 110.038C54.9029 110.348 55.4394 110.725 55.9188 111.09C56.7064 111.7 57.5168 111.5 57.551 110.935C57.5168 106.837 57.2771 100.335 57.026 95.9815C56.9575 95.904 56.889 95.8264 56.8205 95.7378C60.0051 99.4818 64.0914 102.484 68.9654 104.156H68.954C69.9584 107.956 71.1797 115.133 71.2254 115.311C71.351 116.108 72.1728 116.861 73.6567 116.972C74.5698 117.039 75.4944 116.562 76.2934 116.43C77.1038 116.297 77.8001 116.585 78.4621 116.95C79.5579 117.559 81.27 117.659 82.4115 117.116C83.1191 116.784 83.3132 116.241 83.1876 115.754C83.1876 115.776 83.1991 115.787 83.1991 115.809L81.1216 106.106L81.4869 106.073C82.5941 106.261 83.7241 106.228 84.8541 105.962C89.0888 106.062 93.0268 105.375 96.2456 103.99C99.2933 102.683 101.599 100.822 102.889 98.5957C103.927 96.8344 104.27 94.9513 103.928 93.0904C103.722 91.9384 103.243 90.7975 102.512 89.7009L102.432 89.579C100.195 86.2117 98.0605 82.9772 97.3757 79.2332C97.1017 77.7267 97.3528 76.0873 97.661 74.3704C97.8665 73.1187 97.8208 71.712 97.5697 70.3052C97.2615 68.5772 96.6109 66.8381 95.732 65.387C95.732 65.387 98.0035 66.395 99.864 67.3366C100.572 67.68 100.96 67.1704 100.697 66.6277C100.549 66.3286 100.252 65.8744 99.9211 65.3981C99.5786 64.8997 99.3047 64.4787 99.4074 63.8917C99.5672 63.0166 99.3047 61.8203 98.6997 60.3692C97.7409 58.0873 98.3116 56.9243 99.4987 56.6141C100.001 56.4812 100.069 55.9384 99.7156 55.6283L99.7498 55.584ZM82.9023 115.92C82.9023 115.92 82.8795 115.854 82.8795 115.831C82.8795 115.854 82.8909 115.887 82.9023 115.92ZM81.2929 48.9378C80.0829 48.9821 76.6016 49.4141 75.4259 49.6135C75.346 49.1926 75.677 47.0104 76.1222 46.8443C76.5901 46.811 79.3524 46.3901 79.7747 46.3901C80.5852 46.368 81.0417 46.224 81.6809 46.235C81.5668 47.2541 81.4298 48.1624 81.2929 48.9489V48.9378ZM60.6329 43.2553C60.8384 43.2332 61.0666 43.1667 61.7401 43.2997C62.4135 43.4215 61.9798 43.0117 61.7743 42.9563C61.5575 42.8898 61.0666 42.8123 60.4959 42.7458C58.9207 42.5797 59.286 41.7157 59.7882 41.7157C60.2905 41.7157 61.7972 41.8375 62.3565 41.8818C62.9158 41.9372 62.6989 41.6049 62.3108 41.472C61.9455 41.339 60.7242 41.2504 60.2106 41.1286C58.5441 40.7187 58.9436 39.8769 59.3545 39.9544C59.7654 40.032 61.2379 40.176 61.7058 40.2867C62.1852 40.3975 62.151 39.8547 61.6374 39.755C61.1237 39.6443 59.617 39.323 59.4001 39.2566C59.1833 39.2012 58.7495 38.4037 59.9594 38.3704C60.5188 38.3483 62.4135 38.6917 62.9728 38.736C63.5436 38.7913 63.4522 38.603 63.0642 38.3815C62.6761 38.16 60.6671 37.8387 60.0736 37.6504C59.48 37.4621 58.9778 36.875 59.891 36.9526C60.8155 37.0412 61.7173 37.2184 62.4934 37.3403C63.2696 37.451 62.9728 36.9858 62.5619 36.9193C62.1396 36.8418 60.4389 36.3766 59.8567 36.2326C59.2746 36.0886 59.1719 35.4904 59.5371 35.568C59.9138 35.6566 62.2309 36.1772 62.8473 36.2658C63.4751 36.3544 63.4979 35.9667 62.8587 35.7784C62.2195 35.5901 60.0622 35.0363 59.3659 34.859C58.681 34.6818 58.818 34.3163 59.286 34.3827C59.7426 34.4492 62.2195 34.9033 62.95 35.0252C63.6805 35.147 63.1441 34.5489 62.7217 34.427C62.288 34.3052 60.0165 33.9618 59.5714 33.707C59.1148 33.4412 59.1034 33.0978 59.5599 33.3193C60.0051 33.5298 61.1808 33.3858 60.9525 33.2307C60.7242 33.0757 60.4046 32.7323 60.7699 32.7766C61.1237 32.8098 61.6259 33.0646 62.0483 33.1421C62.4592 33.2197 62.4364 33.0757 61.9798 32.8098C61.5346 32.544 60.6557 32.4443 60.222 32.3224C59.7996 32.2006 59.5371 31.6135 59.948 31.691C60.3704 31.7686 61.5004 32.1563 62.2423 32.3224C62.9728 32.4886 62.7103 32.1009 62.1852 32.0344C61.6716 31.979 60.553 31.4363 59.6284 31.0486C58.7039 30.672 59.1833 30.4837 59.7426 30.539C60.3133 30.5944 61.0438 31.0043 61.3178 31.104C61.5917 31.2037 61.9684 31.0929 61.3862 30.8935C60.7927 30.7052 60.1078 30.2843 59.6284 30.1735C59.1604 30.0627 59.092 29.675 59.6969 29.7193C60.3133 29.7637 61.5004 30.1957 62.1396 30.3286C62.7674 30.4726 63.0984 30.0738 62.3679 29.952C61.6374 29.8301 60.0508 29.1766 59.7882 29.1212C59.5371 29.0658 59.3545 28.656 59.7083 28.6892C60.0736 28.7335 61.0895 29.0437 61.3977 29.088C61.7173 29.1433 62.014 28.8886 61.2493 28.8221C60.4731 28.7557 60.2106 28.4123 59.5599 28.1797C58.9207 27.947 59.423 27.6701 59.7768 27.7033C60.1421 27.7366 61.0438 28.0246 61.6259 28.1686C62.1967 28.3126 61.9227 27.9249 61.3634 27.8252C60.7927 27.7255 59.6398 27.2381 59.1833 26.9723C58.7381 26.7064 58.7609 26.6067 59.286 26.6621C59.7996 26.7175 60.5644 27.0277 61.2493 27.2049C61.9341 27.3821 62.1282 27.0166 61.6488 26.8947C61.1694 26.784 59.6398 26.1193 59.3659 26.0197C59.1034 25.92 58.8523 25.6652 59.2061 25.6984C59.5714 25.7317 60.3704 25.9864 60.8041 26.1526C61.2379 26.3298 61.7743 25.931 61.2264 25.7317C60.69 25.5323 59.5143 25.1889 58.9778 24.9895C58.4299 24.7901 58.6925 24.5464 59.0463 24.5353C59.3887 24.5353 60.7356 24.9784 61.2379 24.9895C61.7515 25.0006 61.6374 24.6793 61.1237 24.6683C60.6101 24.6683 59.2518 24.059 58.8979 23.7821C58.5327 23.4941 58.7381 23.5163 59.149 23.5384C59.5599 23.5606 60.0393 23.7267 60.3475 23.771C60.6557 23.8153 61.021 23.6049 60.3475 23.5163C59.6855 23.4387 59.48 23.1729 59.0121 23.0621C58.5327 22.9403 58.6354 22.6412 58.8294 22.608C59.0235 22.5747 59.3431 22.6633 59.5599 22.7298C59.7768 22.7852 60.8612 22.6523 60.0736 22.5415C59.2974 22.4307 59.4572 22.2092 59.0121 21.9877C58.5669 21.7661 58.2587 21.7661 58.6011 21.6664C58.9322 21.5557 59.1719 21.7218 59.7882 21.7993C60.4046 21.888 60.8954 22.0984 60.7927 21.7772C60.6786 21.456 60.3133 21.6664 58.9436 21.312C57.5624 20.9575 58.0076 20.88 58.2016 20.5587C58.3386 20.3261 58.6582 20.459 58.9207 20.3926C59.617 20.736 60.553 20.5698 61.1009 19.9938C61.2721 19.8055 61.6488 19.5064 62.151 19.6172C62.9158 19.7723 63.5321 19.6172 64.023 19.1187C64.3197 18.8307 64.5594 18.5206 64.7991 18.2215L65.0617 17.9113C65.3128 17.6123 65.6095 17.4793 65.8607 17.5458C66.1118 17.6012 66.2944 17.8449 66.3629 18.2215C66.4542 18.6867 66.5341 19.5064 66.6483 20.459C66.7624 21.5335 66.888 22.763 67.0592 23.9261C67.2076 24.912 67.7783 25.0227 67.9609 25.0338C68.3946 25.056 68.7713 24.7347 68.9197 24.2141C68.9197 24.192 68.9197 24.1587 68.9425 24.1366C69.0681 24.1809 69.285 23.9593 69.2279 23.8264C69.1594 23.6603 69.3877 23.339 69.4904 23.2504C69.616 23.1618 69.7758 22.8295 69.7073 22.6301C69.6388 22.4307 69.8899 21.9544 70.1182 21.5446C70.3008 21.2233 70.1525 20.9243 70.0383 20.6141C70.1525 20.2818 70.2552 19.9827 70.3579 19.6726C70.4492 19.7833 70.5862 19.6947 70.7688 19.8055C70.9857 19.9384 71.5222 19.451 71.5336 19.2184C71.545 18.9747 71.9788 18.011 72.1157 17.7563C72.2185 17.5458 72.4467 17.003 72.4582 16.6043C73.1202 16.7372 73.7708 16.6597 74.273 16.571C74.4671 16.5267 74.6383 16.5821 74.7524 16.715C74.8323 16.8037 74.8894 16.9255 74.9122 17.0695C74.9465 17.2357 74.9351 17.424 74.8666 17.6012L74.684 18.1661C74.1475 19.8166 73.5311 21.6997 73.2457 23.2393C73.1658 23.5938 73.1658 23.904 73.2115 24.1698C73.2686 24.4246 73.3599 24.6461 73.5083 24.8344C73.7822 25.1667 74.1931 25.344 74.741 25.3661C78.6333 25.5212 81.4869 28.3458 82.2517 32.5107C82.4 33.3083 82.4571 34.1723 82.4457 35.0584C82.3886 37.4843 82.2288 40.2978 81.9777 43.0338C81.6353 42.9895 81.2929 42.9673 80.939 42.9784C80.3226 43.0006 79.7405 42.9341 79.2154 42.7901C77.606 42.3581 76.3733 42.336 75.4601 42.7347C75.4601 42.7347 75.4259 42.7569 75.4031 42.7569C75.483 41.7489 75.5058 40.7187 75.4944 39.8326C75.5629 39.8104 75.6656 39.8547 75.7455 39.8326C75.9624 39.7993 76.0194 40.0541 76.0194 40.331C76.0194 40.5858 76.0308 41.904 76.0879 42.203C76.145 42.5021 76.4189 42.2584 76.3847 42.059C76.3504 41.8707 76.4075 41.5606 76.3961 41.04C76.3961 40.5083 76.339 38.9353 76.282 38.4812C76.2363 38.0935 76.282 37.5729 76.1678 37.1963C76.0537 36.8197 75.7911 37.0855 75.8254 37.3624C75.8596 37.6393 75.8026 38.016 75.8482 38.4701C75.9053 38.8467 75.7112 38.6473 75.4373 38.6252C75.4145 38.2929 75.3688 37.9827 75.3346 37.6726C75.2889 37.152 75.209 36.6646 75.1291 36.2104C74.8323 34.6043 74.3758 33.3415 73.748 32.4775C73.4969 32.123 73.1544 31.9126 72.812 31.8904C72.7663 31.5249 72.4125 31.5692 72.2984 31.547C72.1728 31.5249 71.9103 31.1926 71.9331 31.0707C71.9673 30.9489 72.3212 30.7163 71.7847 30.539C71.2482 30.3618 71.2825 30.5058 71.1341 30.6498C70.9857 30.7938 70.3008 30.7938 70.6661 31.0043C71.0314 31.2037 71.6934 31.5138 71.5907 31.6357C71.4879 31.7464 71.4423 31.9015 71.1912 31.824C70.9515 31.7464 70.3237 31.6024 70.084 31.547C69.8443 31.4917 69.6388 31.7243 69.9242 31.8129C70.2209 31.9126 70.9629 31.7353 71.1797 31.9458C71.2596 32.0233 71.6706 31.9237 71.4423 33.1864C71.3053 33.4523 69.0681 37.0301 69.1138 37.0744C68.9768 37.2517 66.089 40.1649 66.1232 40.3532C65.8264 40.6301 65.5068 40.9181 65.1758 41.2061C64.6051 41.7046 61.683 44.7064 61.1694 45.4486C60.9982 45.371 60.69 45.2603 60.3361 45.1273C58.7609 44.5292 59.2403 43.3772 60.5987 43.2664L60.6329 43.2553ZM60.9982 47.5421C62.1053 45.2713 63.9659 43.4547 65.815 41.8486C69.479 38.6584 71.0656 36.1772 72.5837 32.9649C72.6522 32.8209 72.7321 32.7655 72.7778 32.7544C72.8234 32.7544 73.3713 33.4744 73.4398 33.6184C73.3485 33.6738 73.8507 34.6486 73.6795 34.8037C73.5083 34.9587 73.2914 34.715 72.9946 34.5932C72.6979 34.4713 72.6065 34.848 72.8919 35.0695C73.1887 35.291 73.7936 35.6787 73.9192 35.8227C74.0447 35.9446 74.1703 36.4873 73.8735 36.4209C73.5882 36.3433 72.8919 35.8227 72.5038 35.5015C72.1157 35.1692 71.9331 35.7563 72.1614 35.8892C72.3897 36.0221 73.417 37.019 73.7708 37.2073C74.1132 37.3846 73.8735 37.6726 73.9306 38.1157C72.5723 39.5667 71.6363 41.2061 71.077 43.1003C71.0428 43.2443 71.0199 43.3883 71.0542 43.5101C71.0884 43.6984 71.1912 43.8757 71.351 43.9864C71.6135 44.1858 71.9788 44.1858 72.2984 44.0086C73.0403 43.5766 74.079 43.4215 74.5584 43.6763C75.0378 43.931 75.4944 43.7317 75.8596 43.5766H75.8825C76.5787 43.2553 77.6403 43.2886 79.0214 43.6652C79.6378 43.8313 80.3112 43.9089 81.0075 43.8867C81.3613 43.8867 81.6924 43.8978 82.012 43.9421L83.2675 44.2855C83.5757 44.4184 83.8839 44.5846 84.1464 44.784C84.078 44.928 84.0209 45.0166 83.8497 45.0609C83.4844 45.1606 81.0303 45.4597 81.0303 45.4707C80.8591 45.504 80.6879 45.5261 80.5053 45.5593C80.0943 45.1827 79.0556 44.5513 78.9187 44.3298C78.7589 44.0972 78.4164 44.363 78.6219 44.5513C78.8274 44.7397 79.5122 45.3267 79.7747 45.6037C79.6149 45.6037 79.3524 45.6037 79.0442 45.6258C79.0214 45.6037 78.9986 45.5926 78.9757 45.5704C78.6447 45.3046 78.1653 44.795 77.8914 44.5181C77.6174 44.2412 77.3435 44.5624 77.5946 44.7286C77.8457 44.9058 78.2338 45.4929 78.3137 45.6258C78.3137 45.648 78.3137 45.648 78.3137 45.659C78.2338 45.659 78.1539 45.6812 78.074 45.6812C77.9485 45.659 77.8115 45.5926 77.7316 45.515C77.5261 45.3267 76.807 44.7507 76.5559 44.5735C76.2934 44.3963 75.9281 44.5181 76.0651 44.6621C76.2021 44.8061 77.081 45.3489 77.1837 45.6037C77.2179 45.6923 77.1837 45.7477 77.1152 45.7809C77.0695 45.7809 77.0125 45.7809 76.9668 45.803C76.8413 45.803 76.6586 45.7366 76.5217 45.6147C76.1906 45.3489 75.6998 44.8283 75.4601 44.7064C75.2204 44.5846 75.0949 44.8726 75.3117 45.1052C75.5172 45.3489 75.9281 45.4929 76.0537 45.792C76.0765 45.8584 76.0651 45.9249 76.0537 45.9692H76.0308C75.8825 46.0024 75.7455 46.0467 75.6085 46.1021C75.5514 46.08 75.483 46.0467 75.4145 46.0024C75.0949 45.7255 74.8552 45.3378 74.5356 45.1717C74.2274 45.0055 73.9078 45.0609 74.1132 45.2935C74.3301 45.5261 75.1177 45.8806 75.1519 46.091C75.1748 46.1797 75.1405 46.2794 75.0835 46.3347C75.0492 46.3458 75.0264 46.368 75.0036 46.379C74.9351 46.379 74.878 46.379 74.8095 46.3126C74.6155 46.1353 74.6155 46.1907 74.3073 46.0246C73.9877 45.8695 74.0562 46.5009 74.3758 46.7224C74.3986 46.7335 74.41 46.7446 74.4214 46.7667C74.273 46.8886 74.1247 46.9993 73.9649 47.1323C73.611 46.8 72.7892 46.2904 72.7892 46.2904C72.7892 46.2904 72.207 46.1686 72.5266 46.3901C72.8462 46.6117 73.3827 47.1101 73.2001 47.2984C73.006 47.4978 72.3783 47.0547 72.0701 46.8997C71.7619 46.7446 71.5678 46.8775 71.7619 47.0547C71.9673 47.243 72.8577 47.52 72.9604 47.819C73.0745 48.1292 72.8919 48.3175 72.4696 48.1735C72.0472 48.0295 71.5678 47.8412 71.2026 47.6418C70.8259 47.4313 70.9058 47.8633 71.0998 47.9852C71.2939 48.1181 72.3098 48.8049 72.0815 49.0597C71.8532 49.3144 70.7003 48.8049 70.3693 48.5944C70.0497 48.384 69.7644 48.6498 70.0269 48.827C70.278 49.0043 71.5108 49.6467 71.2825 49.9126C71.0542 50.1673 69.9128 49.4363 69.6502 49.2147C69.3877 48.9932 69.1937 49.1815 69.4105 49.4141C69.616 49.6467 70.8944 50.2449 70.6661 50.4997C70.4378 50.7544 68.9425 49.9347 68.5659 49.7243C68.1892 49.5138 67.9951 49.9347 68.349 50.0787C68.7143 50.2338 70.5405 51.1089 70.1182 51.5077C69.6845 51.9064 68.3832 50.8763 67.8353 50.5993C67.2875 50.3224 67.0592 50.6215 67.4358 50.8873C67.8239 51.1532 68.7028 51.6517 68.954 51.8732C69.2165 52.0947 69.285 52.416 68.7942 52.1723C68.3033 51.9286 66.4999 50.9317 66.1232 50.9538C65.7237 50.9538 65.6666 51.2529 66.1004 51.4412C66.5341 51.6406 67.8924 52.0504 68.1549 52.3274C68.4403 52.6043 67.9267 52.5821 67.5157 52.4381C67.0934 52.2941 66.0205 51.6073 65.7465 51.6517C65.4726 51.696 65.0731 51.6517 65.5753 51.9507C66.0661 52.2498 67.1847 52.4824 66.8081 52.6043C66.4428 52.7261 65.678 52.6929 65.0617 52.6929C64.5708 52.6929 61.683 54.6535 60.0622 56.027C58.4756 56.4258 57.4141 54.011 59.3887 50.2892C59.4116 50.112 60.9525 47.6307 61.0096 47.52L60.9982 47.5421ZM57.22 60.1255C57.3342 60.048 57.5054 59.9926 57.6538 60.0701C57.9962 60.2363 59.7882 61.1667 60.0736 61.344C60.2106 61.4215 60.2791 61.5655 60.2106 61.6873C60.1421 61.8313 59.9138 61.92 59.5714 61.8092C59.2746 61.7095 58.6696 61.3772 58.1332 61.0892C57.7451 60.8677 57.3684 60.6683 57.22 60.6129C57.083 60.5575 57.0488 60.4689 57.0488 60.4246C57.026 60.3249 57.0944 60.203 57.2086 60.1255H57.22ZM55.6106 61.488C55.6106 61.4215 55.6677 61.355 55.759 61.3107C55.8731 61.2664 56.0329 61.2886 56.1585 61.4215C56.2954 61.5766 59.1604 62.8283 59.6284 62.939C60.0394 63.0498 60.0165 63.1606 60.0165 63.1938C60.0051 63.2824 59.8681 63.515 59.3431 63.4929C58.7609 63.4707 57.1173 62.6732 56.1927 62.1969L55.6334 61.9089C55.4394 61.8313 55.6106 61.5433 55.622 61.4769L55.6106 61.488ZM63.3153 73.9606C63.5892 74.0381 63.6235 74.1378 63.6006 74.2153C63.5664 74.3704 63.224 74.4147 62.8473 74.3372C62.4592 74.2486 61.7515 73.9827 61.1808 73.7723C60.8498 73.6504 60.5758 73.5397 60.4503 73.5175C60.2791 73.4621 60.1763 73.3292 60.1535 73.2295C60.1307 73.152 60.1535 73.0744 60.222 73.0301C60.2791 72.9858 60.3932 72.9637 60.5872 73.0633C60.9411 73.2295 62.7788 73.8277 63.3039 73.9827L63.3153 73.9606ZM58.6354 89.0806C58.6354 89.0806 58.6354 89.0141 58.6582 88.992C58.7495 88.9144 59.0805 89.003 61.215 89.7895C61.82 90.0221 62.4135 90.2437 62.5619 90.2769C62.8701 90.3433 64.548 90.9304 64.6279 91.1963C64.6622 91.296 64.685 91.44 64.6279 91.5397C64.5823 91.6172 64.411 91.8941 64.2969 91.9273C64.0914 91.9717 62.5962 91.4067 62.5962 91.4067C61.5917 90.9969 59.6398 90.3655 59.3317 90.299C58.8294 90.1993 58.6582 89.6012 58.6696 89.3464C58.6696 89.2578 58.6696 89.1692 58.6468 89.0806H58.6354ZM65.5296 91.008L65.1758 90.8086C64.9932 90.72 64.9589 90.587 64.9589 90.5427C64.9589 90.4652 65.0046 90.3877 65.0959 90.3433C65.1986 90.288 65.3813 90.2769 65.5753 90.3987C65.6438 90.4541 65.8378 90.5206 66.0205 90.5981C66.4999 90.7864 67.8924 91.1852 67.9038 91.2738C67.9152 91.3403 67.9038 91.4621 67.8239 91.5618C67.7669 91.6394 67.6755 91.6836 67.5842 91.6836C67.413 91.6947 65.8492 91.1963 65.5296 91.008ZM67.3674 88.2055C67.3445 88.272 67.2646 88.3717 67.0249 88.3717C66.7053 88.3717 64.08 87.5187 63.6235 87.3858L63.4294 87.3304L63.281 87.2972C63.1098 87.275 62.9272 87.2418 62.8701 86.9538C62.8701 86.8541 62.813 86.4664 62.9272 86.4332C63.1326 86.3446 65.8835 87.3193 66.1917 87.3415C66.5684 87.3747 66.9108 87.408 67.0592 87.5187C67.2418 87.6627 67.4016 88.0947 67.3674 88.2055ZM66.2716 86.1674C65.7465 86.2006 62.8929 85.1704 62.5277 84.96C62.4021 84.8935 61.9684 84.7052 61.4776 84.4947C60.3247 84.0073 59.2746 83.6086 59.0463 83.52C57.8136 83.0547 56.227 82.9661 56.3753 82.0467C56.3982 81.9138 56.5466 81.5483 56.6379 81.4818C56.6949 81.4486 56.7977 81.4153 56.9575 81.515C57.0374 81.5704 57.3456 81.6812 57.6652 81.792C58.1788 81.9692 59.8225 82.667 60.3932 82.8221C60.9297 82.9772 65.3242 84.6609 65.5296 84.6941C65.8607 84.7717 66.1803 84.8381 66.3401 85.0043C66.3857 85.0597 66.4314 85.1261 66.4314 85.1926C66.4314 85.259 66.4314 85.4252 66.4314 85.4917C66.3857 85.7132 66.6483 86.123 66.283 86.1563L66.2716 86.1674ZM51.3759 75.1569C51.4101 75.0018 51.4558 74.7249 51.9123 74.9243C52.0836 75.0018 58.0418 77.1729 58.293 77.2615C58.3386 77.2837 58.4299 77.6935 58.4071 77.7267C58.3614 77.8597 58.0533 77.9483 57.8592 77.8818L53.75 76.475C52.62 76.1538 51.5471 75.8215 51.3873 75.5113C51.3074 75.3452 51.353 75.2566 51.3759 75.1569ZM51.1248 80.939C51.3873 80.939 53.556 81.9803 53.7843 82.1575C54.2865 82.5452 54.5376 83.819 54.5605 83.8412C54.7317 84.0074 53.0538 83.3538 52.7342 83.2541C52.1178 83.0658 51.0905 82.6892 50.9764 82.523C50.8736 82.379 50.828 82.0024 50.8851 81.9249C50.9307 81.8473 50.885 80.939 51.1248 80.939ZM51.1476 84.9267C51.2047 84.8049 51.2047 84.1957 51.3302 84.1957C51.3987 84.1957 54.6518 85.1372 54.7317 85.1704C55.3823 85.4695 55.3595 86.7101 55.3595 86.7101C55.3024 86.7877 55.2339 86.832 55.154 86.843C54.9942 86.8652 52.4488 85.9901 52.2091 85.9347C51.958 85.8794 51.4444 85.7686 51.3188 85.6578C51.2275 85.5692 51.0905 85.0707 51.1362 84.9267H51.1476ZM53.1565 77.5495C53.1451 77.4387 53.2478 77.1397 53.4304 77.0953C53.6359 77.04 55.5421 77.7932 55.9644 77.9593C56.4324 78.1587 56.7406 78.2917 56.8205 78.3581C56.9232 78.4578 56.9461 78.6018 56.9232 78.7126C56.9004 78.8012 56.8433 79.056 56.7749 79.0781C56.7178 79.1003 56.6265 79.0892 56.5237 78.9784C56.2498 78.7237 53.2022 77.7489 53.1679 77.5606L53.1565 77.5495ZM65.8264 83.52C65.8721 83.7194 65.8264 83.8855 65.6894 83.952C65.5411 84.0406 60.1535 82.08 59.891 81.8806C59.8225 81.8252 57.357 80.8393 57.0374 80.5846C56.9575 80.507 57.1972 80.1415 57.2428 80.075C57.3456 79.9421 57.551 79.8757 57.7565 79.9975C57.9505 80.1194 60.5416 80.8504 60.9867 81.0277L61.7173 81.3267C62.2537 81.5593 64.1257 82.224 64.354 82.2904L64.5252 82.3237C64.7078 82.3458 64.9361 82.3901 65.3584 82.6006C65.8378 82.8332 65.815 83.4535 65.815 83.5089L65.8264 83.52ZM65.3813 81.6701C65.3356 81.8695 64.9475 81.8584 64.8562 81.803C64.8562 81.803 59.9937 79.931 59.5599 79.8203C58.8523 79.6209 58.0647 79.488 58.0418 79.2332C58.019 79.0117 58.3044 77.9261 60.1307 78.7015C60.4959 78.8566 64.8676 80.2523 64.8676 80.2523C65.21 80.3741 65.1872 80.784 65.3356 81.1827C65.3356 81.1827 65.4726 81.3046 65.3927 81.6701H65.3813ZM51.5585 66.9489C51.7069 66.6941 52.2319 66.683 52.4032 66.8713C52.563 67.0486 58.7039 69.3193 59.2632 69.4412C59.48 69.4744 59.5485 69.5741 59.5714 69.6406C59.6056 69.7292 59.5485 70.8037 59.4686 70.8923C59.3431 71.0252 59.1034 71.1249 58.8523 71.0695C58.3729 70.9587 51.8667 68.2449 51.5357 67.979C51.4558 67.9126 51.3645 67.824 51.3873 67.7243C51.4101 67.68 51.5243 67.0264 51.5699 66.9489H51.5585ZM51.5813 69.3637C51.6955 69.4301 52.095 69.563 52.4146 69.6849C52.6543 69.7735 52.8597 69.84 52.9396 69.8843C53.0994 69.9618 56.1128 71.0474 57.1858 71.4572L57.9391 71.7452C58.0989 71.8006 58.2016 71.9557 58.2131 72.0554C58.2131 72.0997 58.156 72.443 58.1217 72.4763C58.0761 72.5095 58.2016 72.9415 57.0488 72.5981C55.485 72.144 50.7481 71.003 51.022 69.6849C51.0449 69.5963 51.49 69.2972 51.5927 69.3637H51.5813ZM62.7788 75.5335L62.1396 75.3674C61.3634 75.179 60.3019 74.9243 59.9024 74.7027C59.5942 74.5255 59.5714 74.3704 59.6056 74.2818C59.6627 74.1157 59.754 74.16 60.0964 74.1821C60.5302 74.2154 61.4547 74.5809 62.1967 74.747C62.6076 74.8357 62.9158 75.0572 63.087 75.1126C63.281 75.168 63.3838 75.2455 63.4066 75.3341C63.418 75.3895 63.4066 75.456 63.3495 75.4892C63.2468 75.5889 63.0185 75.6 62.7674 75.5335H62.7788ZM59.0691 67.9126C58.8523 68.0455 56.2954 66.9932 55.7247 66.8603C55.154 66.7384 53.5332 66.0184 53.1223 65.8412C52.9396 65.7526 52.8826 65.52 52.8826 65.4535C52.9054 65.2984 53.1451 64.7114 53.3163 64.667C53.4076 64.6449 53.7843 64.667 53.8756 64.7667C54.0012 64.8997 55.9188 65.6861 56.4552 65.808C56.7634 65.8744 57.3912 66.1292 58.0076 66.3729C58.4984 66.5723 58.9664 66.7606 59.1719 66.816C59.3431 66.8492 59.3887 66.9378 59.4001 67.0043C59.4001 67.1261 59.1947 67.835 59.0805 67.9126H59.0691ZM54.3778 62.8393C54.5148 62.8393 54.8572 62.9058 54.9029 63.0166C55.0627 63.1827 57.551 64.1907 58.8637 64.7224C59.0805 64.811 59.5143 64.9993 59.5143 65.099C59.5143 65.4424 59.2175 65.675 58.8637 65.6861C58.2245 65.7083 54.4463 63.9138 54.2294 63.6701C54.1381 63.5704 54.024 63.36 54.0354 63.3157C54.0697 63.227 54.2409 62.8393 54.3664 62.8393H54.3778ZM47.9287 51.0092C48.2598 51.1532 50.2801 51.9397 50.5426 52.0393C50.8166 52.139 50.8508 51.84 50.6339 51.7292C50.4056 51.6184 49.1615 50.8541 48.7734 50.6658C48.3853 50.4886 48.9332 50.3889 49.1387 50.4553C49.3555 50.5107 50.3143 50.7877 50.5883 50.8873C50.8508 50.987 51.1133 50.7433 50.9421 50.6326C50.7823 50.5218 50.5997 50.3003 50.1431 50.0344C51.0106 49.8461 51.49 49.4252 51.821 48.6387C52.0151 48.1513 52.1406 47.7747 52.3461 47.1655C52.5972 46.4344 53.0766 46.1243 53.4419 46.1575C53.8528 46.1797 54.1838 46.5895 54.2865 47.2209C54.7203 49.5803 54.7317 52.0615 54.7545 54.4652C54.7545 56.016 54.7773 57.4781 54.8915 58.8406C54.161 59.4055 53.4761 60.0369 52.8483 60.7347L52.8255 60.6904C52.8255 60.6904 52.6314 60.7237 52.2205 60.7347C51.821 60.7569 51.49 60.3803 51.7868 60.3249C52.0836 60.2806 52.3233 59.9815 52.0836 59.9704C51.8324 59.9704 51.6612 59.904 51.1362 59.7932C50.6111 59.6824 50.6453 59.339 50.8965 59.2947C51.1362 59.2504 51.5243 59.4387 51.8667 59.627C52.1977 59.8154 52.6771 59.339 52.152 59.2283C51.627 59.1286 50.8736 58.619 50.2458 58.5304C49.6181 58.4418 49.4354 57.9766 49.9148 58.0984C50.3942 58.2203 51.0677 58.2978 51.6841 58.3421C52.3004 58.3864 52.0607 57.9766 51.7525 57.888C51.4329 57.7993 50.2801 57.6 49.8007 57.4449C49.3213 57.2787 49.4012 56.9243 49.755 56.9132C50.1089 56.9132 51.627 57.4338 52.0493 57.5557C52.4716 57.6775 52.6543 57.2566 51.9123 57.0904C51.1704 56.9243 49.8007 56.3704 49.5382 56.2707C49.2642 56.171 49.2186 55.883 49.6751 55.9495C50.1545 56.016 51.4215 56.3815 51.6955 56.448C51.958 56.5033 52.0721 56.3261 51.5585 56.2264C51.0334 56.1157 49.9034 55.4843 49.3669 55.3846C48.8419 55.2627 48.9332 54.9194 49.2985 54.9969C49.6751 55.0855 51.0677 55.5286 51.49 55.6061C51.9009 55.6837 52.0037 55.3735 51.3188 55.2517C50.6339 55.1187 49.2985 54.4652 48.8191 54.299C48.3282 54.1329 48.4196 53.7784 48.8875 53.9003C49.3669 54.011 50.2344 54.5538 50.6339 54.5317C51.0334 54.5095 50.8965 54.288 50.5769 54.2547C50.2687 54.1993 49.2414 53.5901 48.9674 53.4461C48.6821 53.3021 48.8076 53.1803 49.0131 53.147C49.2071 53.1138 49.7779 53.4572 50.0404 53.5126C50.3029 53.568 50.5084 53.291 50.1431 53.2024C49.7664 53.1249 49.0359 52.7483 48.6707 52.6597C48.3054 52.5821 48.3967 52.272 48.6707 52.3274C48.9332 52.3717 49.8463 52.715 50.223 52.7926C50.5997 52.8701 50.6111 52.7261 50.2458 52.6375C49.8806 52.56 48.488 51.8621 47.9744 51.5963C47.4722 51.3415 47.5977 50.9317 47.9287 51.0646V51.0092ZM52.0037 72.2547C54.5034 72.8529 56.7749 73.9495 58.2815 74.4701C59.48 74.891 58.681 75.2233 59.0121 75.3895C59.4116 75.6 60.2106 75.9101 61.3977 76.32C62.482 76.6855 63.5093 77.0289 63.7718 77.1729C64.0458 77.328 64.0914 77.8154 64.08 77.9483C64.08 78.048 64.023 78.1255 63.9316 78.1698C63.8289 78.203 63.6805 78.1698 63.5664 78.059C63.3838 77.8929 61.9798 77.4387 60.6215 76.9846C59.3088 76.5415 57.9391 76.0873 57.5168 75.8658C57.026 75.611 56.2954 75.3895 55.6448 75.2012C55.1084 75.035 54.5833 74.891 54.2751 74.7138C53.362 74.2264 52.2319 74.0381 51.3074 73.4953C51.1818 73.4178 51.3987 72.1107 51.9808 72.2547H52.0037ZM46.9928 81.216C47.1982 81.1384 46.9471 80.7286 46.6047 80.496C46.2622 80.2633 45.8742 79.5433 46.1595 79.7427C46.4563 79.9421 47.2667 80.4849 47.6091 80.7175C47.9516 80.9501 48.2255 80.7175 47.7004 80.4073C47.1868 80.0972 46.3307 79.2664 46.034 79.0227C45.7372 78.779 45.566 78.1144 45.8513 78.3249C46.1367 78.5132 47.1297 79.2332 47.3808 79.4769C47.632 79.7317 47.7803 79.4104 47.5863 79.2C47.3923 78.9784 46.4791 78.2473 45.9655 77.8043C45.0866 77.0621 45.3491 75.7994 45.6573 75.8437C45.9312 75.888 47.9173 77.5273 48.2712 77.8153C48.5109 78.0037 48.7049 77.7378 48.3853 77.3944C48.0543 77.04 46.228 75.5224 45.9769 75.3341C45.2692 74.8024 45.4747 73.883 45.4975 73.8166C45.566 73.6726 45.8057 73.4621 45.9541 73.5618C46.2394 73.7501 47.7233 75.179 47.9173 75.3895C48.0999 75.6 48.3625 75.3009 48.0657 75.1126C47.7803 74.9132 46.7759 73.9052 46.422 73.584C46.0568 73.2517 46.422 72.9858 46.7531 73.1298C47.0841 73.2738 48.2255 74.5033 48.5451 74.6363C48.8761 74.7803 48.8191 74.5034 48.6478 74.3815C48.4766 74.2597 46.5818 72.5206 46.3536 72.3212C46.2394 72.2215 46.0111 72.0443 46.1595 71.7784C46.3764 71.3907 46.422 71.0695 47.0042 71.424C47.1868 71.5347 47.5863 71.867 47.7689 72.0332C47.9401 72.1993 48.1684 72.011 47.9744 71.8006C47.7803 71.5901 46.9585 70.992 46.7188 70.7926C46.4791 70.5932 46.6047 70.1723 47.0156 70.3938C47.4037 70.6264 48.431 71.5347 48.5565 71.6677C48.6821 71.7895 49.2186 71.6898 48.8191 71.4129C48.4081 71.136 46.7531 69.5298 46.7188 69.3637C46.6161 68.8873 46.559 67.0707 46.8101 67.3255C47.0612 67.5803 47.7233 67.9126 48.157 68.3224C48.5908 68.7433 48.431 68.1341 48.1684 67.835C47.9744 67.5914 46.6617 66.6941 46.0225 65.6197C45.9655 65.4535 45.897 65.2984 45.8285 65.1434C45.1208 63.4818 45.8513 61.92 47.3009 61.2997C47.8488 61.1667 48.4081 61.1889 48.8647 61.3218C49.2414 61.4437 49.424 61.7095 49.4126 61.8535C49.4012 61.9864 49.1843 62.0861 48.8533 62.1304C48.0315 62.208 47.3923 62.6178 47.0612 63.2381C46.7759 63.7698 46.7987 64.4012 47.0841 64.8775C47.3694 65.3427 47.6662 65.7526 48.0771 66.3175L48.9789 67.5692C50.2573 69.3969 50.4171 72.288 50.1659 74.2153C50.0404 75.2123 49.8578 76.5858 50.1317 78.3692C50.4056 80.1415 50.1659 81.515 49.3555 82.6892C49.0816 83.088 48.7277 83.3206 48.3967 83.3317C48.2598 83.3317 47.7347 83.1212 47.5406 82.8997C47.2439 82.5673 46.3764 81.4707 47.0042 81.2049L46.9928 81.216ZM52.3461 107.369C52.1863 107.435 52.0379 107.557 51.8895 107.712C51.627 108.011 50.9764 108.443 50.3486 108.244L50.2801 108.089C50.1888 107.801 50.3942 107.402 50.7138 107.446C51.0334 107.49 51.7297 107.169 51.764 107.025C51.8096 106.881 52.3233 106.759 52.3347 106.992C52.3347 107.081 52.3575 107.213 52.3347 107.357L52.3461 107.369ZM56.9689 111.146C56.8662 111.223 56.5123 111.212 56.1242 110.913L56.0215 110.836C56.0786 110.669 56.2612 110.47 56.4667 110.382C56.695 110.548 56.9004 110.736 56.9575 110.902C56.9803 110.935 57.0374 111.09 56.9575 111.135L56.9689 111.146ZM56.5922 105.895C56.4781 107.092 56.9689 108.454 56.9917 109.662C56.8433 109.562 56.7178 109.462 56.5922 109.385L56.2384 109.141C55.9873 108.953 49.8692 103.99 49.4354 104.489C49.3669 104.566 49.287 104.666 49.1957 104.788C49.1957 104.788 49.5267 104.189 49.3099 104.034C49.093 103.879 49.2642 103.126 49.4126 102.916C49.5724 102.694 49.6637 102.916 50.029 103.049C50.3942 103.181 50.2458 102.794 50.0746 102.683C49.9148 102.561 49.6066 102.473 49.424 102.329C49.2528 102.162 49.23 101.797 49.4583 101.941C49.6751 102.096 49.9034 102.096 50.2116 102.229C50.5312 102.362 50.4285 102.052 50.2116 101.897C49.9947 101.741 49.6523 101.62 49.3669 101.387C49.0816 101.154 49.2528 100.789 49.5382 100.977C49.8121 101.166 50.2458 101.376 50.6796 101.631C51.1133 101.886 50.9878 101.309 50.6796 101.221C50.3714 101.132 49.8007 100.689 49.5724 100.556C49.2071 100.357 48.9446 99.4375 49.6066 99.4929C50.0746 99.5261 50.4056 99.8473 50.8166 100.025C51.2161 100.191 51.3302 99.8363 50.9764 99.5704C50.6453 99.2935 49.9262 98.8837 49.5496 98.6621C49.1044 98.4184 49.2756 97.6873 49.7208 97.7206C49.9262 97.7427 50.2915 97.9089 50.554 98.0418C50.828 98.1858 50.9649 97.92 50.7481 97.776C50.5198 97.6209 50.1431 97.4326 49.9148 97.2886C49.698 97.1335 49.6751 96.4024 50.1089 96.6683C50.5426 96.923 50.6682 96.923 51.0449 97.056C51.4101 97.1778 51.3188 96.7901 51.159 96.6793C50.9878 96.5686 50.3486 96.347 50.0632 96.1477C49.7779 95.9593 49.892 95.5384 50.223 95.7157C50.5426 95.904 50.9649 96.0812 51.2617 96.203C51.5813 96.336 51.9009 96.1033 51.6841 95.9593C51.4672 95.8043 51.159 95.5495 50.9079 95.4609C49.5952 95.0178 50.1545 90.587 52.5173 92.304C53.0424 92.6917 55.1084 95.1175 55.7704 95.0178C56.7064 94.8849 56.6265 105.663 56.5922 105.895ZM52.6657 89.1027C52.3689 89.0363 51.6498 87.552 52.0379 87.4633C52.3575 87.3969 55.0513 88.3606 55.6562 88.4935C56.7064 88.715 56.6835 90.288 56.1356 90.1883C55.3937 90.0664 53.088 89.2024 52.6657 89.1027ZM67.1505 100.866C66.9108 100.8 63.1897 99.3157 62.8359 99.0609C62.4934 98.8061 62.7103 97.9532 63.3838 98.1969C63.6463 98.2966 67.1847 99.648 67.5157 99.7809C69.2279 100.446 69.0224 101.409 67.1505 100.866ZM60.2106 92.891C59.7996 92.7913 59.3887 92.4701 59.2289 92.1267C59.1604 91.9717 59.4458 91.4953 60.5416 91.8498C60.9183 91.9717 62.3565 92.5255 63.2011 92.7249L63.7604 92.8689L64.1257 92.9797C64.4567 93.0904 66.6483 93.8326 66.8195 93.899C67.3788 94.1317 69.1937 94.7298 69.6845 94.8517C69.8557 94.896 69.8785 95.339 69.7986 95.5827C69.5247 96.4467 60.6215 92.9797 60.222 92.891H60.2106ZM76.4532 116.197C75.814 116.153 73.9877 116.618 73.3256 116.795C72.6636 116.972 72.6294 116.518 72.6864 116.219C72.7321 115.92 73.3599 115.355 73.8165 115.1C74.273 114.846 75.209 114.336 75.5058 114.624C76.1336 115.233 76.613 115.266 77.2978 115.743C77.9941 116.208 77.1038 116.241 76.4646 116.197H76.4532ZM81.6239 116.662C81.6239 117.116 80.5395 117.305 80.0373 117.393C79.5465 117.482 78.4621 116.928 77.9941 116.64C77.5147 116.352 78.1539 115.831 78.4393 115.632C78.8159 115.377 79.3524 115.577 79.6606 115.698C79.9003 115.787 80.7221 115.577 81.0303 115.709C81.3385 115.842 81.6353 116.197 81.6125 116.662H81.6239ZM78.9187 114.414C78.4735 114.535 78.1197 114.591 77.7658 114.546C77.8571 114.391 77.9028 114.203 77.6745 114.159C77.2408 114.081 76.4303 113.45 76.2591 113.239C76.0879 113.018 76.145 113.306 75.8482 113.228C75.5514 113.162 75.2318 113.151 74.6041 113.228C73.9763 113.317 73.9877 110.537 73.9763 110.116C73.9763 109.75 74.6269 108.775 75.8482 108.964C76.4418 109.052 76.9782 108.775 77.0125 108.41C77.0239 108.222 76.9097 107.335 77.1266 107.346C78.1197 107.413 77.6745 106.538 77.7772 106.205C78.5534 106.205 79.341 106.161 80.14 106.084C80.2085 106.106 80.2884 106.128 80.3569 106.15C80.4482 106.56 81.6809 112.342 82.1375 114.513C81.0532 113.981 79.809 114.192 78.9187 114.425V114.414ZM96.5652 74.5477C96.5881 74.448 96.5995 74.3594 96.6109 74.2597C96.6109 74.3594 96.5881 74.448 96.5652 74.5477ZM96.668 73.8387C96.668 73.7834 96.668 73.7169 96.668 73.6504C96.668 73.7058 96.668 73.7723 96.668 73.8387ZM96.5424 70.9477C96.5196 70.8369 96.5082 70.7261 96.4853 70.6153C96.5082 70.7261 96.5196 70.8258 96.5424 70.9477ZM96.6908 73.2184C96.6908 73.163 96.6908 73.0966 96.6908 73.0412C96.6908 73.0966 96.6908 73.152 96.6908 73.2184ZM96.6794 72.2547C96.6794 72.1994 96.6794 72.1329 96.6794 72.0664C96.6794 72.1329 96.6794 72.1883 96.6794 72.2547ZM96.668 71.9335C96.6566 71.867 96.6566 71.8006 96.6451 71.7341C96.6451 71.8006 96.6451 71.867 96.668 71.9335ZM96.6223 71.6123C96.6223 71.5458 96.6109 71.4683 96.5995 71.4018C96.5995 71.4793 96.6223 71.5458 96.6223 71.6123ZM96.5881 71.28C96.5652 71.1913 96.5652 71.0917 96.5538 70.992C96.5652 71.0806 96.5767 71.1803 96.5881 71.28ZM96.4625 70.5267C96.4511 70.4381 96.4283 70.3717 96.4169 70.2941C96.4283 70.3717 96.4511 70.4492 96.4625 70.5267ZM96.394 70.1612C96.394 70.0837 96.3712 70.0172 96.3484 69.9507C96.3712 70.0172 96.3826 70.0837 96.394 70.1612ZM96.3255 69.8178C96.3141 69.7513 96.2799 69.6849 96.2685 69.6184C96.2799 69.6849 96.3027 69.7513 96.3255 69.8178ZM96.2342 69.4855C96.2228 69.419 96.2 69.3637 96.1886 69.2972C96.1886 69.3637 96.2228 69.419 96.2342 69.4855ZM96.1429 69.1532C96.1315 69.0867 96.1087 69.0203 96.0858 68.9649C96.1087 69.0313 96.1315 69.0867 96.1429 69.1532ZM96.0402 68.8209C96.0402 68.7544 96.0059 68.699 95.9831 68.6326C95.9945 68.699 96.0288 68.7544 96.0402 68.8209ZM95.8233 68.1674C95.8005 68.0898 95.7777 68.0344 95.7548 67.968C95.7891 68.0344 95.8119 68.0898 95.8233 68.1674ZM95.5722 67.536C95.538 67.4474 95.5037 67.3587 95.4695 67.2812C95.5151 67.3587 95.538 67.4474 95.5722 67.536ZM94.4079 65.3317C94.4079 65.3317 94.3395 65.2209 94.2938 65.1766C94.3395 65.232 94.3737 65.2763 94.4079 65.3317ZM94.933 66.1846C94.8988 66.1292 94.8645 66.0738 94.8303 66.0184C94.8531 66.0738 94.8988 66.1292 94.933 66.1846ZM94.7618 65.8855C94.7275 65.8301 94.6933 65.7747 94.6705 65.7194C94.7047 65.7747 94.7389 65.8301 94.7618 65.8855ZM94.5906 65.6086C94.5563 65.5532 94.5221 65.4978 94.4878 65.4424C94.5221 65.4978 94.5563 65.5421 94.5906 65.6086ZM95.7891 74.2818C94.7389 80.5403 97.8893 85.3587 100.96 90L101.04 90.1218C101.576 90.9637 102.272 92.4923 102.421 92.9907C102.592 93.4781 102.672 94.9181 102.615 95.5495C102.546 96.1809 101.508 98.3298 101.268 98.7064C101.017 99.1052 100.4 99.792 99.9667 100.146C99.8754 100.235 95.8119 106.815 76.8413 105.12C75.2661 104.655 74.9237 103.492 74.8095 103.115C74.684 102.738 72.4011 101.742 71.8874 101.675C71.3624 101.609 71.4423 101.21 71.8304 101.088C72.2185 100.977 71.4537 100.612 71.0085 100.434C69.0909 99.6812 70.0726 98.4517 70.6204 98.651C71.1683 98.8615 73.1316 99.515 73.8279 99.6037C74.5013 99.6923 74.0219 99.2713 73.748 99.1717C73.4626 99.072 71.8874 98.651 71.4423 98.4184C69.6616 97.5323 71.5564 96.5021 72.2413 96.5907C72.5038 96.624 74.3758 97.067 75.0264 97.2553C75.677 97.4437 75.3574 97.1003 74.7639 96.9009C74.1589 96.7015 73.8964 96.6018 73.1773 96.3692C72.4696 96.1477 73.1773 96.0812 73.3713 96.0369C73.5653 96.0037 74.8666 96.3692 74.7639 96.1477C74.6155 95.8264 73.6795 95.5938 72.7435 95.2172C71.7162 94.8184 68.1778 90.9747 73.5882 92.4147C74.1018 92.5587 74.2045 91.9052 73.9763 91.7944C73.748 91.6837 70.8716 90.5427 70.3922 90.4209C68.9996 90.0443 68.9197 88.5821 69.1937 88.6818C69.4676 88.7815 71.9559 89.7563 72.3212 89.7341C72.675 89.7341 72.6979 89.2246 72.3668 89.0806C72.0244 88.9366 69.9128 88.1723 69.5361 88.0836C69.1594 87.995 68.6686 87.7403 68.7942 87.5298C68.8969 87.3083 68.5088 87.3636 68.1321 86.976C67.7554 86.5883 68.2234 86.3667 68.9311 86.5883C69.6388 86.8209 69.2964 86.2892 69.0567 86.1341C68.817 85.968 68.1892 85.6357 67.8011 85.1926C67.3788 84.7163 67.2304 83.7415 67.0135 83.387C66.7852 83.0215 67.3445 83.2763 67.7669 83.2984C68.1778 83.3206 67.8696 83.0326 67.3902 82.9218C66.9108 82.8 66.8081 82.523 66.6483 82.2018C66.4999 81.8806 67.413 82.1686 67.8239 82.1464C68.2348 82.1243 68.0066 82.0135 67.55 81.792C67.1048 81.5593 66.7053 81.3378 66.7053 81.0941C66.7053 80.8393 67.1619 81.1163 67.8239 81.0498C68.349 81.0055 68.0522 80.6732 67.6641 80.5514C67.276 80.4184 66.888 80.4627 66.4885 80.2301C66.089 80.0086 66.283 79.8535 66.2259 79.5655C66.1689 79.2775 66.5113 79.2443 66.9679 79.2664C67.4358 79.2886 67.6413 79.1667 67.5842 79.0338C67.4473 78.7015 66.6597 78.7458 66.4086 78.7458C66.146 78.7458 65.8264 78.3692 66.0547 78.192C66.2716 78.0037 65.9406 77.5717 65.7123 77.4498C65.484 77.3501 66.0091 77.1618 66.2259 77.1729C66.4428 77.195 66.4885 76.4861 65.678 76.619C64.822 76.752 65.347 75.9766 65.3128 75.2344C65.2785 74.4923 65.5068 74.603 65.2557 74.304C64.9932 74.0049 64.0458 75.0572 64.1828 74.3926C64.3197 73.7169 63.886 73.5507 63.7604 73.4732C63.6463 73.3957 63.7262 73.0301 63.555 72.9083C63.3723 72.7864 61.1123 72.1883 60.5073 71.9446C59.891 71.7009 60.5758 70.6818 61.8771 71.0252C62.4021 71.1581 63.0413 71.28 63.087 70.9034C63.1098 70.6597 62.6647 70.6264 61.683 70.2498C60.69 69.8843 60.9753 69.0092 62.0597 69.0646C62.5163 69.0867 62.7331 68.8652 62.6076 68.688C62.4706 68.5107 61.9798 68.5772 61.6031 68.3889C60.9639 68.0677 60.3019 66.1403 62.0026 66.3618C62.3336 66.4061 62.5048 66.0406 62.0254 65.9187C61.546 65.808 61.5346 65.7637 61.215 65.664C60.884 65.5753 61.2835 64.1132 61.6374 64.0467C61.9912 63.9913 62.345 64.235 62.7217 64.3569C63.1098 64.4898 63.1555 64.1797 62.813 63.9913C62.4706 63.803 62.1738 63.6037 61.8999 63.4486C61.6145 63.3046 61.9684 63.2049 62.1852 63.0166C62.4135 62.8393 63.0071 63.2049 63.5207 63.371C64.023 63.5372 64.0914 63.0166 63.5778 62.7397C63.281 62.5846 62.3108 62.3741 62.3222 62.1304C62.3222 61.8757 62.3565 61.2221 62.6647 61.2221C62.9728 61.2221 63.9545 61.4769 63.9545 61.4769C63.9545 61.4769 64.4681 60.9895 63.9545 60.8455C63.6919 60.768 63.6235 60.8898 62.7788 60.5021C62.0825 60.1809 62.756 59.4387 63.1326 59.5052C63.3723 59.5495 64.4681 59.904 65.1301 59.7821C65.815 59.6603 65.621 59.2172 65.1301 59.0621C64.6393 58.896 63.3153 58.619 62.8701 58.3975C62.4249 58.176 63.2582 56.8135 63.8517 56.6252C64.4795 56.4369 66.1004 55.1741 67.5956 57.1015C67.8696 57.456 68.6572 57.755 68.9425 57.9544C69.2393 58.1427 70.3351 58.8073 70.552 59.1618C70.7574 59.5273 71.3167 59.4498 71.9331 59.1729C72.2527 59.0289 71.6706 58.2092 70.8487 57.2787C70.3922 57.1347 69.9242 56.9686 69.7758 56.8467C69.4448 56.592 68.3604 55.163 68.5316 54.864C68.1207 54.4652 67.8582 54.2215 67.8582 54.2215L66.945 53.4572C69.6616 52.992 72.7892 53.3464 76.4189 54.4763C76.4189 54.4763 81.9891 60.48 82.069 60.6129C82.1489 60.7347 83.0164 61.0117 83.2447 60.8233C83.473 60.6572 83.1762 59.6603 82.7082 59.6603C82.2517 59.6603 81.7494 58.1427 81.4412 57.8215C81.1559 57.5113 79.0556 55.1963 78.7589 54.8197C78.4621 54.443 78.9872 54.443 79.1926 54.6978C79.4095 54.9304 80.1058 55.5286 80.3112 55.3957C80.5167 55.2738 80.2313 55.1298 79.8318 54.6646C79.4323 54.1993 80.14 54.6092 80.1857 54.3544C80.1857 54.3323 80.1857 54.3212 80.1857 54.3101C82.0234 54.5427 83.941 55.2738 85.7901 56.4701C88.5067 58.2203 90.7782 60.768 91.8511 63.2713L91.8968 63.371L91.9881 63.4375C94.9786 65.808 96.3826 70.9587 95.8233 74.2818H95.7891ZM96.7365 65.3649C96.7365 65.4646 96.7365 65.5643 96.7479 65.6529C96.5196 65.531 96.2913 65.4092 96.063 65.2873C95.869 64.656 94.8303 63.4818 94.6134 63.3046C94.3737 63.1163 94.8189 62.7397 95.4923 63.227C96.1543 63.7034 96.725 64.944 96.7365 65.3649ZM94.7275 55.2849C94.2139 55.2849 93.7573 55.7501 93.8943 56.16C94.0427 56.5587 93.9628 57.4117 93.9057 57.744C93.8715 58.0873 94.3394 58.763 94.5677 58.896C94.796 59.0178 95.0129 59.8153 94.7504 59.9261C94.4993 60.0369 94.134 60.0923 94.2596 60.4357C94.3965 60.779 94.0997 61.2553 93.9628 61.056C93.8258 60.8455 93.7459 60.5907 93.5975 60.1587C93.4377 59.7157 93.1067 59.5827 93.2665 60.0147C93.4149 60.4578 93.4605 60.7458 93.6089 61.1778C93.7573 61.6209 93.3921 61.8203 93.2437 61.2775C93.1181 60.7458 92.6501 60.2473 92.5702 59.8375C92.4903 59.4166 92.2164 59.5606 92.3305 59.9815C92.4333 60.3914 92.1022 60.624 91.931 60.0812C91.7712 59.5495 91.2119 57.9877 91.0635 57.5446C90.9151 57.1015 90.5499 57.1569 90.6526 57.3784C90.7553 57.5889 90.8124 58.0098 90.8352 58.2092C90.8695 58.3975 90.5271 58.7298 90.4472 58.3089C90.3558 57.888 90.0933 57.3784 90.0362 57.0461C89.9792 56.7249 89.3286 56.3483 89.4998 56.747C89.6824 57.1458 89.6139 57.3895 89.6253 57.8547C89.6482 58.32 89.34 57.9766 89.2715 57.755C89.203 57.5335 89.0204 57.1347 88.9405 56.8467C88.8606 56.5587 88.5295 56.2929 88.5752 56.5477C88.6209 56.8024 88.6665 57.0572 88.4611 57.0018C88.2442 56.9353 88.2099 56.5477 88.13 56.2929C88.0501 56.0381 87.742 55.296 87.605 54.9194C87.468 54.5427 87.0343 54.4541 87.1827 54.6867C87.331 54.9304 87.3767 55.584 87.468 55.9052C87.5479 56.2153 87.0229 56.0824 86.943 55.8609C86.8745 55.6393 86.338 54.5427 86.1782 54.2658C86.0184 54 85.7216 54.1883 85.8928 54.4209C86.0755 54.6535 86.2353 55.1963 86.338 55.5064C86.4407 55.8166 85.8928 55.307 85.7673 55.1741C85.6417 55.0301 85.2422 54.3323 85.1167 54.0221C84.9911 53.712 84.5459 53.7563 84.74 54.0221C84.9226 54.299 84.8655 54.3655 85.0025 54.7421C85.1395 55.1187 84.5231 54.6867 84.4204 54.5427C84.3291 54.3877 83.7812 53.424 83.6899 53.1692C83.6214 52.9144 83.1762 53.1581 83.4045 53.4572C83.6328 53.7452 83.5415 54 83.6556 54.2437C83.7698 54.4873 83.0278 54.0553 82.9251 53.8449C82.8224 53.6344 82.343 52.8701 82.0805 52.3938C81.8293 51.9175 81.7494 52.427 81.8522 52.6375C81.9549 52.859 82.1946 53.2357 82.2517 53.568C82.3087 53.8892 81.9663 53.712 81.875 53.568C81.7837 53.4129 81.4983 52.7704 81.3842 52.56C81.27 52.3384 80.6651 52.1501 81.076 52.9144C81.4869 53.6677 81.1901 53.5569 80.9504 53.568C80.7107 53.568 80.4254 53.291 80.4254 53.291C80.4254 53.291 80.2313 52.7926 80.1286 52.4492C80.0373 52.0947 79.7519 52.2498 79.8432 52.3938C79.946 52.5378 79.8661 52.848 79.9231 53.1692C79.9802 53.5015 79.5693 53.2689 79.535 53.1138C79.5008 52.9477 79.204 52.4049 79.1013 52.283C79.01 52.1612 78.7018 52.1612 78.8388 52.2941C78.9643 52.4381 78.9986 52.6597 79.0214 52.9587C79.0442 53.2578 78.9757 53.2689 78.8502 53.1249C78.7246 52.9809 78.405 52.7372 78.1767 52.416C77.9484 52.0947 77.5261 52.5932 77.3321 52.6264C77.1266 52.6597 76.5673 51.995 76.4418 51.8843C76.3162 51.7735 76.0993 51.8843 76.2021 52.0615C76.3048 52.2498 76.6815 52.5489 76.5673 52.7593C76.476 52.9809 76.613 53.3797 76.2363 53.4129C75.871 53.4461 75.4373 52.7483 75.0264 52.7261C74.6041 52.6929 74.1018 52.7483 73.9534 53.0473C73.9534 53.0473 73.942 53.0474 73.942 53.0584C73.5311 52.9698 73.1316 52.9033 72.7321 52.848C72.3554 52.704 72.0016 52.56 71.8418 52.5157C71.5792 52.4492 71.6021 52.3606 71.7048 52.128C78.8844 48.7938 89.1916 48.528 97.7752 55.2517C97.6953 55.2738 97.5925 55.296 97.5126 55.307C97.2958 55.152 96.7136 55.1187 96.4625 55.0966C96.1772 55.0744 95.2412 55.3403 94.7275 55.3292V55.2849ZM98.1861 56.6917C97.9121 56.88 97.6953 57.1237 97.5355 57.4227C97.2843 57.9212 97.2159 58.5526 97.3528 59.2837C97.4442 59.7267 97.5811 60.203 97.798 60.7237C98.1176 61.499 98.3345 62.1747 98.4372 62.7618C98.5285 63.2492 98.5399 63.6701 98.4829 64.0135C98.4486 64.2461 98.4486 64.4566 98.4829 64.6449C98.5628 65.1101 98.8253 65.4867 99.065 65.8412C99.3161 66.1957 99.6585 66.7163 99.8069 67.0153C99.8298 67.0597 99.8412 67.0818 99.8526 67.115C99.8526 67.1593 99.8526 67.1815 99.8526 67.2037C99.8298 67.2037 99.5444 67.1483 99.3846 67.0597C99.0307 66.8714 98.4486 66.251 98.0149 65.5643C97.8551 65.2763 97.7523 64.9994 97.6953 64.6892C97.6724 64.5563 97.6953 64.0578 97.7409 63.9581C98.0834 63.0277 97.0332 61.0227 96.8392 60.7237C96.7136 60.5353 96.3826 60.059 96.1886 59.6603C96.1429 59.483 95.732 58.176 96.3826 57.4892C96.6566 57.2012 97.3528 56.747 97.7409 56.5477C98.0605 56.3704 98.1861 56.4812 98.1975 56.7138L98.1861 56.6917Z"
                fill="#002856" />
            <path
                d="M77.3892 54.5206C77.3892 54.5206 77.3663 54.4873 77.3549 54.4873C77.3093 54.4319 77.0696 54.3101 76.7043 54.155C75.7912 53.7119 74.8095 53.3575 73.7937 53.1138C73.3485 52.9698 72.9718 52.8701 72.812 52.8479C72.618 52.8258 72.2641 52.7926 71.819 52.7483C71.4081 52.6929 71.0086 52.6596 70.5976 52.6486C69.7416 52.5821 68.8398 52.5489 68.3148 52.6153C68.0865 52.6375 67.7669 52.715 67.413 52.8147C65.8835 53.0473 64.4225 53.5015 63.1555 54.1993C63.1327 54.1993 63.1212 54.2215 63.0984 54.2215C62.3679 54.6313 61.7059 55.1076 61.1237 55.6726C60.5644 56.2153 59.9138 56.459 59.3888 56.6363C55.9302 57.8326 52.5972 60.0701 51.022 63.9249C50.9307 64.1575 51.159 64.2793 51.2732 64.1021C53.3734 60.7458 56.8548 58.6966 59.6855 57.8769C60.5188 57.6443 60.9297 58.2092 60.9868 58.7963C61.1237 60.0701 61.215 61.1446 60.9868 61.8756C60.7699 62.6178 60.4275 63.3156 60.1535 64.0135C59.8682 64.7113 59.6855 65.7304 59.7883 66.6609C60.0051 68.5661 60.416 71.0141 59.0349 73.3624C58.8409 73.6947 59.0806 73.883 59.3888 73.595C61.1009 71.9999 61.158 69.4966 60.9639 67.0486C60.8954 66.0738 61.1123 65.1987 61.4205 64.6449C62.3679 62.9279 62.8587 61.7538 62.7674 60.3138C62.7103 59.483 62.6989 58.5858 62.619 57.8547C62.5277 57.1236 62.7788 56.6141 63.1897 56.2153C63.7604 55.6615 64.9818 54.9636 65.9748 54.7864C66.6711 54.6646 67.0592 55.0412 67.3788 55.5507C68.817 57.7883 70.5748 58.8738 73.3485 59.9039C74.4443 60.3138 74.6726 60.9673 74.5356 61.9421C74.3986 62.9058 74.2959 63.947 73.28 64.8443C71.5108 66.395 70.415 67.9679 69.9014 69.6516C69.7073 70.283 69.148 71.0141 68.2463 71.2356C64.9475 72.0442 62.9843 74.3482 64.0344 77.0067C64.9133 79.2221 65.3014 80.0972 65.7237 81.8584C66.146 83.6307 66.9222 86.3335 67.5842 88.1169C68.6001 90.875 69.8215 93.2898 70.8145 94.5858C71.077 94.9403 71.3624 94.6966 71.1569 94.3199C69.7986 91.8609 68.4517 88.1169 67.9039 85.9679C67.8354 85.6799 68.0066 85.3476 68.3718 85.3919C69.4676 85.5027 72.2071 86.1784 74.216 87.0756C74.547 87.2307 74.741 86.8873 74.3986 86.699C72.4696 85.6246 69.5475 84.5501 68.0522 84.2621C67.6527 84.1846 67.4473 83.7304 67.3331 83.243C66.8994 81.3489 66.4885 79.0892 65.5411 76.7852C64.9589 75.3784 65.484 74.4812 66.4314 73.739C67.0135 73.2849 68.3833 72.8418 68.9426 72.8639C69.1024 72.8639 69.2393 72.8972 69.3535 72.9636C69.4334 73.0523 69.5247 73.1409 69.616 73.2073C69.7073 73.3292 69.753 73.451 69.7986 73.6172C70.1411 74.9021 70.9401 76.4529 71.8875 77.483C72.8463 78.5132 73.3257 79.3772 73.5768 80.2744C73.7252 80.795 74.0562 80.7396 74.0219 80.1969C73.9649 79.3107 73.4855 78.0479 72.675 76.9846C71.8532 75.9323 71.1455 74.5144 70.9401 73.451C70.746 72.3876 70.9172 71.5236 71.1798 70.571C71.7162 68.6879 73.143 66.9489 74.3644 66.0516C75.5971 65.1433 76.476 63.5372 76.3162 61.5876C76.2706 61.0892 76.8984 60.7901 77.218 61.4326C78.211 63.4153 79.5693 65.0547 81.0646 65.9741C84.7742 68.267 84.9341 71.6566 81.8522 73.6061C77.8001 76.1538 77.9028 79.6098 79.6949 82.811C80.5053 84.2621 81.0532 84.9599 81.5782 85.6689C82.1147 86.3667 82.1832 87.1975 81.7951 87.9618C80.6308 90.2215 80.6765 92.5809 81.9093 94.2424C82.8224 95.483 83.4045 96.5132 83.6671 97.1224C83.9068 97.6763 84.2834 97.5544 84.1236 97.0449C83.7812 95.9039 83.0393 94.6523 82.5827 93.8547C81.875 92.5809 82.0919 90.3433 82.5142 89.3575C82.8566 88.571 83.1534 87.9839 83.3589 87.5519C83.5415 87.1199 83.9752 86.8873 84.3291 87.2639C85.1852 88.1722 85.8586 89.6455 86.3038 90.5649C86.7489 91.4843 87.4452 91.883 88.1072 92.1821C89.6025 92.8467 91.075 93.8547 91.5201 95.1729C91.6685 95.6049 91.9995 95.4276 91.9196 95.1064C91.5544 93.4338 90.3102 92.6584 88.7464 91.595C87.8105 90.9636 87.3996 90.6313 87.0457 89.7673C86.3038 87.9618 85.9499 86.3556 84.5003 85.547C83.5872 85.0375 82.9708 84.9156 82.4115 84.2399C80.8363 82.3236 79.9916 80.3409 80.1058 78.7347C80.2313 77.1286 81.4641 75.6886 83.005 74.7249C84.7857 73.6172 85.87 71.9003 85.7787 70.0615C85.7445 69.5298 86.2581 69.3193 86.7604 69.4301C88.6095 69.8399 90.7325 70.9919 91.3033 74.0935C91.3946 74.603 91.8854 74.459 91.8283 74.0049C91.6571 72.3766 91.2005 69.7513 88.1415 68.5329C87.8447 68.3446 87.5594 68.2116 87.3767 68.2227C87.3197 68.2227 87.2512 68.2227 87.1827 68.2227C86.9658 68.1673 86.7375 68.123 86.4978 68.0676C85.9385 67.979 85.3564 67.979 84.9911 67.3366C84.1807 65.8855 83.005 65.0215 81.8522 64.3569C80.7107 63.6922 79.8318 62.3741 79.0328 60.9895C78.2338 59.6049 77.4805 58.5969 75.9053 58.4639C73.2229 58.2646 70.9172 57.2455 69.3535 55.1963C69.0909 54.8418 69.2736 54.3433 69.8785 54.3766C73.7822 54.587 76.1336 55.3292 78.2909 57.2012C79.809 58.5083 80.8021 59.8596 81.7951 61.2332C83.4502 63.5372 85.8244 63.947 88.4839 63.9359C91.3375 63.9359 93.2209 64.9993 94.6134 68.5439C95.6521 71.2024 95.8233 73.5839 94.4993 75.4892C93.2209 77.3279 92.9355 79.4879 93.4149 81.4486C93.7231 82.6559 93.5747 83.3427 93.8487 84.5612C94.134 85.7796 94.933 87.0867 96.1315 88.3384C96.9534 89.1913 97.2387 89.8892 97.4898 90.9304C97.7524 91.9716 98.1062 92.9243 98.8824 93.755C99.1107 93.9876 99.4531 93.7883 99.202 93.4559C98.9509 93.1347 98.3916 92.1489 98.266 90.731C98.129 89.3132 97.4556 88.3384 96.9876 87.8178C96.5196 87.2972 96.1087 86.7655 95.7548 85.8018C95.5037 85.1261 96.0859 84.8935 96.6566 85.2923C98.7112 86.7101 101.074 89.1359 101.884 92.2153C102.01 92.6695 102.352 92.6141 102.318 92.2042C102.101 89.5569 100.069 86.3224 97.604 84.3396C96.5767 83.5089 95.2184 82.4676 94.8303 80.6621C94.4422 78.8676 95.0586 77.4941 96.0516 75.8215C97.0561 74.1489 97.1132 71.3686 95.9261 67.9015C94.9787 65.1323 93.5975 63.7587 92.1936 63.0719C92.1479 63.0166 92.0452 62.9723 91.9196 62.9279C90.6869 62.4073 89.4655 62.363 88.5067 62.2966C86.3723 62.1858 84.603 62.0086 83.2447 60.3138C82.6854 59.6159 81.4869 57.7883 79.4666 55.9716"
                fill="white" />
            <path
                d="M68.2806 52.427L67.3446 52.6264C65.7695 52.859 64.3198 53.3353 63.0528 54.0332H63.03L63.0072 54.0553C62.2424 54.4873 61.569 54.9858 60.9868 55.5397C60.4732 56.0381 59.8797 56.2597 59.3203 56.459C56.4211 57.467 52.5859 59.5606 50.8395 63.8584C50.7482 64.08 50.8395 64.2793 50.9879 64.3458C51.1477 64.4233 51.3417 64.368 51.433 64.2018C53.2251 61.344 56.3298 59.051 59.7313 58.0652C60.0052 57.9877 60.2335 58.0098 60.4047 58.1206C60.6102 58.2424 60.7357 58.5083 60.77 58.8184C60.9069 60.1033 60.9868 61.1335 60.77 61.8313C60.6216 62.3409 60.4047 62.8504 60.1993 63.3378L59.9367 63.9581C59.6742 64.5895 59.4459 65.6418 59.56 66.6941L59.6057 67.0929C59.8226 68.8984 60.0851 71.147 58.8295 73.2849C58.6583 73.5729 58.7382 73.7834 58.8638 73.872C58.9893 73.9717 59.229 73.9938 59.4916 73.7501C61.2608 72.1107 61.3179 69.563 61.1238 67.0486C61.0553 66.1957 61.2265 65.3427 61.5576 64.7557C62.5392 62.9723 63.0186 61.7981 62.9273 60.3249L62.8816 59.3501L62.7903 57.8547C62.7218 57.2566 62.8816 56.7803 63.304 56.3704C63.8518 55.8387 65.0389 55.163 65.9863 54.9969C66.5685 54.8972 66.8766 55.1741 67.1962 55.6615C68.7144 58.043 70.3694 59.3058 72.9833 60.2806C73.8965 60.624 74.2161 60.9673 74.0791 61.9643V62.075C73.9421 62.9944 73.8622 63.8695 72.9377 64.6892C71.157 66.24 70.027 67.8683 69.5019 69.6184C69.3307 70.1501 68.9198 70.7593 68.0637 70.9698C66.0891 71.4572 64.6623 72.576 63.966 73.8941C63.4409 74.88 63.3953 75.9766 63.829 77.0843L64.1486 77.8707C64.8106 79.5544 65.1417 80.3852 65.5183 81.9138C65.9293 83.6418 66.7054 86.3446 67.3789 88.1944C68.3719 90.9194 69.5933 93.3563 70.632 94.7077C70.8488 94.9957 71.0885 94.9957 71.2255 94.907C71.3853 94.8074 71.4766 94.5637 71.3054 94.2424C70.0042 91.883 68.6345 88.1612 68.0751 85.9347C68.0523 85.835 68.0751 85.7243 68.1322 85.6578C68.1779 85.6024 68.2464 85.5913 68.3263 85.5913C69.422 85.7021 72.1501 86.3889 74.1019 87.264C74.3759 87.3858 74.6156 87.2861 74.7069 87.1089C74.7982 86.9427 74.7525 86.699 74.4672 86.544C72.4354 85.4141 69.5134 84.3618 68.0637 84.0738C67.7441 84.0074 67.5843 83.5643 67.5044 83.1987L67.2876 82.2572C66.9109 80.5735 66.5 78.6683 65.701 76.7077C65.2216 75.5667 65.4841 74.6917 66.5342 73.8941C67.0935 73.4621 68.4062 73.0301 68.9198 73.0523C69.0454 73.0523 69.1367 73.0855 69.228 73.1298C69.2737 73.1741 69.3992 73.2849 69.4449 73.3181C69.5134 73.4067 69.559 73.5175 69.5933 73.6504C69.9585 75.035 70.7918 76.5969 71.7277 77.5938C72.6066 78.5464 73.1203 79.3772 73.3714 80.3187C73.5198 80.8394 73.8052 80.8283 73.8851 80.8172C73.965 80.8061 74.2389 80.7175 74.2047 80.1858C74.1362 79.2 73.5997 77.8929 72.8235 76.8738C72.0017 75.7994 71.3168 74.4147 71.1228 73.4178C70.9516 72.443 71.0885 71.6233 71.3625 70.6264C71.8875 68.7766 73.3029 67.0707 74.4786 66.2067C75.894 65.1655 76.6473 63.4264 76.5103 61.5766C76.4989 61.4104 76.5903 61.2997 76.693 61.2664C76.8185 61.2332 76.8185 61.3218 76.9098 61.499C77.9371 63.5593 78.9873 65.2652 80.4939 66.1957C82.3317 67.3255 83.5416 68.6547 83.553 70.139C83.553 71.3907 83.085 72.5981 81.7381 73.451C77.1496 76.3421 77.9942 80.1969 79.5123 82.9107C80.2999 84.3175 80.8364 85.0264 81.3614 85.7132L81.4185 85.7907C81.9093 86.4221 81.9778 87.1643 81.6126 87.8843C80.4141 90.2104 80.4597 92.6363 81.7495 94.3643C82.5257 95.4277 83.1763 96.491 83.4845 97.211C83.6786 97.6541 83.9525 97.7317 84.1237 97.6763C84.2949 97.6209 84.4433 97.4104 84.3178 97.0117C84.0096 95.9704 83.3818 94.8738 82.9138 94.0541L82.754 93.7883C82.092 92.592 82.2746 90.4209 82.6969 89.4461L83.2905 88.1834L83.5416 87.6517C83.6215 87.4523 83.7699 87.2972 83.9068 87.2861C83.9982 87.264 84.0895 87.3083 84.1808 87.408C84.9684 88.2387 85.6076 89.6012 86.0299 90.4874L86.1212 90.6535C86.5778 91.6172 87.3083 92.0381 88.016 92.3593C89.2716 92.9243 90.8696 93.888 91.3262 95.2394C91.4517 95.5827 91.68 95.6603 91.8398 95.616C92.0453 95.5606 92.1708 95.328 92.1138 95.0732C91.7371 93.4006 90.5386 92.592 89.0319 91.5618L88.8607 91.451C87.9133 90.8197 87.5594 90.5206 87.2284 89.712L86.8517 88.7704C86.3153 87.3415 85.8359 86.1009 84.5917 85.403L83.8384 85.0264C83.3019 84.7717 82.9252 84.5834 82.56 84.1514C80.9962 82.2461 80.1858 80.3409 80.2999 78.768C80.4026 77.3612 81.4299 75.9544 83.1078 74.9132C84.9912 73.739 86.0642 71.9335 85.9728 70.0837C85.9728 69.9286 86.0071 69.8178 86.1098 69.7403C86.2468 69.6295 86.4751 69.5852 86.7148 69.6406C89.1803 70.1944 90.6641 71.712 91.1093 74.1489C91.1778 74.5255 91.4175 74.6584 91.6344 74.6252C91.8512 74.592 92.0681 74.3704 92.0339 74.0049C91.8855 72.72 91.5545 69.707 88.2329 68.3778C87.8676 68.1563 87.5937 68.0455 87.3882 68.0455C87.3882 68.0455 87.2512 68.0455 87.217 68.0455C87.1599 68.0344 86.5664 67.9015 86.5664 67.9015L86.3267 67.8683C85.8587 67.8018 85.4592 67.7353 85.1967 67.2701C84.3292 65.7083 83.0165 64.8221 81.9778 64.224C80.8592 63.5704 79.9917 62.2523 79.227 60.923C78.4508 59.5717 77.6632 58.4418 75.951 58.3089C73.1659 58.1095 70.9972 57.035 69.5362 55.1187C69.4905 55.0523 69.4563 54.9747 69.4563 54.8972C69.4563 54.8529 69.4563 54.8086 69.4905 54.7643C69.559 54.6424 69.696 54.587 69.89 54.5981C73.828 54.8086 76.0766 55.5618 78.1768 57.3673C79.6949 58.6744 80.688 60.048 81.6468 61.3661C83.4274 63.8252 85.9957 64.1575 88.5068 64.1464C91.018 64.1464 92.9812 64.8997 94.4537 68.6326C95.5723 71.4904 95.5381 73.7058 94.351 75.4006C93.1068 77.195 92.7073 79.3661 93.2438 81.515C93.3922 82.1243 93.4264 82.5895 93.4721 83.088C93.5063 83.5532 93.5406 84.0295 93.6889 84.6277C93.9857 85.8683 94.7847 87.2086 96.0175 88.4935C96.8279 89.3353 97.0904 90 97.3301 90.9969C97.5584 91.9274 97.9008 92.9907 98.7683 93.9101C98.9509 94.0984 99.2135 94.1206 99.3847 93.9877C99.5217 93.8658 99.5902 93.6332 99.3961 93.3784C99.3619 93.3341 98.6542 92.3926 98.4944 90.7421C98.3574 89.3132 97.7068 88.3163 97.1703 87.7292C96.748 87.2529 96.3371 86.7434 95.9718 85.7797C95.9033 85.5914 95.9147 85.4363 95.9946 85.3698C96.0859 85.3033 96.3256 85.3144 96.5653 85.4806C97.7981 86.3335 100.766 88.715 101.713 92.2929C101.816 92.6806 102.044 92.7803 102.215 92.7581C102.387 92.7249 102.558 92.5587 102.535 92.2264C102.318 89.6012 100.355 86.3114 97.741 84.2289L97.6269 84.1403C96.6338 83.3317 95.3897 82.3347 95.0358 80.6621C94.9559 80.2966 94.9217 79.9643 94.9217 79.6209C94.9217 78.4135 95.4125 77.339 96.2343 75.9433C96.7594 75.0572 97.0219 73.9384 97.0219 72.6313C97.0219 71.2246 96.7252 69.6184 96.1202 67.8683C95.2755 65.4092 94.0314 63.8141 92.3306 62.9612C92.3192 62.9612 92.1594 62.5513 92.1594 62.5513C90.9837 62.0418 89.6254 61.776 88.678 61.7317H88.5297C86.3381 61.5987 84.683 61.8203 83.4046 60.2363L83.0051 59.7046C82.3431 58.8184 81.2473 57.3341 79.615 55.872C79.0215 55.3181 78.3024 54.8086 77.5034 54.3655C77.4349 54.2769 77.3094 54.2104 76.7729 53.9889C75.8826 53.5569 74.8895 53.1913 73.828 52.9255C73.497 52.8258 73.0404 52.6929 72.8121 52.6597L71.8191 52.5489L70.5863 52.4492C69.4791 52.3717 68.7258 52.3606 68.2806 52.416V52.427ZM63.2583 54.3544C64.4796 53.6898 65.8836 53.2246 67.4359 53.003C67.4588 53.003 68.3377 52.8037 68.3377 52.8037C68.76 52.7483 69.5019 52.7704 70.5749 52.848L71.7962 52.9477L72.7893 53.0584C72.9377 53.0695 73.2801 53.1692 73.7367 53.3132C74.7754 53.579 75.7456 53.9224 76.6245 54.3434C76.7615 54.3987 77.1496 54.5649 77.218 54.6203L77.2751 54.6646L77.2409 54.6424L77.2979 54.6978C78.0741 55.1409 78.759 55.6283 79.3525 56.171C80.9505 57.6221 82.0463 59.0732 82.6969 59.9483L83.1078 60.491C84.489 62.208 86.224 62.4295 88.5182 62.5513H88.6666C89.5798 62.6178 90.7212 62.6732 91.8626 63.1606C91.8855 63.1606 92.0681 63.2492 92.0681 63.2492L92.1252 63.2935C93.746 64.091 94.9445 65.6307 95.7663 68.0123C96.3485 69.696 96.6338 71.28 96.6338 72.6535C96.6338 73.8941 96.3941 74.9686 95.9033 75.7772C95.0472 77.2283 94.5336 78.3581 94.5336 79.6209C94.5336 79.9864 94.5793 80.363 94.6592 80.7507C95.0472 82.5452 96.3371 83.5975 97.3872 84.4504L97.5013 84.539C100.035 86.5661 101.942 89.7452 102.147 92.2707V92.304C102.147 92.304 102.147 92.315 102.147 92.3372C102.124 92.304 102.113 92.2707 102.101 92.2153C101.12 88.5157 98.072 86.0677 96.805 85.1926C96.4398 84.9378 96.0289 84.8935 95.7663 85.0929C95.6864 85.1483 95.5381 85.2923 95.5381 85.5692C95.5381 85.6689 95.5609 85.7907 95.6065 85.9347C95.9946 86.9538 96.4512 87.5187 96.8849 88.0061C97.3758 88.5489 97.9921 89.4794 98.1063 90.8086C98.2318 92.2154 98.7797 93.2455 99.0765 93.6332C99.1108 93.6775 99.1108 93.6997 99.1108 93.7218C99.0993 93.7218 99.0765 93.7218 99.0537 93.6886C98.2547 92.8357 97.9351 91.8166 97.7182 90.9415C97.4671 89.9003 97.1703 89.1692 96.3028 88.2609C95.1271 87.0313 94.351 85.7575 94.077 84.5834C93.94 84.0074 93.9058 83.5421 93.8716 83.099C93.8373 82.6117 93.7917 82.1132 93.6319 81.4707C93.4835 80.8837 93.415 80.2855 93.415 79.6984C93.415 78.2584 93.8487 76.8738 94.682 75.6554C95.3326 74.7138 95.6636 73.6393 95.6636 72.3987C95.6636 71.2578 95.3783 69.9729 94.8304 68.5329C93.4949 65.1655 91.6686 63.792 88.5068 63.803C86.0984 63.803 83.6443 63.504 81.9778 61.1778C81.0076 59.8375 80.0031 58.4529 78.4394 57.1126C76.2935 55.2627 73.8965 54.4652 69.9129 54.2437C69.559 54.2215 69.2851 54.3544 69.1367 54.5981C69.0796 54.6978 69.0568 54.8086 69.0568 54.9194C69.0568 55.0744 69.1139 55.2295 69.2166 55.3624C70.7347 57.3452 73.0518 58.4972 75.9168 58.7077C77.4349 58.8295 78.154 59.8818 78.8845 61.1335C79.6835 62.507 80.5853 63.8806 81.7724 64.5784C82.8339 65.1877 84.021 66.0073 84.8428 67.4806C85.2081 68.112 85.7674 68.2006 86.2696 68.267L86.4865 68.3003L87.1828 68.4553H87.4225C87.4225 68.4553 87.6393 68.4553 88.0617 68.7212C90.8354 69.8289 91.4403 72.0332 91.6572 74.0492C91.6572 74.0713 91.6572 74.0824 91.6572 74.0935C91.6572 74.2043 91.6115 74.2486 91.5887 74.2486C91.5887 74.2486 91.5316 74.2043 91.5088 74.0824C90.9152 70.8258 88.6324 69.6627 86.8175 69.264C86.4637 69.1753 86.1098 69.2418 85.8701 69.4412C85.6875 69.5852 85.5962 69.7957 85.5962 70.0393V70.0947C85.5962 70.1612 85.5962 70.2387 85.5962 70.3052C85.5962 71.9446 84.6031 73.5397 82.9024 74.592C81.1103 75.7107 80.026 77.2172 79.9118 78.7458C79.9118 78.8455 79.9118 78.9563 79.9118 79.056C79.9118 80.6621 80.7451 82.5341 82.2746 84.384C82.6855 84.8935 83.1535 85.115 83.69 85.3698L84.4205 85.7354C85.5505 86.3557 85.9957 87.5409 86.5093 88.8923L86.8746 89.8449C87.2398 90.7421 87.6736 91.1077 88.6438 91.7612L88.815 91.872C90.3103 92.891 91.3947 93.6221 91.7371 95.1507C91.7371 95.1507 91.7371 95.1618 91.7371 95.1729C91.7371 95.1507 91.7143 95.1507 91.7028 95.1175C91.212 93.6332 89.5227 92.603 88.1872 92.0049C87.5823 91.739 86.9088 91.3735 86.4865 90.4874L86.4066 90.3212C85.9614 89.4018 85.3108 88.0172 84.489 87.131C84.3063 86.9427 84.0781 86.8541 83.8612 86.8984C83.5872 86.9427 83.3361 87.1643 83.1992 87.4855L82.948 88.0061L82.3545 89.291C82.1148 89.8449 81.9436 90.7421 81.9436 91.6615C81.9436 92.4923 82.0805 93.3341 82.423 93.9544L82.5828 94.2313C83.0394 95.0289 83.6557 96.1144 83.9525 97.1113C83.9753 97.1667 83.9753 97.2221 83.9753 97.2554C83.9411 97.2221 83.9068 97.1557 83.8612 97.056C83.5416 96.3138 82.8796 95.2283 82.0806 94.1317C81.4642 93.3009 81.156 92.2929 81.156 91.2184C81.156 90.1993 81.4299 89.1138 81.9778 88.0504C82.1604 87.696 82.2518 87.3304 82.2518 86.9649C82.2518 86.4775 82.0806 85.9901 81.7495 85.5581L81.6925 85.4806C81.1788 84.8049 80.6538 84.107 79.8776 82.7224C78.4394 80.1415 77.629 76.4972 81.9664 73.7723C83.4274 72.8529 84.2264 71.579 84.215 70.1944C84.215 68.5772 83.1307 67.0264 81.1788 65.819C79.7292 64.9329 78.3937 63.3378 77.4007 61.355C77.1838 60.923 76.8414 60.8344 76.6017 60.9009C76.3277 60.9784 76.1337 61.2332 76.1337 61.5433C76.1337 61.5655 76.1337 61.5877 76.1337 61.5987C76.1337 61.7317 76.1451 61.8757 76.1451 62.0086C76.1451 63.5704 75.4602 64.9993 74.2503 65.8855C73.029 66.7938 71.5451 68.5772 70.9972 70.5157C70.7918 71.2357 70.6662 71.8781 70.6662 72.5427C70.6662 72.8418 70.689 73.152 70.7575 73.4732C70.9516 74.5255 71.6707 75.9766 72.5153 77.0843C73.2573 78.048 73.7709 79.2664 73.828 80.1858C73.828 80.208 73.828 80.2412 73.828 80.2523C73.828 80.2855 73.828 80.3077 73.828 80.3298C73.8051 80.2966 73.7937 80.2523 73.7709 80.1969C73.497 79.211 72.9605 78.3138 72.0359 77.328C71.157 76.3753 70.3352 74.8578 69.9928 73.5397C69.9357 73.3513 69.8786 73.1963 69.7759 73.0744V73.0523L69.7302 73.0301L69.4791 72.7975L69.4563 72.7753C69.3079 72.6867 69.1367 72.6535 68.9541 72.6535C68.3719 72.6313 66.9565 73.0855 66.3173 73.5729C65.5069 74.2043 65.096 74.88 65.096 75.6664C65.096 76.032 65.1873 76.4197 65.3585 76.8406C66.1461 78.768 66.557 80.651 66.9337 82.3237L67.1506 83.2652C67.3104 83.963 67.6072 84.3507 68.0181 84.4394C69.4106 84.7163 72.3441 85.7686 74.3074 86.8541C74.353 86.8874 74.3645 86.9095 74.3759 86.9206C74.3645 86.9206 74.3302 86.9206 74.3074 86.8984C72.23 85.968 69.5019 85.3034 68.3947 85.1926C68.1893 85.1704 67.9952 85.248 67.8697 85.392C67.7555 85.5138 67.6985 85.6689 67.6985 85.835C67.6985 85.8904 67.6985 85.9569 67.7213 86.0123C68.292 88.2609 69.6732 92.016 70.9858 94.4086C71.0086 94.4529 71.0086 94.475 71.02 94.5083C71.0086 94.4972 70.9972 94.4861 70.9858 94.475C69.9585 93.1458 68.7714 90.7532 67.7784 88.0504C67.1049 86.2227 66.3402 83.531 65.9293 81.8252C65.5526 80.2744 65.2216 79.4215 64.5481 77.7378L64.2285 76.9403C64.0459 76.4861 63.9546 76.032 63.9546 75.5889C63.9546 75.0572 64.0801 74.5366 64.3427 74.0603C64.9933 72.8418 66.4315 71.8781 68.3034 71.4129C69.3193 71.1692 69.9129 70.3384 70.0955 69.707C70.6091 68.0344 71.7049 66.4837 73.4171 64.9772C74.4444 64.0689 74.5927 63.0055 74.7183 62.064L74.7411 61.9532C74.764 61.787 74.7754 61.632 74.7754 61.4769C74.7754 60.5907 74.353 60.048 73.4285 59.7046C70.826 58.7409 69.034 57.7329 67.5615 55.44C67.2419 54.9415 66.7967 54.443 65.9521 54.5981C64.9134 54.7753 63.6692 55.4843 63.0643 56.0713C62.6305 56.4923 62.4136 56.9797 62.4136 57.5667C62.4136 57.6664 62.4136 57.7661 62.4365 57.8658L62.5278 59.339L62.5734 60.3249C62.5734 60.4357 62.5734 60.5464 62.5734 60.6461C62.5734 61.8867 62.1169 62.9723 61.238 64.5563C60.9184 65.1101 60.7471 65.8855 60.7471 66.672C60.7471 66.8049 60.7471 66.9267 60.77 67.0597C60.8156 67.6246 60.8385 68.2006 60.8385 68.7655C60.8385 70.5821 60.5074 72.288 59.2519 73.451C59.2176 73.4843 59.2176 73.4843 59.1948 73.4953C59.1948 73.4732 59.1948 73.4732 59.2062 73.451C60.0052 72.1107 60.2221 70.7372 60.2221 69.4412C60.2221 68.5883 60.1194 67.7686 60.0394 67.0264L59.9938 66.6387C59.9824 66.4726 59.971 66.3064 59.971 66.1292C59.971 65.4313 60.1079 64.6781 60.3476 64.091L60.5988 63.4707C60.8156 62.9723 61.0325 62.4627 61.1809 61.931C61.2836 61.5877 61.3293 61.1889 61.3293 60.7237C61.3293 60.1587 61.2722 59.5052 61.1923 58.7741C61.1466 58.3421 60.9526 57.9877 60.6558 57.7883C60.4618 57.6664 60.1308 57.5446 59.6399 57.6886C56.3412 58.6523 53.3278 60.8233 51.4445 63.5261C53.2251 59.6824 56.7521 57.744 59.4687 56.8135C60.0394 56.6141 60.7015 56.3593 61.2722 55.8055C61.8201 55.2738 62.4707 54.7975 63.2012 54.3766L63.1556 54.3987L63.2697 54.3434L63.2583 54.3544ZM92.3306 62.9723L92.2736 62.939C92.285 62.939 92.3078 62.9612 92.3192 62.9723H92.3306Z"
                fill="#002856" />
            <path
                d="M64.2171 89.0584C63.4295 88.8147 63.0414 88.3605 62.2424 87.3525C62.1282 87.3304 61.9456 87.1531 61.6488 86.987C61.1124 86.6768 60.2791 85.5802 59.9823 85.3365C59.697 85.0928 57.9848 83.9962 57.7223 83.8965C55.9759 83.2984 55.4623 81.6257 55.0399 81.0054L55.0057 80.9501C54.5719 80.2854 54.0811 79.5654 53.5789 78.8122C53.6474 78.9341 52.8826 77.771 52.6886 77.5162C52.6886 77.5162 52.6886 77.5162 52.6886 77.4941C52.5288 77.2614 51.8097 76.8405 51.8667 77.1285C51.9238 77.4165 52.2434 78.2362 52.4375 78.4467C52.6315 78.6571 53.3049 79.7981 53.3734 80.1414C53.4305 80.4737 54.2638 81.5593 54.4806 81.9027C55.0856 82.8885 55.5992 83.7525 55.9188 84.395C56.4211 85.4141 56.6037 85.8239 56.8434 86.843C57.1402 88.1279 57.7451 89.9556 58.3387 90.9414C58.4528 91.1187 58.5441 91.1741 58.5784 91.163C58.6126 91.1408 58.6583 91.019 58.5784 90.8085C58.0077 89.2134 57.494 86.7654 57.3685 86.0233C57.3 85.6799 57.3456 85.4694 57.494 85.3697C57.6652 85.2479 57.9506 85.3144 58.3615 85.5359C59.3431 86.1008 60.4503 87.0534 61.3863 88.1611C61.8885 88.7704 62.7674 89.5236 64.023 89.7341C64.2171 89.7673 64.3312 89.7008 64.3654 89.6233V89.579C64.3426 89.5014 64.3883 89.1027 64.2171 89.0473V89.0584Z"
                fill="white" />
        </g>
        <path
            d="M74.8779 112.985C51.5926 112.985 32.6562 94.6079 32.6562 72.011C32.6562 49.4141 51.5926 31.0375 74.8779 31.0375C98.1632 31.0375 117.088 49.4141 117.088 72.011C117.088 94.6079 98.1517 112.985 74.8779 112.985ZM74.8779 32.3556C52.346 32.3556 34.0031 50.1452 34.0031 72.0221C34.0031 93.899 52.3346 111.677 74.8779 111.677C97.4212 111.677 115.741 93.8879 115.741 72.0221C115.741 50.1562 97.4098 32.3556 74.8779 32.3556Z"
            fill="#002856" />
        <path
            d="M147.918 31.0375H151.468L161.068 52.3495H157.016L154.801 47.243H144.483L142.245 52.3495H138.319L147.918 31.0375ZM153.397 43.9421L149.63 35.4793L145.887 43.9421H153.397Z"
            fill="#002856" />
        <path
            d="M165.12 31.1815H169.206L175.838 41.1951L182.469 31.1815H186.556V52.3495H182.721V37.1741L175.838 47.1544H175.712L168.886 37.2406V52.3606H165.12V31.1926V31.1815Z"
            fill="#002856" />
        <path
            d="M192.48 31.1815H208.654V34.5046H196.315V40.0098H207.25V43.3329H196.315V49.0153H208.814V52.3384H192.491V31.1704L192.48 31.1815Z"
            fill="#002856" />
        <path
            d="M213.665 31.1815H223.39C226.129 31.1815 228.287 31.9679 229.679 33.2972C230.832 34.4492 231.483 36.0221 231.483 37.8609V37.9163C231.483 41.3944 229.337 43.4769 226.312 44.3298L232.202 52.3384H227.648L222.283 44.9612H217.489V52.3384H213.654V31.1704L213.665 31.1815ZM223.105 41.6824C225.844 41.6824 227.59 40.2867 227.59 38.1489V38.0935C227.59 35.8227 225.913 34.5821 223.07 34.5821H217.489V41.6824H223.093H223.105Z"
            fill="#002856" />
        <path d="M236.722 31.1815H240.557V52.3495H236.722V31.1815Z" fill="#002856" />
        <path
            d="M245.728 41.8264V41.771C245.728 35.7563 250.373 30.827 256.971 30.827C260.989 30.827 263.42 32.1895 265.509 34.1279L263.043 36.875C261.297 35.3021 259.425 34.2498 256.937 34.2498C252.793 34.2498 249.746 37.5729 249.746 41.7156V41.771C249.746 45.9138 252.77 49.2701 256.937 49.2701C259.619 49.2701 261.331 48.2399 263.203 46.5452L265.669 48.9599C263.397 51.2529 260.897 52.704 256.823 52.704C250.465 52.704 245.728 47.8966 245.728 41.8153V41.8264Z"
            fill="#002856" />
        <path
            d="M277.734 31.0375H281.284L290.883 52.3495H286.831L284.617 47.243H274.298L272.061 52.3495H268.134L277.734 31.0375ZM283.213 43.9421L279.446 35.4793L275.702 43.9421H283.213Z"
            fill="#002856" />
        <path
            d="M294.924 31.1815H298.473L310.162 45.8141V31.1815H313.928V52.3495H310.721L298.69 37.296V52.3495H294.924V31.1815Z"
            fill="#002856" />
        <path
            d="M139.221 72.0664V72.011C139.221 65.9962 143.866 61.067 150.464 61.067C154.482 61.067 156.913 62.4295 159.002 64.3679L156.536 67.115C154.79 65.5421 152.918 64.4898 150.43 64.4898C146.286 64.4898 143.239 67.8129 143.239 71.9556V72.011C143.239 76.1538 146.263 79.5101 150.43 79.5101C153.112 79.5101 154.824 78.4799 156.696 76.7852L159.162 79.1999C156.89 81.4929 154.39 82.9439 150.315 82.9439C143.958 82.9439 139.221 78.1366 139.221 72.0553V72.0664Z"
            fill="#002856" />
        <path
            d="M161.912 72.0664V72.011C161.912 66.0516 166.649 61.067 173.35 61.067C180.05 61.067 184.718 65.9962 184.718 71.9556V72.011C184.718 77.9704 179.981 82.955 173.281 82.955C166.581 82.955 161.912 78.0258 161.912 72.0664ZM180.7 72.0664V72.011C180.7 67.9015 177.618 64.4787 173.281 64.4787C168.944 64.4787 165.93 67.835 165.93 71.9446V71.9999C165.93 76.1095 169.012 79.499 173.35 79.499C177.687 79.499 180.7 76.1759 180.7 72.0553V72.0664Z"
            fill="#002856" />
        <path d="M189.672 61.4215H193.507V79.2H204.979V82.5895H189.683V61.4215H189.672Z"
            fill="#002856" />
        <path d="M209.271 61.4215H213.106V79.2H224.577V82.5895H209.282V61.4215H209.271Z"
            fill="#002856" />
        <path
            d="M228.869 61.4215H245.043V64.7446H232.704V70.2498H243.639V73.5729H232.704V79.2553H245.203V82.5784H228.88V61.4104L228.869 61.4215Z"
            fill="#002856" />
        <path
            d="M249.095 72.0664V72.011C249.095 66.0849 253.764 61.067 260.338 61.067C264.139 61.067 266.479 62.0972 268.716 63.9359L266.285 66.7495C264.607 65.3538 262.952 64.4787 260.178 64.4787C256.161 64.4787 253.102 67.8904 253.102 71.9446V71.9999C253.102 76.3532 256.058 79.5544 260.521 79.5544C262.575 79.5544 264.447 78.923 265.783 77.9483V73.9827H260.201V70.7482H269.481V79.6319C267.335 81.4153 264.242 82.9329 260.384 82.9329C253.558 82.9329 249.072 78.2141 249.072 72.0442L249.095 72.0664Z"
            fill="#002856" />
        <path
            d="M274.8 61.4215H290.974V64.7446H278.635V70.2498H289.57V73.5729H278.635V79.2553H291.134V82.5784H274.811V61.4104L274.8 61.4215Z"
            fill="#002856" />
        <path
            d="M304.306 74.7027V74.6473C304.306 70.0836 308.05 66.3064 313.095 66.3064C318.14 66.3064 321.85 70.0282 321.85 74.5919V74.6473C321.85 79.1778 318.106 82.9661 313.038 82.9661C307.97 82.9661 304.318 79.2442 304.318 74.7138L304.306 74.7027ZM318.083 74.7027V74.6473C318.083 71.8338 315.994 69.5076 313.038 69.5076C310.082 69.5076 308.084 71.8005 308.084 74.5919V74.6473C308.084 77.4276 310.173 79.7538 313.095 79.7538C316.017 79.7538 318.083 77.4609 318.083 74.7027Z"
            fill="#002856" />
        <path
            d="M326.838 69.7735H324.749V66.7162H326.838V65.5421C326.838 63.7919 327.306 62.4627 328.174 61.6098C329.041 60.7679 330.262 60.3359 331.883 60.3359C333.196 60.3359 334.098 60.5132 334.942 60.7569V63.8362C334.189 63.5926 333.538 63.4486 332.728 63.4486C331.29 63.4486 330.548 64.2018 330.548 65.8633V66.7384H334.908V69.7624H330.605V82.5784H326.838V69.7624V69.7735Z"
            fill="#002856" />
        <path
            d="M139.221 102.306V102.251C139.221 96.2362 143.866 91.307 150.464 91.307C154.482 91.307 156.913 92.6695 159.002 94.6079L156.536 97.355C154.79 95.7821 152.918 94.7298 150.43 94.7298C146.286 94.7298 143.239 98.0529 143.239 102.196V102.251C143.239 106.394 146.263 109.75 150.43 109.75C153.112 109.75 154.824 108.72 156.696 107.025L159.162 109.44C156.89 111.733 154.39 113.184 150.315 113.184C143.958 113.184 139.221 108.377 139.221 102.295V102.306Z"
            fill="#002856" />
        <path
            d="M171.226 91.5175H174.776L184.376 112.829H180.324L178.109 107.723H167.791L165.553 112.829H161.627L171.226 91.5175ZM176.705 104.422L172.939 95.9593L169.195 104.422H176.705Z"
            fill="#002856" />
        <path
            d="M188.428 91.6615H198.153C200.892 91.6615 203.05 92.4479 204.442 93.7772C205.595 94.9292 206.246 96.5021 206.246 98.3409V98.3962C206.246 101.874 204.1 103.957 201.075 104.81L206.965 112.818H202.41L197.046 105.441H192.252V112.818H188.417V91.6504L188.428 91.6615ZM197.868 102.151C200.607 102.151 202.353 100.756 202.353 98.6178V98.5624C202.353 96.2916 200.676 95.051 197.833 95.051H192.252V102.151H197.856H197.868Z"
            fill="#002856" />
        <path
            d="M211.268 91.6615H219.395C226.255 91.6615 230.98 96.2252 230.98 102.185V102.24C230.98 108.199 226.243 112.818 219.395 112.818H211.268V91.6504V91.6615ZM215.092 95.051V109.44H219.395C223.972 109.44 226.963 106.449 226.963 102.306V102.251C226.963 98.1082 223.972 95.051 219.395 95.051H215.092Z"
            fill="#002856" />
        <path d="M236.163 91.6615H239.998V112.83H236.163V91.6615Z" fill="#002856" />
        <path
            d="M245.168 102.306V102.251C245.168 96.2916 249.905 91.307 256.606 91.307C263.306 91.307 267.974 96.2362 267.974 102.196V102.251C267.974 108.21 263.237 113.195 256.537 113.195C249.837 113.195 245.168 108.266 245.168 102.306ZM263.956 102.306V102.251C263.956 98.1415 260.875 94.7187 256.537 94.7187C252.2 94.7187 249.186 98.075 249.186 102.185V102.24C249.186 106.349 252.268 109.739 256.606 109.739C260.943 109.739 263.956 106.416 263.956 102.295V102.306Z"
            fill="#002856" />
        <path d="M272.928 91.6615H276.763V109.44H288.235V112.83H272.94V91.6615H272.928Z"
            fill="#002856" />
        <path
            d="M290.312 102.306V102.251C290.312 96.2916 295.049 91.307 301.749 91.307C308.45 91.307 313.118 96.2362 313.118 102.196V102.251C313.118 108.21 308.381 113.195 301.681 113.195C294.981 113.195 290.312 108.266 290.312 102.306ZM309.1 102.306V102.251C309.1 98.1415 306.018 94.7187 301.681 94.7187C297.343 94.7187 294.33 98.075 294.33 102.185V102.24C294.33 106.349 297.412 109.739 301.749 109.739C306.087 109.739 309.1 106.416 309.1 102.295V102.306Z"
            fill="#002856" />
        <path
            d="M317.113 102.306V102.251C317.113 96.3249 321.782 91.307 328.356 91.307C332.157 91.307 334.497 92.3372 336.734 94.1759L334.303 96.9895C332.625 95.5938 330.97 94.7187 328.197 94.7187C324.179 94.7187 321.12 98.1304 321.12 102.185V102.24C321.12 106.593 324.076 109.794 328.539 109.794C330.593 109.794 332.465 109.163 333.801 108.188V104.223H328.219V100.988H337.499V109.872C335.353 111.655 332.26 113.173 328.402 113.173C321.576 113.173 317.09 108.454 317.09 102.284L317.113 102.306Z"
            fill="#002856" />
        <path
            d="M348.309 104.489L339.645 91.6726H344.188L350.26 101.01L356.424 91.6726H360.819L352.155 104.4V112.841H348.297V104.5L348.309 104.489Z"
            fill="#002856" />
        <path
            d="M356.675 108.908V108.886C356.675 106.604 358.581 104.688 360.978 104.688C363.375 104.688 365.282 106.582 365.282 108.864V108.886C365.282 111.168 363.375 113.084 360.978 113.084C358.581 113.084 356.675 111.19 356.675 108.908ZM364.791 108.875V108.853C364.791 106.815 363.159 105.131 360.978 105.131C358.798 105.131 357.166 106.837 357.166 108.875V108.897C357.166 110.935 358.798 112.619 360.978 112.619C363.159 112.619 364.791 110.913 364.791 108.875ZM359.198 106.626H361.298C362.337 106.626 363.102 107.081 363.102 108.066C363.102 108.764 362.702 109.218 362.108 109.407L363.25 110.969H361.937L360.967 109.595H360.271V110.969H359.186V106.626H359.198ZM361.23 108.731C361.72 108.731 361.994 108.487 361.994 108.133C361.994 107.745 361.698 107.535 361.23 107.535H360.294V108.731H361.23Z"
            fill="#002856" />
        <path
            d="M487.54 91.54C478.27 91.54 471.385 84.385 471.385 75.34V75.25C471.385 66.295 478.135 58.96 487.81 58.96C493.75 58.96 497.305 60.94 500.23 63.82L495.82 68.905C493.39 66.7 490.915 65.35 487.765 65.35C482.455 65.35 478.63 69.76 478.63 75.16V75.25C478.63 80.65 482.365 85.15 487.765 85.15C491.365 85.15 493.57 83.71 496.045 81.46L500.455 85.915C497.215 89.38 493.615 91.54 487.54 91.54ZM512.123 91.45C507.578 91.45 503.843 88.84 503.843 84.07V83.98C503.843 78.715 507.848 76.285 513.563 76.285C515.993 76.285 517.748 76.69 519.458 77.275V76.87C519.458 74.035 517.703 72.46 514.283 72.46C511.673 72.46 509.828 72.955 507.623 73.765L505.913 68.545C508.568 67.375 511.178 66.61 515.273 66.61C519.008 66.61 521.708 67.6 523.418 69.31C525.218 71.11 526.028 73.765 526.028 77.005V91H519.413V88.39C517.748 90.235 515.453 91.45 512.123 91.45ZM514.193 86.725C517.388 86.725 519.548 84.97 519.548 82.495V81.28C518.378 80.74 516.848 80.38 515.183 80.38C512.258 80.38 510.458 81.55 510.458 83.71V83.8C510.458 85.645 511.988 86.725 514.193 86.725ZM531.914 91V66.88H538.754V71.74C540.149 68.41 542.399 66.25 546.449 66.43V73.585H546.089C541.544 73.585 538.754 76.33 538.754 82.09V91H531.914ZM560.183 91.45C554.558 91.45 549.203 87.04 549.203 78.985V78.895C549.203 70.84 554.468 66.43 560.183 66.43C563.828 66.43 566.078 68.095 567.698 70.03V58.15H574.538V91H567.698V87.535C566.033 89.785 563.738 91.45 560.183 91.45ZM561.938 85.645C565.133 85.645 567.788 82.99 567.788 78.985V78.895C567.788 74.89 565.133 72.235 561.938 72.235C558.743 72.235 556.043 74.845 556.043 78.895V78.985C556.043 82.99 558.743 85.645 561.938 85.645ZM580.784 64.225V58.15H587.984V64.225H580.784ZM580.964 91V66.88H587.804V91H580.964ZM606.063 91.54C598.593 91.54 593.058 86.005 593.058 79.075V78.985C593.058 72.055 598.638 66.43 606.153 66.43C613.623 66.43 619.158 71.965 619.158 78.895V78.985C619.158 85.915 613.578 91.54 606.063 91.54ZM606.153 85.645C610.068 85.645 612.408 82.63 612.408 79.075V78.985C612.408 75.43 609.843 72.325 606.063 72.325C602.148 72.325 599.808 75.34 599.808 78.895V78.985C599.808 82.54 602.373 85.645 606.153 85.645ZM636.036 91.45C631.266 91.45 626.451 89.785 622.671 86.41L626.766 81.505C629.601 83.845 632.571 85.33 636.171 85.33C639.006 85.33 640.716 84.205 640.716 82.36V82.27C640.716 80.515 639.636 79.615 634.371 78.265C628.026 76.645 623.931 74.89 623.931 68.635V68.545C623.931 62.83 628.521 59.05 634.956 59.05C639.546 59.05 643.461 60.49 646.656 63.055L643.056 68.275C640.266 66.34 637.521 65.17 634.866 65.17C632.211 65.17 630.816 66.385 630.816 67.915V68.005C630.816 70.075 632.166 70.75 637.611 72.145C644.001 73.81 647.601 76.105 647.601 81.595V81.685C647.601 87.94 642.831 91.45 636.036 91.45ZM652.895 91V66.88H659.735V70.3C661.31 68.275 663.38 66.43 666.845 66.43C669.995 66.43 672.38 67.825 673.64 70.255C675.755 67.78 678.275 66.43 681.56 66.43C686.645 66.43 689.705 69.49 689.705 75.295V91H682.865V77.545C682.865 74.305 681.425 72.64 678.86 72.64C676.295 72.64 674.72 74.305 674.72 77.545V91H667.88V77.545C667.88 74.305 666.44 72.64 663.875 72.64C661.31 72.64 659.735 74.305 659.735 77.545V91H652.895ZM702.494 91.45C697.949 91.45 694.214 88.84 694.214 84.07V83.98C694.214 78.715 698.219 76.285 703.934 76.285C706.364 76.285 708.119 76.69 709.829 77.275V76.87C709.829 74.035 708.074 72.46 704.654 72.46C702.044 72.46 700.199 72.955 697.994 73.765L696.284 68.545C698.939 67.375 701.549 66.61 705.644 66.61C709.379 66.61 712.079 67.6 713.789 69.31C715.589 71.11 716.399 73.765 716.399 77.005V91H709.784V88.39C708.119 90.235 705.824 91.45 702.494 91.45ZM704.564 86.725C707.759 86.725 709.919 84.97 709.919 82.495V81.28C708.749 80.74 707.219 80.38 705.554 80.38C702.629 80.38 700.829 81.55 700.829 83.71V83.8C700.829 85.645 702.359 86.725 704.564 86.725ZM722.285 91V66.88H729.125V71.74C730.52 68.41 732.77 66.25 736.82 66.43V73.585H736.46C731.915 73.585 729.125 76.33 729.125 82.09V91H722.285ZM749.238 91.405C745.053 91.405 742.218 89.74 742.218 84.16V72.73H739.338V66.88H742.218V60.715H749.058V66.88H754.728V72.73H749.058V83.035C749.058 84.61 749.733 85.375 751.263 85.375C752.523 85.375 753.648 85.06 754.638 84.52V90.01C753.198 90.865 751.533 91.405 749.238 91.405ZM770.705 91.54C765.035 91.54 761.12 89.29 758.42 86.095L763.19 81.55C765.35 83.98 767.6 85.33 770.795 85.33C773.405 85.33 775.25 83.845 775.25 81.505V81.415C775.25 78.85 772.955 77.41 769.085 77.41H766.205L765.125 73L772.64 65.44H760.265V59.5H781.55V64.72L773.585 72.325C777.86 73.045 782.045 75.295 782.045 81.145V81.235C782.045 87.175 777.725 91.54 770.705 91.54ZM799.914 91.54C795.819 91.54 793.029 90.37 790.824 88.165C788.529 85.87 787.089 82.495 787.089 76.24V76.15C787.089 66.43 791.499 58.96 800.904 58.96C805.179 58.96 807.969 60.22 810.759 62.425L807.114 67.78C805.044 66.205 803.379 65.26 800.679 65.26C796.764 65.26 794.784 68.41 794.334 72.55C795.909 71.515 797.754 70.525 800.859 70.525C807.114 70.525 811.929 73.99 811.929 80.56V80.65C811.929 87.085 806.754 91.54 799.914 91.54ZM799.644 85.6C803.064 85.6 805.044 83.665 805.044 80.965V80.875C805.044 78.22 802.974 76.285 799.554 76.285C796.134 76.285 794.154 78.175 794.154 80.83V80.92C794.154 83.575 796.224 85.6 799.644 85.6ZM830.834 91.54C822.419 91.54 816.884 84.475 816.884 75.34V75.25C816.884 66.115 822.554 58.96 830.924 58.96C839.249 58.96 844.874 66.025 844.874 75.16V75.25C844.874 84.385 839.249 91.54 830.834 91.54ZM830.924 85.285C835.109 85.285 837.764 81.055 837.764 75.34V75.25C837.764 69.535 834.974 65.215 830.834 65.215C826.694 65.215 823.994 69.4 823.994 75.16V75.25C823.994 81.01 826.739 85.285 830.924 85.285Z"
            fill="#002D5B" />
        <path
            d="M437.363 99.3157C436.736 99.2824 436.736 99.2713 435.606 97.1778C433.802 93.8437 429.02 84.971 426.143 82.2461C421.897 78.203 417.525 74.0492 415.825 67.0818C413.028 55.5729 418.37 43.8535 428.552 39.2344C429.887 38.6252 431.302 38.1489 432.752 37.8166C445.319 34.9366 458.16 43.3883 461.391 56.6473C462.989 63.216 461.197 68.555 459.462 73.728L459.153 74.6695C456.916 81.3932 457.521 89.9889 457.715 92.8135C457.795 93.899 457.807 94.3643 457.144 94.7187C447.602 99.792 447.283 99.8584 437.363 99.3046M438.105 97.2553C444.931 98.0086 444.714 98.4738 455.604 93.3341L455.546 92.9686C455.341 90.0443 454.713 81.1495 457.076 74.027L457.396 73.0855C459.039 68.2006 460.729 63.1495 459.279 57.1458C456.323 45.0166 444.657 37.2738 433.254 39.8769C431.953 40.176 430.675 40.608 429.476 41.1507C420.231 45.36 415.379 56.0603 417.948 66.6055C419.5 72.9747 423.632 76.907 427.638 80.7175C430.777 83.7083 435.503 92.459 437.523 96.203C437.729 96.6018 437.946 96.9784 438.094 97.2553"
            fill="#192F59" />
        <path
            d="M439.224 77.7378C438.653 77.2947 438.094 76.8184 437.546 76.3089C435.103 74.7138 427.444 68.6104 426.874 66.672C426.132 64.1132 426.463 61.5987 427.673 59.8264C428.768 58.2313 430.115 57.3452 431.485 56.9686C432.421 56.7138 433.346 56.6916 434.202 56.8024C435.491 56.9575 436.621 57.4006 437.443 57.7993C437.615 57.888 437.786 57.9766 437.934 58.0541C438.14 57.6886 438.425 57.2566 438.779 56.7913C439.213 56.2264 439.76 55.6393 440.434 55.1076C441.107 54.587 441.906 54.1218 442.842 53.8781C444.201 53.5015 445.833 53.568 447.614 54.3766C449.611 55.2738 451.255 57.2455 451.997 59.8043C452.567 61.7538 452.613 64.0246 451.962 66.4504C450.924 70.2498 447.979 74.1489 446.598 76.5858C442.74 83.4203 446.552 94.3532 446.552 94.3532L444.395 94.752C441.199 78.8344 442.717 79.0781 444.303 76.1538C444.303 76.1538 449.2 69.1643 450.125 65.7636C450.695 63.6812 450.627 61.8203 450.182 60.3027C449.6 58.2867 448.355 56.8689 446.974 56.2596C445.536 55.6172 444.395 55.595 443.402 55.8609C442.728 56.0381 442.123 56.3815 441.598 56.7913C440.811 57.4116 440.194 58.1981 439.783 58.8295C439.578 59.1396 439.429 59.4166 439.327 59.616L439.224 59.8375L439.201 59.8929C439.098 60.1476 438.882 60.336 438.619 60.4024H438.596C438.345 60.48 438.06 60.4246 437.831 60.2584C437.786 60.2252 437.021 59.7046 435.925 59.2947C435.366 59.0843 434.727 58.907 434.065 58.8295C433.403 58.752 432.718 58.7741 432.056 58.9513C431.074 59.2283 430.115 59.8264 429.225 61.1003C428.38 62.3298 428.095 64.1686 428.677 66.1735C429.122 67.691 437.124 73.3181 438.722 74.8024C439.19 75.2455 439.681 75.6553 440.183 76.0541L440.286 76.1317L439.213 77.7378H439.224Z"
            fill="#192F59" />
        <path
            d="M448.173 96.7126C448.173 96.7126 444.737 97.8868 444.646 97.4991C441.187 81.0055 442.055 79.632 443.87 75.888L443.904 75.8437C443.95 75.7772 448.766 68.8874 449.657 65.6086C450.148 63.7809 450.17 61.9865 449.714 60.4025C449.212 58.6634 448.116 57.2677 446.78 56.6695C445.605 56.1489 444.577 56.0271 443.562 56.304C443.002 56.4591 442.454 56.736 441.941 57.1458C441.164 57.7551 440.582 58.5194 440.24 59.0622C440.034 59.3723 439.886 59.6382 439.806 59.8043L439.703 60.0037L439.681 60.0591C439.509 60.4578 439.178 60.7458 438.767 60.8566C438.345 60.9785 437.9 60.8898 437.535 60.6462C437.535 60.6462 436.793 60.1366 435.743 59.7489C435.149 59.5274 434.556 59.3723 434.008 59.3058C433.357 59.2283 432.752 59.2726 432.204 59.4166C431.188 59.7046 430.389 60.4246 429.659 61.3662C428.769 62.5182 427.992 64.5563 429.419 66.1514C430.538 67.4031 433.814 70.2941 436.051 72.0221C437.398 73.0634 440.97 76.0431 440.97 76.0431L439.327 78.4689C439.327 78.4689 427.833 69.2972 426.52 67.3366C424.968 65.0105 424.979 61.9422 426.531 59.8929C427.89 58.0985 429.716 56.9243 431.302 56.4923C432.238 56.2375 433.22 56.1711 434.247 56.304C435.355 56.4369 436.496 56.7914 437.649 57.3452L437.717 57.3785C437.911 57.0683 438.128 56.7692 438.345 56.4702C438.882 55.7834 439.464 55.1852 440.092 54.6978C442.34 52.9366 445.091 52.6708 447.819 53.9003C449.999 54.8751 451.7 56.9686 452.476 59.6382C453.092 61.776 453.081 64.1575 452.43 66.5391C451.643 69.4302 449.805 72.3212 448.333 74.6474C447.842 75.4228 447.283 76.1206 447.02 76.7852C443.607 85.1926 448.139 96.7126 448.139 96.7126"
            fill="#192F59" />
        <path
            d="M453.389 101.653C448.778 103.746 442.911 104.954 438.003 103.126C437.284 102.86 436.93 102.074 437.204 101.387C437.478 100.689 438.288 100.346 438.996 100.612C444.497 102.661 452.624 99.9692 456.996 96.2916C457.578 95.8043 458.457 95.8707 458.959 96.4356C459.462 97.0006 459.405 97.8535 458.822 98.3409C457.441 99.4929 455.558 100.678 453.389 101.664"
            fill="#192F59" />
        <path
            d="M454.108 105.829C449.817 107.778 444.338 108.908 439.76 107.202C439.041 106.937 438.688 106.15 438.961 105.452C439.235 104.754 440.046 104.411 440.754 104.677C445.822 106.56 453.309 104.079 457.35 100.689C457.932 100.202 458.811 100.257 459.313 100.833C459.815 101.398 459.758 102.251 459.176 102.738C457.898 103.813 456.14 104.921 454.12 105.829"
            fill="#192F59" />
        <path
            d="M454.679 110.016C450.855 111.755 445.97 112.752 441.884 111.234C441.164 110.969 440.811 110.182 441.085 109.495C441.358 108.798 442.169 108.454 442.877 108.72C447.294 110.359 453.834 108.188 457.361 105.231C457.944 104.743 458.822 104.81 459.325 105.364C459.827 105.929 459.77 106.782 459.188 107.269C458.046 108.222 456.482 109.207 454.69 110.016"
            fill="#192F59" />
    </g>
    <defs>
        <clipPath id="clip0_4365_244">
            <rect width="869" height="144" fill="white" />
        </clipPath>
    </defs>
</svg>
