<svg width="42" height="35" viewBox="0 0 42 35" fill="none" xmlns="http://www.w3.org/2000/svg">
    <g clip-path="url(#clip0_4144_156)">
        <path
            d="M0.478149 16.4403C0.478149 17.2617 1.14934 17.9723 2.22326 17.9723C2.74343 17.9723 3.21326 17.7039 3.63276 17.388L5.54567 15.8718V30.5589C5.54567 32.8961 7.03909 34.2859 9.60642 34.2859H32.3096C34.8602 34.2859 36.3704 32.8961 36.3704 30.5589V15.793L38.384 17.388C38.7867 17.7039 39.2565 17.9723 39.7768 17.9723C40.7667 17.9723 41.5218 17.388 41.5218 16.472C41.5218 15.9351 41.3037 15.5087 40.8673 15.1612L36.3704 11.5921V4.86456C36.3704 4.1539 35.8838 3.71175 35.1287 3.71175H32.813C32.0747 3.71175 31.5713 4.1539 31.5713 4.86456V7.80196L23.3994 1.34284C21.9397 0.189999 20.0939 0.189999 18.6339 1.34284L1.14934 15.1612C0.696274 15.5087 0.478149 15.9825 0.478149 16.4403ZM25.8325 20.7991C25.8325 20.0568 25.3292 19.5832 24.5405 19.5832H17.493C16.7043 19.5832 16.1841 20.0568 16.1841 20.7991V31.1433H10.4958C9.45539 31.1433 8.88488 30.5903 8.88488 29.5954V13.2346L20.2785 4.23284C20.7483 3.85382 21.2852 3.85382 21.7551 4.23284L33.0144 13.1397V29.5954C33.0144 30.5903 32.4438 31.1433 31.4035 31.1433H25.8325V20.7991Z"
            fill="#015697" />
    </g>
    <defs>
        <clipPath id="clip0_4144_156">
            <rect width="42" height="34.7641" fill="white" />
        </clipPath>
    </defs>
</svg>
