<svg width="26" height="21" viewBox="0 0 26 21" fill="none" xmlns="http://www.w3.org/2000/svg">
    <g clip-path="url(#clip0_4019_109)">
        <path
            d="M0 10.4676C0 10.8723 0.175362 11.2771 0.485601 11.5737L9.38844 20.4632C9.71227 20.7735 10.063 20.9218 10.4542 20.9218C11.304 20.9218 11.9245 20.3148 11.9245 19.492C11.9245 19.0602 11.7626 18.696 11.4793 18.4264L8.44424 15.3507L4.53238 11.776L7.67532 11.965H24.0244C24.9147 11.965 25.5352 11.3444 25.5352 10.4676C25.5352 9.57731 24.9147 8.95679 24.0244 8.95679H7.67532L4.54586 9.14573L8.44424 5.57108L11.4793 2.4955C11.7626 2.22572 11.9245 1.86152 11.9245 1.42986C11.9245 0.607008 11.304 0 10.4542 0C10.063 0 9.69876 0.148382 9.34807 0.485603L0.485601 9.34801C0.175362 9.64484 0 10.0494 0 10.4676Z"
            fill="#015697" />
    </g>
    <defs>
        <clipPath id="clip0_4019_109">
            <rect width="25.5352" height="20.9218" fill="white" />
        </clipPath>
    </defs>
</svg>
