<svg width="41" height="34" viewBox="0 0 41 34" fill="none" xmlns="http://www.w3.org/2000/svg">
    <g clip-path="url(#clip0_4047_149)">
        <path
            d="M0 14.8902C0 21.4233 5.49273 27.88 14.0301 33.3879C14.5045 33.6939 15.0859 34 15.4837 34C15.8815 34 16.4629 33.6939 16.9373 33.3879C25.4901 27.88 30.9674 21.4233 30.9674 14.8902C30.9674 9.24439 27.0659 5.32758 22.0628 5.32758C19.1405 5.32758 16.8607 6.65863 15.4837 8.67825C14.1374 6.67393 11.8423 5.32758 8.91995 5.32758C3.9015 5.32758 0 9.24439 0 14.8902ZM3.15182 14.8749C3.15182 11.0192 5.69165 8.40289 9.10364 8.40289C11.8576 8.40289 13.4029 10.0706 14.3668 11.5241C14.7952 12.1514 15.0859 12.3503 15.4837 12.3503C15.8968 12.3503 16.1569 12.1361 16.6006 11.5241C17.6411 10.1012 19.1251 8.40289 21.8638 8.40289C25.2911 8.40289 27.831 11.0192 27.831 14.8749C27.831 20.2604 22.2311 26.2276 15.7744 30.5116C15.6367 30.6033 15.545 30.6646 15.4837 30.6646C15.4226 30.6646 15.3307 30.6033 15.2083 30.5116C8.75161 26.2276 3.15182 20.2604 3.15182 14.8749Z"
            fill="#015697" />
        <path
            d="M38.2983 5.232L39.9516 3.59385C40.7707 2.77476 40.8011 1.87982 40.0578 1.12141L39.4663 0.514662C38.723 -0.228596 37.7978 -0.15274 36.9938 0.651181L35.3404 2.27416L38.2983 5.232ZM19.7171 23.7829L36.8421 6.65779L33.8996 3.73037L16.7745 20.825L15.288 24.4047C15.1211 24.8598 15.5913 25.3605 16.0464 25.1936L19.7171 23.7829Z"
            fill="#015697" />
    </g>
    <defs>
        <clipPath id="clip0_4047_149">
            <rect width="40.5918" height="34" fill="white" />
        </clipPath>
    </defs>
</svg>
