<svg width="24" height="22" viewBox="0 0 24 22" fill="none" xmlns="http://www.w3.org/2000/svg">
    <g clip-path="url(#clip0_3942_43)">
        <path
            d="M7.50439 19.4125C4.21934 18.0207 1.86856 15.1468 1.50691 11.7487H0C0.512348 17.3158 5.68606 21.6899 12.005 21.6899L12.6681 21.6628L8.84052 18.2195L7.5044 19.4125H7.50439ZM12.005 0L11.342 0.0271046L15.1695 3.47038L16.5056 2.2684C19.7907 3.6692 22.1415 6.53408 22.4931 9.93216H24C23.4977 4.37413 18.324 0 12.005 0Z"
            fill="#7D7D7D" />
        <path
            d="M5.6715 15.0137L11.2591 17.8228C11.7651 18.0764 12.2277 18.0764 12.7337 17.8228L18.3212 15.0137C19.0224 14.669 19.3694 14.2984 19.3694 13.3814V8.10775C19.3694 7.41847 19.0802 6.97627 18.4297 6.65113L13.3481 4.08908C12.459 3.64039 11.541 3.64039 10.6447 4.08908L5.56308 6.65113C4.91975 6.97627 4.63062 7.41847 4.63062 8.10775V13.3814C4.63062 14.2984 4.97757 14.669 5.6715 15.0137ZM11.9964 10.1821L6.67625 7.50952L11.2302 5.20105C11.7506 4.93444 12.2421 4.92794 12.7698 5.20105L17.3238 7.50952L11.9964 10.1821ZM6.46663 14.0057C6.06907 13.8106 5.93173 13.6025 5.93173 13.2579V8.53691L11.3169 11.2681V16.4637L6.46663 14.0057ZM17.5333 14.0057L12.6759 16.4637V11.2681L18.061 8.53691V13.2579C18.061 13.6025 17.9236 13.8106 17.5333 14.0057Z"
            fill="#7D7D7D" />
    </g>
    <defs>
        <clipPath id="clip0_3942_43">
            <rect width="24" height="21.6899" fill="white" />
        </clipPath>
    </defs>
</svg>
