<svg width="24" height="10" viewBox="0 0 24 10" fill="none" xmlns="http://www.w3.org/2000/svg">
    <g clip-path="url(#clip0_4179_168)">
        <path
            d="M12.464 0C9.63521 0 7.04639 0.989558 4.95653 2.63608C4.74702 2.78559 4.48969 2.85251 4.23389 2.82401C3.97809 2.7955 3.74182 2.67359 3.57037 2.48163L1.79837 0.636549C1.65399 0.486212 1.46793 0.38247 1.26414 0.338712C1.06034 0.294955 0.848124 0.313186 0.654755 0.391004C0.461385 0.468821 0.29571 0.602682 0.179033 0.775407C0.0623562 0.948132 0 1.1518 0 1.36024V8.84329C0 9.12038 0.110092 9.38615 0.30603 9.58209C0.501969 9.77803 0.767703 9.88809 1.0448 9.88809H8.23145C8.43629 9.88809 8.63662 9.82787 8.80751 9.71492C8.97841 9.60198 9.11232 9.4413 9.19262 9.25285C9.27291 9.0644 9.29604 8.8565 9.25913 8.65501C9.22221 8.45351 9.12691 8.26731 8.98501 8.11956L7.19851 6.2594C7.09042 6.14827 7.00842 6.01449 6.95845 5.86773C6.90848 5.72097 6.89182 5.56492 6.90963 5.41092C6.92745 5.25691 6.97928 5.10879 7.06143 4.97732C7.14359 4.84584 7.25398 4.73431 7.38459 4.65078C8.85834 3.66875 10.5878 3.09005 12.464 3.09005C16.3198 3.09005 19.6458 5.49386 21.1309 8.9361C21.1796 9.06662 21.2538 9.18611 21.3493 9.28751C21.4448 9.3889 21.5596 9.47017 21.687 9.52655C21.8144 9.58292 21.9517 9.61325 22.091 9.61576C22.2303 9.61827 22.3687 9.59293 22.498 9.54118L23.2069 9.29825C23.3561 9.26122 23.4953 9.1917 23.6145 9.0947C23.7338 8.99769 23.8302 8.87558 23.8968 8.73705C23.9634 8.59851 23.9986 8.44699 24 8.29327C24.0013 8.13956 23.9687 7.98745 23.9045 7.84778C22.0015 3.24641 17.6032 0 12.464 0Z"
            fill="#8E8E93" />
    </g>
    <defs>
        <clipPath id="clip0_4179_168">
            <rect width="24" height="9.88808" fill="white" />
        </clipPath>
    </defs>
</svg>
