<svg width="24" height="19" viewBox="0 0 24 19" fill="none" xmlns="http://www.w3.org/2000/svg">
    <path
        d="M2.2481 18.9267H21.752C23.1089 18.9267 24 18.0557 24 16.719V2.21773C24 0.88101 23.1089 0 21.752 0H2.2481C0.881016 0 0 0.88101 0 2.21773V16.719C0 18.0557 0.881016 18.9267 2.2481 18.9267ZM2.22785 3.89874C1.94431 3.89874 1.7519 3.69621 1.7519 3.43292V2.38988C1.7519 2.08608 1.95443 1.87342 2.25823 1.87342H3.44304C3.71647 1.87342 3.90887 2.07596 3.90887 2.3595V3.43292C3.90887 3.69621 3.71647 3.89874 3.44304 3.89874H2.22785ZM5.99495 8.5266C5.6709 8.5266 5.46836 8.32404 5.46836 8.01007V2.38988C5.46836 2.06583 5.6709 1.87342 5.99495 1.87342H17.9848C18.2988 1.87342 18.5013 2.06583 18.5013 2.38988V8.01007C18.5013 8.32404 18.2988 8.5266 17.9848 8.5266H5.99495ZM20.5368 3.89874C20.2532 3.89874 20.0608 3.69621 20.0608 3.43292V2.3595C20.0608 2.07596 20.2532 1.87342 20.5368 1.87342H21.7114C22.0153 1.87342 22.2279 2.08608 22.2279 2.38988V3.43292C22.2279 3.69621 22.0254 3.89874 21.7418 3.89874H20.5368ZM2.22785 7.21014C1.94431 7.21014 1.7519 6.99742 1.7519 6.74428V5.69122C1.7519 5.40767 1.94431 5.20507 2.22785 5.20507H3.44304C3.71647 5.20507 3.90887 5.40767 3.90887 5.69122V6.74428C3.90887 6.99742 3.71647 7.21014 3.44304 7.21014H2.22785ZM20.5368 7.21014C20.2532 7.21014 20.0608 6.99742 20.0608 6.74428V5.69122C20.0608 5.40767 20.2532 5.20507 20.5368 5.20507H21.7418C22.0355 5.20507 22.2279 5.40767 22.2279 5.69122V6.74428C22.2279 6.99742 22.0254 7.21014 21.7418 7.21014H20.5368ZM2.22785 10.4608C1.94431 10.4608 1.7519 10.2582 1.7519 9.99495V8.95188C1.7519 8.6583 1.94431 8.46587 2.22785 8.46587H3.44304C3.71647 8.46587 3.90887 8.6583 3.90887 8.95188V9.99495C3.90887 10.2582 3.71647 10.4608 3.44304 10.4608H2.22785ZM20.5368 10.4608C20.2532 10.4608 20.0608 10.2582 20.0608 9.99495V8.95188C20.0608 8.6583 20.2532 8.46587 20.5368 8.46587H21.7418C22.0355 8.46587 22.2279 8.6583 22.2279 8.95188V9.99495C22.2279 10.2582 22.0254 10.4608 21.7418 10.4608H20.5368ZM5.99495 17.0431C5.6709 17.0431 5.46836 16.8405 5.46836 16.5267V10.9367C5.46836 10.6228 5.6709 10.4202 5.99495 10.4202H17.9848C18.2988 10.4202 18.5013 10.6228 18.5013 10.9367V16.5267C18.5013 16.8405 18.2988 17.0431 17.9848 17.0431H5.99495ZM2.22785 13.7418C1.94431 13.7418 1.7519 13.519 1.7519 13.2659V12.2127C1.7519 11.9291 1.94431 11.7266 2.22785 11.7266H3.44304C3.71647 11.7266 3.90887 11.9291 3.90887 12.2127V13.2659C3.90887 13.519 3.71647 13.7418 3.44304 13.7418H2.22785ZM20.5368 13.7418C20.2532 13.7418 20.0608 13.519 20.0608 13.2659V12.2127C20.0608 11.9291 20.2532 11.7266 20.5368 11.7266H21.7418C22.0355 11.7266 22.2279 11.9291 22.2279 12.2127V13.2659C22.2279 13.519 22.0254 13.7418 21.7418 13.7418H20.5368ZM2.25823 17.0431C1.95443 17.0431 1.7519 16.8405 1.7519 16.5367V15.5039C1.7519 15.2203 1.94431 15.0279 2.22785 15.0279H3.44304C3.71647 15.0279 3.90887 15.2203 3.90887 15.5039V16.5671C3.90887 16.8507 3.71647 17.0431 3.44304 17.0431H2.25823ZM20.5368 17.0431C20.2532 17.0431 20.0608 16.8507 20.0608 16.5671V15.5039C20.0608 15.2203 20.2532 15.0279 20.5368 15.0279H21.7418C22.0254 15.0279 22.2279 15.2203 22.2279 15.5039V16.5367C22.2279 16.8405 22.0153 17.0431 21.7114 17.0431H20.5368Z"
        fill="#8E8E93" />
</svg>
