<?xml version="1.0" encoding="UTF-8"?>
<svg id="CardioSmart_360" xmlns="http://www.w3.org/2000/svg" viewBox="0 0 753 130">
    <defs>
        <style>
            .cls-1 {
            fill: #002856;
            }

            .cls-2 {
            stroke: #231f20;
            stroke-miterlimit: 10;
            stroke-width: .25px;
            }

            .cls-2, .cls-3 {
            fill: none;
            }

            .cls-4 {
            fill: #002d5b;
            font-family: Gotham-Bold, Gotham;
            font-size: 39.58px;
            font-weight: 700;
            }

            .cls-3 {
            stroke: #002d5b;
            stroke-width: 1.55px;
            }

            .cls-5 {
            fill: #fff;
            }

            .cls-6 {
            fill: #192f59;
            }

            .cls-7 {
            letter-spacing: -.02em;
            }

            .cls-8 {
            letter-spacing: -.03em;
            }

            .cls-9 {
            clip-path: url(#clippath);
            }
        </style>
        <clipPath id="clippath">
            <path class="cls-5"
                d="M101.99,65.01c0,20.1-16.3,36.4-36.39,36.4s-36.4-16.29-36.4-36.4,16.3-36.4,36.4-36.4,36.39,16.29,36.39,36.4Z" />
        </clipPath>
    </defs>
    <line class="cls-3" x1="348.16" y1="26.52" x2="348.16" y2="103.48" />
    <g>
        <path class="cls-5"
            d="M113.94,65c0,26.64-21.6,48.25-48.25,48.25s-48.25-21.6-48.25-48.25,21.6-48.25,48.25-48.25,48.25,21.6,48.25,48.25Z" />
        <g>
            <g>
                <path class="cls-5"
                    d="M111.24,65c0,25.16-20.39,45.55-45.55,45.55s-45.55-20.39-45.55-45.55,20.39-45.54,45.55-45.54,45.55,20.39,45.55,45.54Z" />
                <path class="cls-1"
                    d="M65.69,111.14c-25.44,0-46.14-20.7-46.14-46.14s20.7-46.13,46.14-46.13,46.14,20.7,46.14,46.13-20.7,46.14-46.14,46.14ZM65.69,20.05c-24.79,0-44.96,20.17-44.96,44.95s20.17,44.96,44.96,44.96,44.96-20.17,44.96-44.96-20.17-44.95-44.96-44.95Z" />
            </g>
            <path class="cls-1"
                d="M111.83,65.01c0,25.48-20.66,46.14-46.14,46.14s-46.15-20.66-46.15-46.14,20.66-46.14,46.15-46.14,46.14,20.66,46.14,46.14Z" />
            <path class="cls-5"
                d="M67.58,66.16c-.55-.13-4.38-1.72-4.44-1.77-.3-.24-.06-.72.53-.48.23.09,3.94,1.52,4.24,1.62.39.12.48.83-.33.64Z" />
            <g>
                <path class="cls-5"
                    d="M105.89,65c0,22.2-18,40.19-40.2,40.19s-40.2-17.99-40.2-40.19,18-40.21,40.2-40.21,40.2,17.99,40.2,40.21Z" />
                <path class="cls-1"
                    d="M65.69,105.78c-22.49,0-40.8-18.3-40.8-40.79s18.3-40.8,40.8-40.8,40.79,18.3,40.79,40.8-18.3,40.79-40.79,40.79ZM65.69,25.38c-21.84,0-39.61,17.77-39.61,39.62s17.77,39.6,39.61,39.6,39.61-17.77,39.61-39.6-17.77-39.62-39.61-39.62Z" />
            </g>
            <g>
                <path class="cls-5"
                    d="M101.99,65.01c0,20.1-16.3,36.4-36.39,36.4s-36.4-16.29-36.4-36.4,16.3-36.4,36.4-36.4,36.39,16.29,36.39,36.4Z" />
                <g class="cls-9">
                    <g>
                        <path class="cls-1"
                            d="M54.86,23.84c.27.04.72-.13.65-.3-.08-.16-.16-.1-.46-.1-.39.02-.47.35-.19.39Z" />
                        <path class="cls-1"
                            d="M56.89,28.61c.25.17,1.61.38,2.01.4.4.01.34-.33.17-.3-.17.03-2.34-.47-2.61-.47-.26,0-.66-.23-.84-.29-.19-.06-.57-.25-.44,0l-.07.14c.17.19,1.53.35,1.78.53Z" />
                        <path class="cls-1"
                            d="M57.29,26.15s-.12-.42-.38-.42c-.27,0-.46.17-.58.19-.42.08.97.23.97.23Z" />
                        <path class="cls-1"
                            d="M55.41,24.76c-.32.24.63.07.51-.05-.1-.11-.36-.07-.51.05Z" />
                        <path class="cls-1"
                            d="M55.83,25.61c.02-.14-.21-.23-.37-.11l-.04.09c-.03.32.33.34.33.34,0,0,.06-.19.08-.32Z" />
                        <path class="cls-1"
                            d="M84.31,90.38c.31-.18.45-.52.12-.42-.33.09-2.07.68-2.4.52-.25-.12-.76.29-.35.31.41.02,2.33-.23,2.63-.41Z" />
                        <path class="cls-1"
                            d="M55.77,26.55c.18.12,1.05.47,1.29.52.23.05.99-.13.49-.21-.49-.09-1.14-.42-1.4-.46-.27-.04-.52.05-.37.16Z" />
                        <path class="cls-1"
                            d="M61.4,26.84c.22.05.62-.2.62-.2,0,0-.46.13-.5-.09-.05-.31-.36.24-.12.29Z" />
                        <path class="cls-1"
                            d="M57.32,27.83c.2.1.63.29.84.25.21-.04.53-.23.39-.29-.14-.06-.67-.02-1.01-.17-.39-.19-.42.12-.22.22Z" />
                        <path class="cls-1"
                            d="M88.5,89.54c.22-.45-.11.15-.57.48-5.99,4.13-13.72,3.7-14.15,3.59-.42-.11-3.05-.06-3.3-.04-.25.02-.37.26-.52.29-.15.03-.59.17-.02.25.58.08,3.3-.11,3.54-.09,4.85.19,8.55-.83,9.41-1.08.86-.24,4.96-2.05,5.61-3.39Z" />
                        <path class="cls-1"
                            d="M62.16,50.89c-.08-.3.26-.25.6-.4.35-.15,1.62.63,2.12.51.51-.12,1.56-.09,2.21.38.64.48,2.1,1,2.42,1.04.32.03.57.39.38.55-.19.16,1.07,1.52,1.15,1.88.05.36.71,1.02,1.16,1.94.47.94,2.36,1.49,2.65,1.57.29.07.46.48.76.43.31-.06-.03-.37-.05-.49-.03-.12.18-.07.38.02.2.09.41.36.45.23.03-.14.1-.14.36-.04.27.11.3.29.46.32.16.03.11-.08-.04-.27-.16-.19.06-.38.26-.26.21.12.65.69.93.67.27-.02-.03-.33-.1-.57-.08-.24.24-.23.4,0,.16.22.73.8,1.11.83.37.03-.08-.42-.06-.67.02-.26.2-.1.4.14.19.25,1.16,1.64,1.38,1.51.23-.13,1.42,2.05,1.68,3.03.27.98.59.81.55.65-1.41-5.16-3.05-5.49-3.58-5.86-.54-.37-7.87-2-7.94-2.38-.07-.39-1.52-2.07-1.52-2.07,0,0-1.06-1.43-1.25-1.61-.19-.19-2.69-1.85-3.37-2.17-.68-.31-1.24-.34-2.45-.66-1.2-.31-1.24-.37-1.83-.51-.58-.15-1.35.8-1.48,1.07.55.55,1.37,1.41,2.04,2.18.43.13.84.23.9.22.12-.02-1-.91-1.09-1.21Z" />
                        <path class="cls-1"
                            d="M71.41,86.85c-.4-.03-.58-.05-.92-.1-.34-.05-.51.27-.25.38.26.11.75.18,1.05.13.3-.05.53-.39.12-.41Z" />
                        <path class="cls-1"
                            d="M69.35,84.42c.38-.1.25-.34.24-.42-.01-.1-1.03-.28-1.21-.34-.34-.12-.6.36-.2.47.4.12.79.39,1.18.29Z" />
                        <path class="cls-1"
                            d="M70,85.61c-.38-.04-.87-.22-1.14-.26-.37-.06-.56.35-.27.42.3.08,1.05.28,1.21.26.15-.03.42-.39.21-.41Z" />
                        <path class="cls-1"
                            d="M71.07,88.32c.18.13,1.96.31,2.22.23.27-.08.42-.26.4-.35,0-.09-.24-.15-.53-.03-.3.11-1.48-.05-1.66-.09-.31-.08-.61.12-.43.24Z" />
                        <path class="cls-1"
                            d="M71.31,89.7c.18.13,1.96.31,2.22.23.27-.08.42-.26.4-.35,0-.09-.24-.15-.53-.03-.3.12-1.47-.04-1.66-.09-.31-.07-.61.12-.43.24Z" />
                        <path class="cls-1"
                            d="M72.09,90.84c.18.13,1.96.31,2.22.23.27-.08.42-.26.4-.35,0-.09-.24-.15-.53-.03-.3.12-1.48-.04-1.66-.09-.31-.08-.61.12-.43.24Z" />
                    </g>
                    <path class="cls-1"
                        d="M87.39,50.18h0c-4.8-4.29-10.34-5.93-15.47-5.81.16-.87.31-1.93.44-3.09.61.04,1.86.06,2.68.09.41.02.81-.2.71-.43-.1-.22-.52-1.16-1.14-1.29-.33-.08-1.34-.65-1.99-.86.21-2.39.37-5,.42-7.32.1-5.05-2.74-8.99-7.18-9.15-.78-.03-1.12-.51-.95-1.45.29-1.53.94-3.49,1.43-5.04.26-.81-.21-1.58-.98-1.45-.53.09-1.03.13-1.5.02-.46-.1-1.05.26-1.05.26-.62.24-.88.82-1.03,1.24-.14.43-1.13,2.9-1.29,3.28-.15.38-.3,2.04-.65,1.58-.24-.32-.43-.38-.55-.51-.2-1.66-.33-3.31-.47-4.06-.19-1.05-1.2-1.27-1.86-.45-.29.36-.55.72-.88,1.06-.36.37-.79.45-1.29.34-.5-.1-.97.09-1.32.47-.36.4-1.04.53-1.51.24-.33-.21-.66-.43-1.04-.5-.38-.06-.62.16-.58.47.18,1.68.44,3.42.57,4.86l.14,2.85c0,1.26-.03,2.5-.11,3.33-.11,1.15-.16,2.23-.08,3,.06.57-.03.96-.17,1.43-.36,1.21-.56,2.32-.53,3.89.04,1.57.02,3.95-.06,6.09-.06,2.13-.37,5.92-.26,9.09.01,0,.02-.01.04-.02-.48.28-.93.59-1.37.92.05-.03.08-.06.12-.1v-.03c-.29-3.18.1-7.12-.53-10.72-.3-1.71-1.97-1.68-2.5-.1-.17.52-.28.85-.46,1.31-.26.64-.62.92-1.36,1.05-.91.16-1.95.45-2.61.73-.34.15-.53.51-.48,1.04.14,1.29.31,4.37.51,8.42-.46.14-.89.4-1.22.79-.79.91-1.06,2.13-.54,3.83.74,2.43.61,3.64,0,5.16-1.19,3-.53,7.24,1.86,10.23.05.06.09.11.13.15.21.23.44.36.68.43,0,0-.02-.01-.03-.01.35,9.01.63,17.44.71,20.87-.01.47.29,1.01.83,1.43.79.6,1.75.14,2.2-.39.44-.53,1.02-.19,1.05.58.03.66.56,1.1.91,1.41.32.28.79.62,1.21.95.69.55,1.4.37,1.43-.14h0c-.03-3.7-.24-9.57-.46-13.5-.06-.07-.12-.14-.18-.22,2.79,3.38,6.37,6.09,10.64,7.6h-.01c.88,3.43,1.95,9.91,1.99,10.07.11.72.83,1.4,2.13,1.5.8.06,1.61-.37,2.31-.49.71-.12,1.32.14,1.9.47.96.55,2.46.64,3.46.15.62-.3.79-.79.68-1.23,0,.02.01.03.01.05l-1.82-8.76.32-.03c.97.17,1.96.14,2.95-.1,3.71.09,7.16-.53,9.98-1.78,2.67-1.18,4.69-2.86,5.82-4.87.91-1.59,1.21-3.29.91-4.97-.18-1.04-.6-2.07-1.24-3.06l-.07-.11c-1.96-3.04-3.83-5.96-4.43-9.34-.24-1.36-.02-2.84.25-4.39.18-1.13.14-2.4-.08-3.67-.27-1.56-.84-3.13-1.61-4.44,0,0,1.99.91,3.62,1.76h0c.62.31.96-.15.73-.64-.13-.27-.39-.68-.68-1.11-.3-.45-.54-.83-.45-1.36.14-.79-.09-1.87-.62-3.18-.84-2.06-.34-3.11.7-3.39.44-.12.5-.61.19-.89ZM72.63,104.65s-.02-.06-.02-.08c0,.02.01.05.02.08ZM71.22,44.18c-1.06.04-4.11.43-5.14.61-.07-.38.22-2.35.61-2.5.41-.03,2.83-.41,3.2-.41.71-.02,1.11-.15,1.67-.14-.1.92-.22,1.74-.34,2.45ZM53.12,39.05c.18-.02.38-.08.97.04.59.11.21-.26.03-.31-.19-.06-.62-.13-1.12-.19-1.38-.15-1.06-.93-.62-.93s1.76.11,2.25.15c.49.05.3-.25-.04-.37-.32-.12-1.39-.2-1.84-.31-1.46-.37-1.11-1.13-.75-1.06.36.07,1.65.2,2.06.3.42.1.39-.39-.06-.48-.45-.1-1.77-.39-1.96-.45-.19-.05-.57-.77.49-.8.49-.02,2.15.29,2.64.33.5.05.42-.12.08-.32-.34-.2-2.1-.49-2.62-.66-.52-.17-.96-.7-.16-.63.81.08,1.6.24,2.28.35.68.1.42-.32.06-.38-.37-.07-1.86-.49-2.37-.62-.51-.13-.6-.67-.28-.6.33.08,2.36.55,2.9.63.55.08.57-.27.01-.44-.56-.17-2.45-.67-3.06-.83-.6-.16-.48-.49-.07-.43.4.06,2.57.47,3.21.58.64.11.17-.43-.2-.54-.38-.11-2.37-.42-2.76-.65-.4-.24-.41-.55-.01-.35.39.19,1.42.06,1.22-.08-.2-.14-.48-.45-.16-.41.31.03.75.26,1.12.33.36.07.34-.06-.06-.3-.39-.24-1.16-.33-1.54-.44-.37-.11-.6-.64-.24-.57.37.07,1.36.42,2.01.57.64.15.41-.2-.05-.26-.45-.05-1.43-.54-2.24-.89-.81-.34-.39-.51.1-.46.5.05,1.14.42,1.38.51.24.09.57-.01.06-.19-.52-.17-1.12-.55-1.54-.65-.41-.1-.47-.45.06-.41.54.04,1.58.43,2.14.55.55.13.84-.23.2-.34-.64-.11-2.03-.7-2.26-.75-.22-.05-.38-.42-.07-.39.32.04,1.21.32,1.48.36.28.05.54-.18-.13-.24-.68-.06-.91-.37-1.48-.58-.56-.21-.12-.46.19-.43.32.03,1.11.29,1.62.42.5.13.26-.22-.23-.31-.5-.09-1.51-.53-1.91-.77-.39-.24-.37-.33.09-.28.45.05,1.12.33,1.72.49.6.16.77-.17.35-.28-.42-.1-1.76-.7-2-.79-.23-.09-.45-.32-.14-.29.32.03,1.02.26,1.4.41.38.16.85-.2.37-.38-.47-.18-1.5-.49-1.97-.67-.48-.18-.25-.4.06-.41.3,0,1.48.4,1.92.41.45.01.35-.28-.1-.29-.45,0-1.64-.55-1.95-.8-.32-.26-.14-.24.22-.22.36.02.78.17,1.05.21.27.04.59-.15,0-.23-.58-.07-.76-.31-1.17-.41-.42-.11-.33-.38-.16-.41.17-.03.45.05.64.11.19.05,1.14-.07.45-.17-.68-.1-.54-.3-.93-.5-.39-.2-.66-.2-.36-.29.29-.1.5.05,1.04.12.54.08.97.27.88-.02-.1-.29-.42-.1-1.62-.42-1.21-.32-.82-.39-.65-.68.12-.21.4-.09.63-.15.61.31,1.43.16,1.91-.36.15-.17.48-.44.92-.34.67.14,1.21,0,1.64-.45.26-.26.47-.54.68-.81l.23-.28c.22-.27.48-.39.7-.33.22.05.38.27.44.61.08.42.15,1.16.25,2.02.1.97.21,2.08.36,3.13.13.89.63.99.79,1,.38.02.71-.27.84-.74,0-.02,0-.05.02-.07.11.04.3-.16.25-.28-.06-.15.14-.44.23-.52.11-.08.25-.38.19-.56-.06-.18.16-.61.36-.98.16-.29.03-.56-.07-.84.1-.3.19-.57.28-.85.08.1.2.02.36.12.19.12.66-.32.67-.53.01-.22.39-1.09.51-1.32.09-.19.29-.68.3-1.04.58.12,1.15.05,1.59-.03.17-.04.32.01.42.13.07.08.12.19.14.32.03.15.02.32-.04.48l-.16.51c-.47,1.49-1.01,3.19-1.26,4.58-.07.32-.07.6-.03.84.05.23.13.43.26.6.24.3.6.46,1.08.48,3.41.14,5.91,2.69,6.58,6.45.13.72.18,1.5.17,2.3-.05,2.19-.19,4.73-.41,7.2-.3-.04-.6-.06-.91-.05-.54.02-1.05-.04-1.51-.17-1.41-.39-2.49-.41-3.29-.05,0,0-.03.02-.05.02.07-.91.09-1.84.08-2.64.06-.02.15.02.22,0,.19-.03.24.2.24.45,0,.23.01,1.42.06,1.69.05.27.29.05.26-.13-.03-.17.02-.45.01-.92,0-.48-.05-1.9-.1-2.31-.04-.35,0-.82-.1-1.16-.1-.34-.33-.1-.3.15.03.25-.02.59.02,1,.05.34-.12.16-.36.14-.02-.3-.06-.58-.09-.86-.04-.47-.11-.91-.18-1.32-.26-1.45-.66-2.59-1.21-3.37-.22-.32-.52-.51-.82-.53-.04-.33-.35-.29-.45-.31-.11-.02-.34-.32-.32-.43.03-.11.34-.32-.13-.48-.47-.16-.44-.03-.57.1-.13.13-.73.13-.41.32.32.18.9.46.81.57-.09.1-.13.24-.35.17-.21-.07-.76-.2-.97-.25-.21-.05-.39.16-.14.24.26.09.91-.07,1.1.12.07.07.43-.02.23,1.12-.12.24-2.08,3.47-2.04,3.51-.12.16-2.65,2.79-2.62,2.96-.26.25-.54.51-.83.77-.5.45-3.06,3.16-3.51,3.83-.15-.07-.42-.17-.73-.29-1.38-.54-.96-1.58.23-1.68ZM53.44,42.92c.97-2.05,2.6-3.69,4.22-5.14,3.21-2.88,4.6-5.12,5.93-8.02.06-.13.13-.18.17-.19.04,0,.52.65.58.78-.08.05.36.93.21,1.07-.15.14-.34-.08-.6-.19-.26-.11-.34.23-.09.43.26.2.79.55.9.68.11.11.22.6-.04.54-.25-.07-.86-.54-1.2-.83-.34-.3-.5.23-.3.35.2.12,1.1,1.02,1.41,1.19.3.16.09.42.14.82-1.19,1.31-2.01,2.79-2.5,4.5-.03.13-.05.26-.02.37.03.17.12.33.26.43.23.18.55.18.83.02.65-.39,1.56-.53,1.98-.3.42.23.82.05,1.14-.09h.02c.61-.29,1.54-.26,2.75.08.54.15,1.13.22,1.74.2.31,0,.6.01.88.05l1.1.31c.27.12.54.27.77.45-.06.13-.11.21-.26.25-.32.09-2.47.36-2.47.37-.15.03-.3.05-.46.08-.36-.34-1.27-.91-1.39-1.11-.14-.21-.44.03-.26.2.18.17.78.7,1.01.95-.14,0-.37,0-.64.02-.02-.02-.04-.03-.06-.05-.29-.24-.71-.7-.95-.95-.24-.25-.48.04-.26.19.22.16.56.69.63.81,0,.02,0,.02,0,.03-.07,0-.14.02-.21.02-.11-.02-.23-.08-.3-.15-.18-.17-.81-.69-1.03-.85-.23-.16-.55-.05-.43.08.12.13.89.62.98.85.03.08,0,.13-.06.16-.04,0-.09,0-.13.02-.11,0-.27-.06-.39-.17-.29-.24-.72-.71-.93-.82-.21-.11-.32.15-.13.36.18.22.54.35.65.62.02.06.01.12,0,.16,0,0-.02,0-.02,0-.13.03-.25.07-.37.12-.05-.02-.11-.05-.17-.09-.28-.25-.49-.6-.77-.75-.27-.15-.55-.1-.37.11.19.21.88.53.91.72.02.08-.01.17-.06.22-.03.01-.05.03-.07.04-.06,0-.11,0-.17-.06-.17-.16-.17-.11-.44-.26-.28-.14-.22.43.06.63.02.01.03.02.04.04-.13.11-.26.21-.4.33-.31-.3-1.03-.76-1.03-.76,0,0-.51-.11-.23.09.28.2.75.65.59.82-.17.18-.72-.22-.99-.36-.27-.14-.44-.02-.27.14.18.17.96.42,1.05.69.1.28-.06.45-.43.32-.37-.13-.79-.3-1.11-.48-.33-.19-.26.2-.09.31.17.12,1.06.74.86.97-.2.23-1.21-.23-1.5-.42-.28-.19-.53.05-.3.21.22.16,1.3.74,1.1.98-.2.23-1.2-.43-1.43-.63-.23-.2-.4-.03-.21.18.18.21,1.3.75,1.1.98-.2.23-1.51-.51-1.84-.7-.33-.19-.5.19-.19.32.32.14,1.92.93,1.55,1.29-.38.36-1.52-.57-2-.82-.48-.25-.68.02-.35.26.34.24,1.11.69,1.33.89.23.2.29.49-.14.27-.43-.22-2.01-1.12-2.34-1.1-.35,0-.4.27-.02.44.38.18,1.57.55,1.8.8.25.25-.2.23-.56.1-.37-.13-1.31-.75-1.55-.71-.24.04-.59,0-.15.27.43.27,1.41.48,1.08.59-.32.11-.99.08-1.53.08-.43,0-2.96,1.77-4.38,3.01-1.39.36-2.32-1.82-.59-5.18.02-.16,1.37-2.4,1.42-2.5ZM50.13,54.28c.1-.07.25-.12.38-.05.3.15,1.87.99,2.12,1.15.12.07.18.2.12.31-.06.13-.26.21-.56.11-.26-.09-.79-.39-1.26-.65-.34-.2-.67-.38-.8-.43-.12-.05-.15-.13-.15-.17-.02-.09.04-.2.14-.27ZM48.72,55.51c0-.06.05-.12.13-.16.1-.04.24-.02.35.1h0c.12.14,2.63,1.27,3.04,1.37.36.1.34.2.34.23-.01.08-.13.29-.59.27-.51-.02-1.95-.74-2.76-1.17l-.49-.26c-.17-.07-.02-.33-.01-.39ZM55.47,66.77c.24.07.27.16.25.23-.03.14-.33.18-.66.11-.34-.08-.96-.32-1.46-.51-.29-.11-.53-.21-.64-.23-.15-.05-.24-.17-.26-.26-.02-.07,0-.14.06-.18.05-.04.15-.06.32.03.31.15,1.92.69,2.38.83ZM51.37,80.42s0-.06.02-.08c.08-.07.37.01,2.24.72.53.21,1.05.41,1.18.44.27.06,1.74.59,1.81.83.03.09.05.22,0,.31-.04.07-.19.32-.29.35-.18.04-1.49-.47-1.49-.47-.88-.37-2.59-.94-2.86-1-.44-.09-.59-.63-.58-.86,0-.08,0-.16-.02-.24ZM57.41,82.16l-.31-.18c-.16-.08-.19-.2-.19-.24,0-.07.04-.14.12-.18.09-.05.25-.06.42.05.06.05.23.11.39.18.42.17,1.64.53,1.65.61.01.06,0,.17-.07.26-.05.07-.13.11-.21.11-.15.01-1.52-.44-1.8-.61ZM59.02,79.63c-.02.06-.09.15-.3.15-.28,0-2.58-.77-2.98-.89l-.17-.05-.13-.03c-.15-.02-.31-.05-.36-.31,0-.09-.05-.44.05-.47.18-.08,2.59.8,2.86.82.33.03.63.06.76.16.16.13.3.52.27.62ZM58.06,77.79c-.46.03-2.96-.9-3.28-1.09-.11-.06-.49-.23-.92-.42-1.01-.44-1.93-.8-2.13-.88-1.08-.42-2.47-.5-2.34-1.33.02-.12.15-.45.23-.51.05-.03.14-.06.28.03.07.05.34.15.62.25.45.16,1.89.79,2.39.93.47.14,4.32,1.66,4.5,1.69.29.07.57.13.71.28.04.05.08.11.08.17,0,.06,0,.21,0,.27-.04.2.19.57-.13.6ZM45.01,67.85c.03-.14.07-.39.47-.21.15.07,5.37,2.03,5.59,2.11.04.02.12.39.1.42-.04.12-.31.2-.48.14l-3.6-1.27c-.99-.29-1.93-.59-2.07-.87-.07-.15-.03-.23-.01-.32ZM44.79,73.07c.23,0,2.13.94,2.33,1.1.44.35.66,1.5.68,1.52.15.15-1.32-.44-1.6-.53-.54-.17-1.44-.51-1.54-.66-.09-.13-.13-.47-.08-.54.04-.07,0-.89.21-.89ZM44.81,76.67c.05-.11.05-.66.16-.66.06,0,2.91.85,2.98.88.57.27.55,1.39.55,1.39-.05.07-.11.11-.18.12-.14.02-2.37-.77-2.58-.82-.22-.05-.67-.15-.78-.25-.08-.08-.2-.53-.16-.66ZM46.57,70.01c-.01-.1.08-.37.24-.41.18-.05,1.85.63,2.22.78.41.18.68.3.75.36.09.09.11.22.09.32-.02.08-.07.31-.13.33-.05.02-.13.01-.22-.09-.24-.23-2.91-1.11-2.94-1.28ZM57.67,75.4c.04.18,0,.33-.12.39-.13.08-4.85-1.69-5.08-1.87-.06-.05-2.22-.94-2.5-1.17-.07-.07.14-.4.18-.46.09-.12.27-.18.45-.07.17.11,2.44.77,2.83.93l.64.27c.47.21,2.11.81,2.31.87l.15.03c.16.02.36.06.73.25.42.21.4.77.4.82ZM57.28,73.73c-.04.18-.38.17-.46.12,0,0-4.26-1.69-4.64-1.79-.62-.18-1.31-.3-1.33-.53-.02-.2.23-1.18,1.83-.48.32.14,4.15,1.4,4.15,1.4.3.11.28.48.41.84,0,0,.12.11.05.44ZM45.17,60.44c.13-.23.59-.24.74-.07.14.16,5.52,2.21,6.01,2.32.19.03.25.12.27.18.03.08-.02,1.05-.09,1.13-.11.12-.32.21-.54.16-.42-.1-6.12-2.55-6.41-2.79-.07-.06-.15-.14-.13-.23.02-.04.12-.63.16-.7ZM45.19,62.62c.1.06.45.18.73.29.21.08.39.14.46.18.14.07,2.78,1.05,3.72,1.42l.66.26c.14.05.23.19.24.28,0,.04-.05.35-.08.38-.04.03.07.42-.94.11-1.37-.41-5.52-1.44-5.28-2.63.02-.08.41-.35.5-.29ZM55,68.19l-.56-.15c-.68-.17-1.61-.4-1.96-.6-.27-.16-.29-.3-.26-.38.05-.15.13-.11.43-.09.38.03,1.19.36,1.84.51.36.08.63.28.78.33.17.05.26.12.28.2.01.05,0,.11-.05.14-.09.09-.29.1-.51.04ZM51.75,61.31c-.19.12-2.43-.83-2.93-.95-.5-.11-1.92-.76-2.28-.92-.16-.08-.21-.29-.21-.35.02-.14.23-.67.38-.71.08-.02.41,0,.49.09.11.12,1.79.83,2.26.94.27.06.82.29,1.36.51.43.18.84.35,1.02.4.15.03.19.11.2.17,0,.11-.18.75-.28.82ZM47.64,56.73c.12,0,.42.06.46.16.14.15,2.32,1.06,3.47,1.54.19.08.57.25.57.34,0,.31-.26.52-.57.53-.56.02-3.87-1.6-4.06-1.82-.08-.09-.18-.28-.17-.32.03-.08.18-.43.29-.43ZM41.99,46.05c.29.13,2.06.84,2.29.93.24.09.27-.18.08-.28-.2-.1-1.29-.79-1.63-.96-.34-.16.14-.25.32-.19.19.05,1.03.3,1.27.39.23.09.46-.13.31-.23-.14-.1-.3-.3-.7-.54h0c.76-.17,1.18-.55,1.47-1.26.17-.44.28-.78.46-1.33h0c.22-.66.64-.94.96-.91.36.02.65.39.74.96.38,2.13.39,4.37.41,6.54,0,1.4.02,2.72.12,3.95-.64.51-1.24,1.08-1.79,1.71l-.02-.04s-.17.03-.53.04c-.35.02-.64-.32-.38-.37.26-.04.47-.31.26-.32-.22,0-.37-.06-.83-.16-.46-.1-.43-.41-.21-.45.21-.04.55.13.85.3.29.17.71-.26.25-.36-.46-.09-1.12-.55-1.67-.63-.55-.08-.71-.5-.29-.39.42.11,1.01.18,1.55.22.54.04.33-.33.06-.41-.28-.08-1.29-.26-1.71-.4-.42-.15-.35-.47-.04-.48.31,0,1.64.47,2.01.58.37.11.53-.27-.12-.42-.65-.15-1.85-.65-2.08-.74-.24-.09-.28-.35.12-.29.42.06,1.53.39,1.77.45.23.05.33-.11-.12-.2-.46-.1-1.45-.67-1.92-.76-.46-.11-.38-.42-.06-.35.33.08,1.55.48,1.92.55.36.07.45-.21-.15-.32-.6-.12-1.77-.71-2.19-.86-.43-.15-.35-.47.06-.36.42.1,1.18.59,1.53.57.35-.02.23-.22-.05-.25-.27-.05-1.17-.6-1.41-.73-.25-.13-.14-.24.04-.27.17-.03.67.28.9.33.23.05.41-.2.09-.28-.33-.07-.97-.41-1.29-.49-.32-.07-.24-.35,0-.3.23.04,1.03.35,1.36.42.33.07.34-.06.02-.14-.32-.07-1.54-.7-1.99-.94-.44-.23-.33-.6-.04-.48ZM45.56,65.23c2.19.54,4.18,1.53,5.5,2,1.05.38.35.68.64.83.35.19,1.05.47,2.09.84.95.33,1.85.64,2.08.77.24.14.28.58.27.7,0,.09-.05.16-.13.2-.09.03-.22,0-.32-.1-.16-.15-1.39-.56-2.58-.97-1.15-.4-2.35-.81-2.72-1.01-.43-.23-1.07-.43-1.64-.6-.47-.15-.93-.28-1.2-.44-.8-.44-1.79-.61-2.6-1.1-.11-.07.08-1.25.59-1.12ZM41.17,73.32c.18-.07-.04-.44-.34-.65-.3-.21-.64-.86-.39-.68.26.18.97.67,1.27.88.3.21.54,0,.08-.28-.45-.28-1.2-1.03-1.46-1.25-.26-.22-.41-.82-.16-.63.25.17,1.12.82,1.34,1.04.22.23.35-.06.18-.25-.17-.2-.97-.86-1.42-1.26-.77-.67-.54-1.81-.27-1.77.24.04,1.98,1.52,2.29,1.78.21.17.38-.07.1-.38-.29-.32-1.89-1.69-2.11-1.86-.62-.48-.44-1.31-.42-1.37.06-.13.27-.32.4-.23.25.17,1.55,1.46,1.72,1.65.16.19.39-.08.13-.25-.25-.18-1.13-1.09-1.44-1.38-.32-.3,0-.54.29-.41.29.13,1.29,1.24,1.57,1.36.29.13.24-.12.09-.23-.15-.11-1.81-1.68-2.01-1.86-.1-.09-.3-.25-.17-.49.19-.35.23-.64.74-.32.16.1.51.4.67.55.15.15.35-.02.18-.21-.17-.19-.89-.73-1.1-.91-.21-.18-.1-.56.26-.36.34.21,1.24,1.03,1.35,1.15.11.11.58.02.23-.23-.36-.25-1.81-1.7-1.84-1.85-.09-.43-.14-2.07.08-1.84.22.23.8.53,1.18.9.38.38.24-.17.01-.44-.17-.22-1.32-1.03-1.88-2-.05-.15-.11-.29-.17-.43-.62-1.5.02-2.91,1.29-3.47.48-.12.97-.1,1.37.02.33.11.49.35.48.48-.01.12-.2.21-.49.25-.72.07-1.28.44-1.57,1-.25.48-.23,1.05.02,1.48.25.42.51.79.87,1.3l.79,1.13c1.12,1.65,1.26,4.26,1.04,6-.11.9-.27,2.14-.03,3.75.24,1.6.03,2.84-.68,3.9-.24.36-.55.57-.84.58-.12,0-.58-.19-.75-.39-.26-.3-1.02-1.29-.47-1.53ZM45.86,96.93c-.14.06-.27.17-.4.31-.23.27-.8.66-1.35.48l-.06-.14c-.08-.26.1-.62.38-.58.28.04.89-.25.92-.38.04-.13.49-.24.5-.03,0,.08.02.2,0,.33ZM49.91,100.34c-.09.07-.4.06-.74-.21l-.09-.07c.05-.15.21-.33.39-.41.2.15.38.32.43.47.02.03.07.17,0,.21ZM49.58,95.6c-.1,1.08.33,2.31.35,3.4-.13-.09-.24-.18-.35-.25l-.31-.22c-.22-.17-5.58-4.65-5.96-4.2-.06.07-.13.16-.21.27,0,0,.29-.54.1-.68-.19-.14-.04-.82.09-1.01.14-.2.22,0,.54.12.32.12.19-.23.04-.33-.14-.11-.41-.19-.57-.32-.15-.15-.17-.48.03-.35.19.14.39.14.66.26.28.12.19-.16,0-.3-.19-.14-.49-.25-.74-.46-.25-.21-.1-.54.15-.37.24.17.62.36,1,.59.38.23.27-.29,0-.37-.27-.08-.77-.48-.97-.6-.32-.18-.55-1.01.03-.96.41.03.7.32,1.06.48.35.15.45-.17.14-.41-.29-.25-.92-.62-1.25-.82-.39-.22-.24-.88.15-.85.18.02.5.17.73.29.24.13.36-.11.17-.24-.2-.14-.53-.31-.73-.44-.19-.14-.21-.8.17-.56.38.23.49.23.82.35.32.11.24-.24.1-.34-.15-.1-.71-.3-.96-.48-.25-.17-.15-.55.14-.39.28.17.65.33.91.44.28.12.56-.09.37-.22-.19-.14-.46-.37-.68-.45-1.15-.4-.66-4.4,1.41-2.85.46.35,2.27,2.54,2.85,2.45.82-.12.75,9.61.72,9.82ZM46.14,80.44c-.26-.06-.89-1.4-.55-1.48.28-.06,2.64.81,3.17.93.92.2.9,1.62.42,1.53-.65-.11-2.67-.89-3.04-.98ZM58.83,91.06c-.21-.06-3.47-1.4-3.78-1.63-.3-.23-.11-1,.48-.78.23.09,3.33,1.31,3.62,1.43,1.5.6,1.32,1.47-.32.98ZM52.75,83.86c-.36-.09-.72-.38-.86-.69-.06-.14.19-.57,1.15-.25.33.11,1.59.61,2.33.79l.49.13.32.1c.29.1,2.21.77,2.36.83.49.21,2.08.75,2.51.86.15.04.17.44.1.66-.24.78-8.04-2.35-8.39-2.43ZM66.98,104.9c-.56-.04-2.16.38-2.74.54-.58.16-.61-.25-.56-.52.04-.27.59-.78.99-1.01.4-.23,1.22-.69,1.48-.43.55.55.97.58,1.57,1.01.61.42-.17.45-.73.41ZM71.51,105.32c0,.41-.95.58-1.39.66-.43.08-1.38-.42-1.79-.68-.42-.26.14-.73.39-.91.33-.23.8-.05,1.07.06.21.08.93-.11,1.2.01.27.12.53.44.51.86ZM69.14,103.29c-.39.11-.7.16-1.01.12.08-.14.12-.31-.08-.35-.38-.07-1.09-.64-1.24-.83-.15-.2-.1.06-.36-.01-.26-.06-.54-.07-1.09,0-.55.08-.54-2.43-.55-2.81,0-.33.57-1.21,1.64-1.04.52.08.99-.17,1.02-.5.01-.17-.09-.97.1-.96.87.06.48-.73.57-1.03.68,0,1.37-.04,2.07-.11.06.02.13.04.19.06.08.37,1.16,5.59,1.56,7.55-.95-.48-2.04-.29-2.82-.08ZM84.6,67.3c.02-.09.03-.17.04-.26,0,.09-.02.17-.04.26ZM84.65,66.96c.01-.06.02-.12.02-.18,0,.06-.01.12-.02.18ZM84.69,66.66c0-.05,0-.11,0-.17,0,.05,0,.11,0,.17ZM84.7,66.38c.01-.05.01-.1.01-.15,0,.05,0,.1-.01.15ZM84.58,64.05c-.02-.1-.03-.2-.05-.3.02.1.03.19.05.3ZM84.71,66.1c0-.05,0-.11,0-.16,0,.05,0,.1,0,.16ZM84.72,65.82c0-.05,0-.11,0-.17,0,.06,0,.12,0,.17ZM84.71,65.53c0-.06,0-.11,0-.16,0,.05,0,.1,0,.16ZM84.7,65.23c0-.05,0-.11,0-.17,0,.06,0,.11,0,.17ZM84.69,64.94c-.01-.06-.01-.12-.02-.18,0,.06,0,.12.02.18ZM84.65,64.65c0-.06-.01-.13-.02-.19,0,.07.02.13.02.19ZM84.62,64.35c-.02-.08-.02-.17-.03-.26.01.08.02.17.03.26ZM83.46,60.34c-.04-.07-.06-.14-.1-.21.04.07.06.14.1.21ZM84.51,63.67c-.01-.08-.03-.14-.04-.21.01.07.03.14.04.21ZM84.45,63.34c0-.07-.02-.13-.04-.19.02.06.03.12.04.19ZM84.39,63.03c-.01-.06-.04-.12-.05-.18.01.06.03.12.05.18ZM84.31,62.73c-.01-.06-.03-.11-.04-.17,0,.06.03.11.04.17ZM84.23,62.43c-.01-.06-.03-.12-.05-.17.02.06.04.11.05.17ZM84.14,62.13c0-.06-.03-.11-.05-.17.01.06.04.11.05.17ZM84.05,61.83c-.03-.05-.04-.11-.06-.17.02.06.03.12.06.17ZM83.95,61.54c-.02-.07-.04-.12-.06-.18.03.06.05.11.06.18ZM83.85,61.25c-.03-.06-.05-.12-.08-.18.03.06.05.12.08.18ZM83.73,60.97c-.03-.08-.06-.16-.09-.23.04.07.06.15.09.23ZM83.62,60.68c-.04-.09-.08-.19-.13-.28.05.09.09.19.13.28ZM82.71,58.98s-.06-.1-.1-.14c.04.05.07.09.1.14ZM83.31,60.03c-.03-.06-.06-.12-.09-.17.03.05.06.11.09.17ZM83.17,59.75c-.03-.05-.06-.1-.09-.15.02.05.06.1.09.15ZM83.02,59.48c-.03-.05-.06-.1-.08-.15.03.05.06.1.08.15ZM82.87,59.23c-.03-.05-.06-.1-.09-.15.03.05.06.09.09.15ZM83.92,67.06c-.92,5.65,1.84,10,4.53,14.19l.07.11c.47.76,1.08,2.14,1.21,2.59.15.44.22,1.74.17,2.31-.06.57-.97,2.51-1.18,2.85-.22.36-.76.98-1.14,1.3-.08.08-3.64,6.02-20.26,4.49-1.38-.42-1.68-1.47-1.78-1.81-.11-.34-2.11-1.24-2.56-1.3-.46-.06-.39-.42-.05-.53.34-.1-.33-.43-.72-.59-1.68-.68-.82-1.79-.34-1.61.48.19,2.2.78,2.81.86.59.08.17-.3-.07-.39-.25-.09-1.63-.47-2.02-.68-1.56-.8.1-1.73.7-1.65.23.03,1.87.43,2.44.6.57.17.29-.14-.23-.32-.53-.18-.76-.27-1.39-.48-.62-.2,0-.26.17-.3.17-.03,1.31.3,1.22.1-.13-.29-.95-.5-1.77-.84-.9-.36-4-3.83.74-2.53.45.13.54-.46.34-.56-.2-.1-2.72-1.13-3.14-1.24-1.22-.34-1.29-1.66-1.05-1.57.24.09,2.42.97,2.74.95.31,0,.33-.46.04-.59-.3-.13-2.15-.82-2.48-.9-.33-.08-.76-.31-.65-.5.09-.2-.25-.15-.58-.5-.33-.35.08-.55.7-.35.62.21.32-.27.11-.41-.21-.15-.76-.45-1.1-.85-.37-.43-.5-1.31-.69-1.63-.2-.33.29-.1.66-.08.36.02.09-.24-.33-.34-.42-.11-.51-.36-.65-.65-.13-.29.67-.03,1.03-.05.36-.02.16-.12-.24-.32-.39-.21-.74-.41-.74-.63,0-.23.4.02.98-.04.46-.04.2-.34-.14-.45-.34-.12-.68-.08-1.03-.29-.35-.2-.18-.34-.23-.6-.05-.26.25-.29.65-.27.41.02.59-.09.54-.21-.12-.3-.81-.26-1.03-.26-.23,0-.51-.34-.31-.5.19-.17-.1-.56-.3-.67-.2-.09.26-.26.45-.25.19.02.23-.62-.48-.5-.75.12-.29-.58-.32-1.25-.03-.67.17-.57-.05-.84-.23-.27-1.06.68-.94.08.12-.61-.26-.76-.37-.83-.1-.07-.03-.4-.18-.51-.16-.11-2.14-.65-2.67-.87-.54-.22.06-1.14,1.2-.83.46.12,1.02.23,1.06-.11.02-.22-.37-.25-1.23-.59-.87-.33-.62-1.12.33-1.07.4.02.59-.18.48-.34-.12-.16-.55-.1-.88-.27-.56-.29-1.14-2.03.35-1.83.29.04.44-.29.02-.4-.42-.1-.43-.14-.71-.23-.29-.08.06-1.4.37-1.46.31-.05.62.17.95.28.34.12.38-.16.08-.33-.3-.17-.56-.35-.8-.49-.25-.13.06-.22.25-.39.2-.16.72.17,1.17.32.44.15.5-.32.05-.57-.26-.14-1.11-.33-1.1-.55,0-.23.03-.82.3-.82.27,0,1.13.23,1.13.23,0,0,.45-.44,0-.57-.23-.07-.29.04-1.03-.31-.61-.29-.02-.96.31-.9.21.04,1.17.36,1.75.25.6-.11.43-.51,0-.65-.43-.15-1.59-.4-1.98-.6-.39-.2.34-1.43.86-1.6.55-.17,1.97-1.31,3.28.43.24.32.93.59,1.18.77.26.17,1.22.77,1.41,1.09.18.33.67.26,1.21.01.28-.13-.23-.87-.95-1.71-.4-.13-.81-.28-.94-.39-.29-.23-1.24-1.52-1.09-1.79h0c-.36-.36-.59-.58-.59-.58l-.8-.69c2.38-.42,5.12-.1,8.3.92,0,0,4.88,5.42,4.95,5.54.07.11.83.36,1.03.19.2-.15-.06-1.05-.47-1.05-.4,0-.84-1.37-1.11-1.66-.25-.28-2.09-2.37-2.35-2.71-.26-.34.2-.34.38-.11.19.21.8.75.98.63.18-.11-.07-.24-.42-.66-.35-.42.27-.05.31-.28,0-.02,0-.03,0-.04,1.61.21,3.29.87,4.91,1.95,2.38,1.58,4.37,3.88,5.31,6.14l.04.09.08.06c2.62,2.14,3.85,6.79,3.36,9.79ZM84.75,59.01c0,.09,0,.18.01.26-.2-.11-.4-.22-.6-.33-.17-.57-1.08-1.63-1.27-1.79-.21-.17.18-.51.77-.07.58.43,1.08,1.55,1.09,1.93ZM82.99,49.91c-.45,0-.85.42-.73.79.13.36.06,1.13.01,1.43-.03.31.38.92.58,1.04.2.11.39.83.16.93-.22.1-.54.15-.43.46.12.31-.14.74-.26.56-.12-.19-.19-.42-.32-.81-.14-.4-.43-.52-.29-.13.13.4.17.66.3,1.05.13.4-.19.58-.32.09-.11-.48-.52-.93-.59-1.3-.07-.38-.31-.25-.21.13.09.37-.2.58-.35.09-.14-.48-.63-1.89-.76-2.29-.13-.4-.45-.35-.36-.15.09.19.14.57.16.75.03.17-.27.47-.34.09-.08-.38-.31-.84-.36-1.14-.05-.29-.62-.63-.47-.27.16.36.1.58.11,1,.02.42-.25.11-.31-.09-.06-.2-.22-.56-.29-.82-.07-.26-.36-.5-.32-.27.04.23.08.46-.1.41-.19-.06-.22-.41-.29-.64-.07-.23-.34-.9-.46-1.24-.12-.34-.5-.42-.37-.21.13.22.17.81.25,1.1.07.28-.39.16-.46-.04-.06-.2-.53-1.19-.67-1.44-.14-.24-.4-.07-.25.14.16.21.3.7.39.98.09.28-.39-.18-.5-.3-.11-.13-.46-.76-.57-1.04-.11-.28-.5-.24-.33,0,.16.25.11.31.23.65.12.34-.42-.05-.51-.18-.08-.14-.56-1.01-.64-1.24-.06-.23-.45-.01-.25.26.2.26.12.49.22.71.1.22-.55-.17-.64-.36-.09-.19-.51-.88-.74-1.31-.22-.43-.29.03-.2.22.09.2.3.54.35.84.05.29-.25.13-.33,0-.08-.14-.33-.72-.43-.91-.1-.2-.63-.37-.27.32.36.68.1.58-.11.59-.21,0-.46-.25-.46-.25,0,0-.17-.45-.26-.76-.08-.32-.33-.18-.25-.05.09.13.02.41.07.7.05.3-.31.09-.34-.05-.03-.15-.29-.64-.38-.75-.08-.11-.35-.11-.23.01.11.13.14.33.16.6.02.27-.04.28-.15.15-.11-.13-.39-.35-.59-.64-.2-.29-.57.16-.74.19-.18.03-.67-.57-.78-.67-.11-.1-.3,0-.21.16.09.17.42.44.32.63-.08.2.04.56-.29.59-.32.03-.7-.6-1.06-.62-.37-.03-.81.02-.94.29,0,0-.01,0-.01.01-.36-.08-.71-.14-1.06-.19-.33-.13-.64-.26-.78-.3-.23-.06-.21-.14-.12-.35,6.29-3.01,15.32-3.25,22.84,2.82-.07.02-.16.04-.23.05-.19-.14-.7-.17-.92-.19-.25-.02-1.07.22-1.52.21ZM86.02,51.18c-.24.17-.43.39-.57.66-.22.45-.28,1.02-.16,1.68.08.4.2.83.39,1.3.28.7.47,1.31.56,1.84.08.44.09.82.04,1.13-.03.21-.03.4,0,.57.07.42.3.76.51,1.08.22.32.52.79.65,1.06.02.04.03.06.04.09,0,.04,0,.06,0,.08-.02,0-.27-.05-.41-.13-.31-.17-.82-.73-1.2-1.35-.14-.26-.23-.51-.28-.79-.02-.12,0-.57.04-.66.3-.84-.62-2.65-.79-2.92-.11-.17-.4-.6-.57-.96-.04-.16-.4-1.34.17-1.96.24-.26.85-.67,1.19-.85.28-.16.39-.06.4.15Z" />
                    <path class="cls-5"
                        d="M67.8,49.22s-.02-.03-.03-.03c-.04-.05-.25-.16-.57-.3-.8-.4-1.66-.72-2.55-.94-.39-.13-.72-.22-.86-.24-.17-.02-.48-.05-.87-.09-.36-.05-.71-.08-1.07-.09-.75-.06-1.54-.09-2-.03-.2.02-.48.09-.79.18-1.34.21-2.62.62-3.73,1.25-.02,0-.03.02-.05.02-.64.37-1.22.8-1.73,1.31-.49.49-1.06.71-1.52.87-3.03,1.08-5.95,3.1-7.33,6.58-.08.21.12.32.22.16,1.84-3.03,4.89-4.88,7.37-5.62.73-.21,1.09.3,1.14.83.12,1.15.2,2.12,0,2.78-.19.67-.49,1.3-.73,1.93-.25.63-.41,1.55-.32,2.39.19,1.72.55,3.93-.66,6.05-.17.3.04.47.31.21,1.5-1.44,1.55-3.7,1.38-5.91-.06-.88.13-1.67.4-2.17.83-1.55,1.26-2.61,1.18-3.91-.05-.75-.06-1.56-.13-2.22-.08-.66.14-1.12.5-1.48.5-.5,1.57-1.13,2.44-1.29.61-.11.95.23,1.23.69,1.26,2.02,2.8,3,5.23,3.93.96.37,1.16.96,1.04,1.84-.12.87-.21,1.81-1.1,2.62-1.55,1.4-2.51,2.82-2.96,4.34-.17.57-.66,1.23-1.45,1.43-2.89.73-4.61,2.81-3.69,5.21.77,2,1.11,2.79,1.48,4.38.37,1.6,1.05,4.04,1.63,5.65.89,2.49,1.96,4.67,2.83,5.84.23.32.48.1.3-.24-1.19-2.22-2.37-5.6-2.85-7.54-.06-.26.09-.56.41-.52.96.1,3.36.71,5.12,1.52.29.14.46-.17.16-.34-1.69-.97-4.25-1.94-5.56-2.2-.35-.07-.53-.48-.63-.92-.38-1.71-.74-3.75-1.57-5.83-.51-1.27-.05-2.08.78-2.75.51-.41,1.71-.81,2.2-.79.14,0,.26.03.36.09.07.08.15.16.23.22.08.11.12.22.16.37.3,1.16,1,2.56,1.83,3.49.84.93,1.26,1.71,1.48,2.52.13.47.42.42.39-.07-.05-.8-.47-1.94-1.18-2.9-.72-.95-1.34-2.23-1.52-3.19-.17-.96-.02-1.74.21-2.6.47-1.7,1.72-3.27,2.79-4.08,1.08-.82,1.85-2.27,1.71-4.03-.04-.45.51-.72.79-.14.87,1.79,2.06,3.27,3.37,4.1,3.25,2.07,3.39,5.13.69,6.89-3.55,2.3-3.46,5.42-1.89,8.31.71,1.31,1.19,1.94,1.65,2.58.47.63.53,1.38.19,2.07-1.02,2.04-.98,4.17.1,5.67.8,1.12,1.31,2.05,1.54,2.6.21.5.54.39.4-.07-.3-1.03-.95-2.16-1.35-2.88-.62-1.15-.43-3.17-.06-4.06.3-.71.56-1.24.74-1.63.16-.39.54-.6.85-.26.75.82,1.34,2.15,1.73,2.98.39.83,1,1.19,1.58,1.46,1.31.6,2.6,1.51,2.99,2.7.13.39.42.23.35-.06-.32-1.51-1.41-2.21-2.78-3.17-.82-.57-1.18-.87-1.49-1.65-.65-1.63-.96-3.08-2.23-3.81-.8-.46-1.34-.57-1.83-1.18-1.38-1.73-2.12-3.52-2.02-4.97.11-1.45,1.19-2.75,2.54-3.62,1.56-1,2.51-2.55,2.43-4.21-.03-.48.42-.67.86-.57,1.62.37,3.48,1.41,3.98,4.21.08.46.51.33.46-.08-.15-1.47-.55-3.84-3.23-4.94-.26-.17-.51-.29-.67-.28-.05,0-.11,0-.17,0-.19-.05-.39-.09-.6-.14-.49-.08-1-.08-1.32-.66-.71-1.31-1.74-2.09-2.75-2.69-1-.6-1.77-1.79-2.47-3.04-.7-1.25-1.36-2.16-2.74-2.28-2.35-.18-4.37-1.1-5.74-2.95-.23-.32-.07-.77.46-.74,3.42.19,5.48.86,7.37,2.55,1.33,1.18,2.2,2.4,3.07,3.64,1.45,2.08,3.53,2.45,5.86,2.44,2.5,0,4.15.96,5.37,4.16.91,2.4,1.06,4.55-.1,6.27-1.12,1.66-1.37,3.61-.95,5.38.27,1.09.14,1.71.38,2.81.25,1.1.95,2.28,2,3.41.72.77.97,1.4,1.19,2.34.23.94.54,1.8,1.22,2.55.2.21.5.03.28-.27-.22-.29-.71-1.18-.82-2.46-.12-1.28-.71-2.16-1.12-2.63-.41-.47-.77-.95-1.08-1.82-.22-.61.29-.82.79-.46,1.8,1.28,3.87,3.47,4.58,6.25.11.41.41.36.38-.01-.19-2.39-1.97-5.31-4.13-7.1-.9-.75-2.09-1.69-2.43-3.32-.34-1.62.2-2.86,1.07-4.37.88-1.51.93-4.02-.11-7.15-.83-2.5-2.04-3.74-3.27-4.36h0c-.04-.05-.13-.09-.24-.13-1.08-.47-2.15-.51-2.99-.57-1.87-.1-3.42-.26-4.61-1.79-.49-.63-1.54-2.28-3.31-3.92" />
                    <path class="cls-1"
                        d="M59.82,47.33l-.82.18c-1.38.21-2.65.64-3.76,1.27-.02,0,0,0,0,0h-.02s-.02.02-.02.02c-.67.39-1.26.84-1.77,1.34-.45.45-.97.65-1.46.83-2.54.91-5.9,2.8-7.43,6.68-.08.2,0,.38.13.44.14.07.31.02.39-.13,1.57-2.58,4.29-4.65,7.27-5.54.24-.07.44-.05.59.05.18.11.29.35.32.63.12,1.16.19,2.09,0,2.72-.13.46-.32.92-.5,1.36l-.23.56c-.23.57-.43,1.52-.33,2.47,0,0,.04.36.04.36.19,1.63.42,3.66-.68,5.59-.15.26-.08.45.03.53.11.09.32.11.55-.11,1.55-1.48,1.6-3.78,1.43-6.05-.06-.77.09-1.54.38-2.07.86-1.61,1.28-2.67,1.2-4,0,0-.04-.88-.04-.88l-.08-1.35c-.06-.54.08-.97.45-1.34.48-.48,1.52-1.09,2.35-1.24.51-.09.78.16,1.06.6,1.33,2.15,2.78,3.29,5.07,4.17.8.31,1.08.62.96,1.52v.1c-.12.83-.19,1.62-1,2.36-1.56,1.4-2.55,2.87-3.01,4.45-.15.48-.51,1.03-1.26,1.22-1.73.44-2.98,1.45-3.59,2.64-.46.89-.5,1.88-.12,2.88l.28.71c.58,1.52.87,2.27,1.2,3.65.36,1.56,1.04,4,1.63,5.67.87,2.46,1.94,4.66,2.85,5.88.19.26.4.26.52.18.14-.09.22-.31.07-.6-1.14-2.13-2.34-5.49-2.83-7.5-.02-.09,0-.19.05-.25.04-.05.1-.06.17-.06.96.1,3.35.72,5.06,1.51.24.11.45.02.53-.14.08-.15.04-.37-.21-.51-1.78-1.02-4.34-1.97-5.61-2.23-.28-.06-.42-.46-.49-.79l-.19-.85c-.33-1.52-.69-3.24-1.39-5.01-.42-1.03-.19-1.82.73-2.54.49-.39,1.64-.78,2.09-.76.11,0,.19.03.27.07.04.04.15.14.19.17.06.08.1.18.13.3.32,1.25,1.05,2.66,1.87,3.56.77.86,1.22,1.61,1.44,2.46.13.47.38.46.45.45.07-.01.31-.09.28-.57-.06-.89-.53-2.07-1.21-2.99-.72-.97-1.32-2.22-1.49-3.12-.15-.88-.03-1.62.21-2.52.46-1.67,1.7-3.21,2.73-3.99,1.24-.94,1.9-2.51,1.78-4.18-.01-.15.07-.25.16-.28.11-.03.11.05.19.21.9,1.86,1.82,3.4,3.14,4.24,1.61,1.02,2.67,2.22,2.68,3.56,0,1.13-.41,2.22-1.59,2.99-4.02,2.61-3.28,6.09-1.95,8.54.69,1.27,1.16,1.91,1.62,2.53l.05.07c.43.57.49,1.24.17,1.89-1.05,2.1-1.01,4.29.12,5.85.68.96,1.25,1.92,1.52,2.57.17.4.41.47.56.42.15-.05.28-.24.17-.6-.27-.94-.82-1.93-1.23-2.67l-.14-.24c-.58-1.08-.42-3.04-.05-3.92l.52-1.14.22-.48c.07-.18.2-.32.32-.33.08-.02.16.02.24.11.69.75,1.25,1.98,1.62,2.78l.08.15c.4.87,1.04,1.25,1.66,1.54,1.1.51,2.5,1.38,2.9,2.6.11.31.31.38.45.34.18-.05.29-.26.24-.49-.33-1.51-1.38-2.24-2.7-3.17l-.15-.1c-.83-.57-1.14-.84-1.43-1.57,0,0-.33-.85-.33-.85-.47-1.29-.89-2.41-1.98-3.04l-.66-.34c-.47-.23-.8-.4-1.12-.79-1.37-1.72-2.08-3.44-1.98-4.86.09-1.27.99-2.54,2.46-3.48,1.65-1.06,2.59-2.69,2.51-4.36,0-.14.03-.24.12-.31.12-.1.32-.14.53-.09,2.16.5,3.46,1.87,3.85,4.07.06.34.27.46.46.43.19-.03.38-.23.35-.56-.13-1.16-.42-3.88-3.33-5.08-.32-.2-.56-.3-.74-.3,0,0-.12,0-.15,0-.05-.01-.57-.13-.57-.13,0,0-.21-.03-.21-.03-.41-.06-.76-.12-.99-.54-.76-1.41-1.91-2.21-2.82-2.75-.98-.59-1.74-1.78-2.41-2.98-.68-1.22-1.37-2.24-2.87-2.36-2.44-.18-4.34-1.15-5.62-2.88-.04-.06-.07-.13-.07-.2,0-.04,0-.08.03-.12.06-.11.18-.16.35-.15,3.45.19,5.42.87,7.26,2.5,1.33,1.18,2.2,2.42,3.04,3.61,1.56,2.22,3.81,2.52,6.01,2.51,2.2,0,3.92.68,5.21,4.05.98,2.58.95,4.58-.09,6.11-1.09,1.62-1.44,3.58-.97,5.52.13.55.16.97.2,1.42.03.42.06.85.19,1.39.26,1.12.96,2.33,2.04,3.49.71.76.94,1.36,1.15,2.26.2.84.5,1.8,1.26,2.63.16.17.39.19.54.07.12-.11.18-.32.01-.55-.03-.04-.65-.89-.79-2.38-.12-1.29-.69-2.19-1.16-2.72-.37-.43-.73-.89-1.05-1.76-.06-.17-.05-.31.02-.37.08-.06.29-.05.5.1,1.08.77,3.68,2.92,4.51,6.15.09.35.29.44.44.42.15-.03.3-.18.28-.48-.19-2.37-1.91-5.34-4.2-7.22h0l-.1-.08c-.87-.73-1.96-1.63-2.27-3.14-.07-.33-.1-.63-.1-.94,0-1.09.43-2.06,1.15-3.32.46-.8.69-1.81.69-2.99,0-1.27-.26-2.72-.79-4.3-.74-2.22-1.83-3.66-3.32-4.43-.01,0-.15-.37-.15-.37-1.03-.46-2.22-.7-3.05-.74h-.13c-1.92-.12-3.37.08-4.49-1.35l-.35-.48c-.58-.8-1.54-2.14-2.97-3.46-.52-.5-1.15-.96-1.85-1.36-.06-.08-.17-.14-.64-.34-.78-.39-1.65-.72-2.58-.96-.29-.09-.69-.21-.89-.24h0s-.87-.1-.87-.1c0,0-1.08-.09-1.08-.09-.97-.07-1.63-.08-2.02-.03ZM55.42,49.07c1.07-.6,2.3-1.02,3.66-1.22.02,0,.79-.18.79-.18.37-.05,1.02-.03,1.96.04,0,0,1.07.09,1.07.09,0,0,.87.1.87.1.13.01.43.1.83.23.91.24,1.76.55,2.53.93.12.05.46.2.52.25h0s.05.04.05.04l-.03-.02h0s.05.05.05.05c.68.4,1.28.84,1.8,1.33,1.4,1.31,2.36,2.62,2.93,3.41l.36.49c1.21,1.55,2.73,1.75,4.74,1.86h.13c.8.06,1.8.11,2.8.55.02,0,.18.08.18.08l.05.04c1.42.72,2.47,2.11,3.19,4.26.51,1.52.76,2.95.76,4.19,0,1.12-.21,2.09-.64,2.82-.75,1.31-1.2,2.33-1.2,3.47,0,.33.04.67.11,1.02.34,1.62,1.47,2.57,2.39,3.34l.1.08c2.22,1.83,3.89,4.7,4.07,6.98v.03s0,.01,0,.03c-.02-.03-.03-.06-.04-.11-.86-3.34-3.53-5.55-4.64-6.34-.32-.23-.68-.27-.91-.09-.07.05-.2.18-.2.43,0,.09.02.2.06.33.34.92.74,1.43,1.12,1.87.43.49.97,1.33,1.07,2.53.11,1.27.59,2.2.85,2.55.03.04.03.06.03.08-.01,0-.03,0-.05-.03-.7-.77-.98-1.69-1.17-2.48-.22-.94-.48-1.6-1.24-2.42-1.03-1.11-1.71-2.26-1.95-3.32-.12-.52-.15-.94-.18-1.34-.03-.44-.07-.89-.21-1.47-.13-.53-.19-1.07-.19-1.6,0-1.3.38-2.55,1.11-3.65.57-.85.86-1.82.86-2.94,0-1.03-.25-2.19-.73-3.49-1.17-3.04-2.77-4.28-5.54-4.27-2.11,0-4.26-.27-5.72-2.37-.85-1.21-1.73-2.46-3.1-3.67-1.88-1.67-3.98-2.39-7.47-2.59-.31-.02-.55.1-.68.32-.05.09-.07.19-.07.29,0,.14.05.28.14.4,1.33,1.79,3.36,2.83,5.87,3.02,1.33.11,1.96,1.06,2.6,2.19.7,1.24,1.49,2.48,2.53,3.11.93.55,1.97,1.29,2.69,2.62.32.57.81.65,1.25.71l.19.03.61.14h.21s.19,0,.56.24c2.43,1,2.96,2.99,3.15,4.81,0,.02,0,.03,0,.04,0,.1-.04.14-.06.14,0,0-.05-.04-.07-.15-.52-2.94-2.52-3.99-4.11-4.35-.31-.08-.62-.02-.83.16-.16.13-.24.32-.24.54v.05c0,.06,0,.13,0,.19,0,1.48-.87,2.92-2.36,3.87-1.57,1.01-2.52,2.37-2.62,3.75,0,.09,0,.19,0,.28,0,1.45.73,3.14,2.07,4.81.36.46.77.66,1.24.89l.64.33c.99.56,1.38,1.63,1.83,2.85l.32.86c.32.81.7,1.14,1.55,1.73l.15.1c1.31.92,2.26,1.58,2.56,2.96,0,0,0,.01,0,.02,0-.02-.02-.02-.03-.05-.43-1.34-1.91-2.27-3.08-2.81-.53-.24-1.12-.57-1.49-1.37l-.07-.15c-.39-.83-.96-2.08-1.68-2.88-.16-.17-.36-.25-.55-.21-.24.04-.46.24-.58.53l-.22.47-.52,1.16c-.21.5-.36,1.31-.36,2.14,0,.75.12,1.51.42,2.07l.14.25c.4.72.94,1.7,1.2,2.6.02.05.02.1.02.13-.03-.03-.06-.09-.1-.18-.28-.67-.86-1.65-1.56-2.64-.54-.75-.81-1.66-.81-2.63,0-.92.24-1.9.72-2.86.16-.32.24-.65.24-.98,0-.44-.15-.88-.44-1.27l-.05-.07c-.45-.61-.91-1.24-1.59-2.49-1.26-2.33-1.97-5.62,1.83-8.08,1.28-.83,1.98-1.98,1.97-3.23,0-1.46-.95-2.86-2.66-3.95-1.27-.8-2.44-2.24-3.31-4.03-.19-.39-.49-.47-.7-.41-.24.07-.41.3-.41.58,0,.02,0,.04,0,.05,0,.12.01.25.01.37,0,1.41-.6,2.7-1.66,3.5-1.07.82-2.37,2.43-2.85,4.18-.18.65-.29,1.23-.29,1.83,0,.27.02.55.08.84.17.95.8,2.26,1.54,3.26.65.87,1.1,1.97,1.15,2.8,0,.02,0,.05,0,.06,0,.03,0,.05,0,.07-.02-.03-.03-.07-.05-.12-.24-.89-.71-1.7-1.52-2.59-.77-.86-1.49-2.23-1.79-3.42-.05-.17-.1-.31-.19-.42v-.02s-.04-.02-.04-.02l-.22-.21-.02-.02c-.13-.08-.28-.11-.44-.11-.51-.02-1.75.39-2.31.83-.71.57-1.07,1.18-1.07,1.89,0,.33.08.68.23,1.06.69,1.74,1.05,3.44,1.38,4.95l.19.85c.14.63.4.98.76,1.06,1.22.25,3.79,1.2,5.51,2.18.04.03.05.05.06.06-.01,0-.04,0-.06-.02-1.82-.84-4.21-1.44-5.18-1.54-.18-.02-.35.05-.46.18-.1.11-.15.25-.15.4,0,.05,0,.11.02.16.5,2.03,1.71,5.42,2.86,7.58.02.04.02.06.03.09-.01-.01-.02-.02-.03-.03-.9-1.2-1.94-3.36-2.81-5.8-.59-1.65-1.26-4.08-1.62-5.62-.33-1.4-.62-2.17-1.21-3.69l-.28-.72c-.16-.41-.24-.82-.24-1.22,0-.48.11-.95.34-1.38.57-1.1,1.83-1.97,3.47-2.39.89-.22,1.41-.97,1.57-1.54.45-1.51,1.41-2.91,2.91-4.27.9-.82,1.03-1.78,1.14-2.63l.02-.1c.02-.15.03-.29.03-.43,0-.8-.37-1.29-1.18-1.6-2.28-.87-3.85-1.78-5.14-3.85-.28-.45-.67-.9-1.41-.76-.91.16-2,.8-2.53,1.33-.38.38-.57.82-.57,1.35,0,.09,0,.18.02.27l.08,1.33.04.89c0,.1,0,.2,0,.29,0,1.12-.4,2.1-1.17,3.53-.28.5-.43,1.2-.43,1.91,0,.12,0,.23.02.35.04.51.06,1.03.06,1.54,0,1.64-.29,3.18-1.39,4.23-.03.03-.03.03-.05.04,0-.02,0-.02.01-.04.7-1.21.89-2.45.89-3.62,0-.77-.09-1.51-.16-2.18l-.04-.35c-.01-.15-.02-.3-.02-.46,0-.63.12-1.31.33-1.84l.22-.56c.19-.45.38-.91.51-1.39.09-.31.13-.67.13-1.09,0-.51-.05-1.1-.12-1.76-.04-.39-.21-.71-.47-.89-.17-.11-.46-.22-.89-.09-2.89.87-5.53,2.83-7.18,5.27,1.56-3.47,4.65-5.22,7.03-6.06.5-.18,1.08-.41,1.58-.91.48-.48,1.05-.91,1.69-1.29l-.04.02.1-.05ZM80.89,56.85h0s-.05-.03-.05-.03c.01,0,.03.02.04.03Z" />
                    <path class="cls-5"
                        d="M56.26,80.4c-.69-.22-1.03-.63-1.73-1.54-.1-.02-.26-.18-.52-.33-.47-.28-1.2-1.27-1.46-1.49-.25-.22-1.75-1.21-1.98-1.3-1.53-.54-1.98-2.05-2.35-2.61l-.03-.05h0c-.38-.6-.81-1.25-1.25-1.93h0c.06.11-.61-.94-.78-1.17,0,0,0,0,0-.02-.14-.21-.77-.59-.72-.33.05.26.33,1,.5,1.19.17.19.76,1.22.82,1.53.05.3.78,1.28.97,1.59h0c.53.89.98,1.67,1.26,2.25.44.92.6,1.29.81,2.21.26,1.16.79,2.81,1.31,3.7.1.16.18.21.21.2.03-.02.07-.13,0-.32-.5-1.44-.95-3.65-1.06-4.32-.06-.31-.02-.5.11-.59.15-.11.4-.05.76.15.86.51,1.83,1.37,2.65,2.37.44.55,1.21,1.23,2.31,1.42.17.03.27-.03.3-.1v-.04c-.02-.07.02-.43-.13-.48Z" />
                </g>
            </g>
        </g>
        <path class="cls-1"
            d="M65.6,102c-20.4,0-36.99-16.59-36.99-36.99s16.59-36.99,36.99-36.99,36.98,16.59,36.98,36.99-16.59,36.99-36.98,36.99ZM65.6,29.21c-19.74,0-35.81,16.06-35.81,35.81s16.06,35.8,35.81,35.8,35.8-16.06,35.8-35.8-16.06-35.81-35.8-35.81Z" />
        <g>
            <path class="cls-1"
                d="M129.59,28.02h3.11l8.41,19.24h-3.55l-1.94-4.61h-9.04l-1.96,4.61h-3.44l8.41-19.24ZM134.39,39.67l-3.3-7.64-3.28,7.64h6.58Z" />
            <path class="cls-1"
                d="M144.66,28.15h3.58l5.81,9.04,5.81-9.04h3.58v19.11h-3.36v-13.7l-6.03,9.01h-.11l-5.98-8.95v13.65h-3.3v-19.11Z" />
            <path class="cls-1"
                d="M168.63,28.15h14.17v3h-10.81v4.97h9.58v3h-9.58v5.13h10.95v3h-14.3v-19.11Z" />
            <path class="cls-1"
                d="M187.19,28.15h8.52c2.4,0,4.29.71,5.51,1.91,1.01,1.04,1.58,2.46,1.58,4.12v.05c0,3.14-1.88,5.02-4.53,5.79l5.16,7.23h-3.99l-4.7-6.66h-4.2v6.66h-3.36v-19.11ZM195.46,37.63c2.4,0,3.93-1.26,3.93-3.19v-.05c0-2.05-1.47-3.17-3.96-3.17h-4.89v6.41h4.91Z" />
            <path class="cls-1" d="M207.39,28.15h3.36v19.11h-3.36v-19.11Z" />
            <path class="cls-1"
                d="M215.28,37.76v-.05c0-5.43,4.07-9.88,9.85-9.88,3.52,0,5.65,1.23,7.48,2.98l-2.16,2.48c-1.53-1.42-3.17-2.37-5.35-2.37-3.63,0-6.3,3-6.3,6.74v.05c0,3.74,2.65,6.77,6.3,6.77,2.35,0,3.85-.93,5.49-2.46l2.16,2.18c-1.99,2.07-4.18,3.38-7.75,3.38-5.57,0-9.72-4.34-9.72-9.83Z" />
            <path class="cls-1"
                d="M243.32,28.02h3.11l8.41,19.24h-3.55l-1.94-4.61h-9.04l-1.96,4.61h-3.44l8.41-19.24ZM248.12,39.67l-3.3-7.64-3.28,7.64h6.58Z" />
            <path class="cls-1"
                d="M258.38,28.15h3.11l10.24,13.21v-13.21h3.3v19.11h-2.81l-10.54-13.59v13.59h-3.3v-19.11Z" />
            <path class="cls-1"
                d="M121.97,65.06v-.05c0-5.43,4.07-9.88,9.85-9.88,3.52,0,5.65,1.23,7.48,2.98l-2.16,2.48c-1.53-1.42-3.17-2.37-5.35-2.37-3.63,0-6.3,3-6.3,6.74v.05c0,3.74,2.65,6.77,6.3,6.77,2.35,0,3.85-.93,5.49-2.46l2.16,2.18c-1.99,2.07-4.18,3.38-7.75,3.38-5.57,0-9.72-4.34-9.72-9.83Z" />
            <path class="cls-1"
                d="M141.85,65.06v-.05c0-5.38,4.15-9.88,10.02-9.88s9.96,4.45,9.96,9.83v.05c0,5.38-4.15,9.88-10.02,9.88s-9.96-4.45-9.96-9.83ZM158.31,65.06v-.05c0-3.71-2.7-6.8-6.5-6.8s-6.44,3.03-6.44,6.74v.05c0,3.71,2.7,6.77,6.5,6.77s6.44-3,6.44-6.72Z" />
            <path class="cls-1" d="M166.17,55.45h3.36v16.05h10.05v3.06h-13.4v-19.11Z" />
            <path class="cls-1" d="M183.34,55.45h3.36v16.05h10.05v3.06h-13.4v-19.11Z" />
            <path class="cls-1"
                d="M200.51,55.45h14.17v3h-10.81v4.97h9.58v3h-9.58v5.13h10.95v3h-14.3v-19.11Z" />
            <path class="cls-1"
                d="M218.23,65.06v-.05c0-5.35,4.09-9.88,9.85-9.88,3.33,0,5.38.93,7.34,2.59l-2.13,2.54c-1.47-1.26-2.92-2.05-5.35-2.05-3.52,0-6.2,3.08-6.2,6.74v.05c0,3.93,2.59,6.82,6.5,6.82,1.8,0,3.44-.57,4.61-1.45v-3.58h-4.89v-2.92h8.13v8.02c-1.88,1.61-4.59,2.98-7.97,2.98-5.98,0-9.91-4.26-9.91-9.83Z" />
            <path class="cls-1"
                d="M240.75,55.45h14.17v3h-10.81v4.97h9.58v3h-9.58v5.13h10.95v3h-14.3v-19.11Z" />
            <path class="cls-1"
                d="M266.6,67.44v-.05c0-4.12,3.28-7.53,7.7-7.53s7.67,3.36,7.67,7.48v.05c0,4.09-3.28,7.51-7.72,7.51s-7.64-3.36-7.64-7.45ZM278.67,67.44v-.05c0-2.54-1.83-4.64-4.42-4.64s-4.34,2.07-4.34,4.59v.05c0,2.51,1.83,4.61,4.39,4.61s4.37-2.07,4.37-4.56Z" />
            <path class="cls-1"
                d="M286.34,62.99h-1.83v-2.76h1.83v-1.06c0-1.58.41-2.78,1.17-3.55.76-.76,1.83-1.15,3.25-1.15,1.15,0,1.94.16,2.68.38v2.78c-.66-.22-1.23-.35-1.94-.35-1.26,0-1.91.68-1.91,2.18v.79h3.82v2.73h-3.77v11.57h-3.3v-11.57Z" />
            <path class="cls-1"
                d="M121.97,92.36v-.05c0-5.43,4.07-9.88,9.85-9.88,3.52,0,5.65,1.23,7.48,2.98l-2.16,2.48c-1.53-1.42-3.17-2.37-5.35-2.37-3.63,0-6.3,3-6.3,6.74v.05c0,3.74,2.65,6.77,6.3,6.77,2.35,0,3.85-.93,5.49-2.46l2.16,2.18c-1.99,2.07-4.18,3.38-7.75,3.38-5.57,0-9.72-4.34-9.72-9.83Z" />
            <path class="cls-1"
                d="M150.01,82.62h3.11l8.41,19.24h-3.55l-1.94-4.61h-9.04l-1.96,4.61h-3.44l8.41-19.24ZM154.81,94.27l-3.3-7.64-3.28,7.64h6.58Z" />
            <path class="cls-1"
                d="M165.08,82.75h8.52c2.4,0,4.29.71,5.51,1.91,1.01,1.04,1.58,2.46,1.58,4.12v.05c0,3.14-1.88,5.02-4.53,5.79l5.16,7.23h-3.99l-4.7-6.66h-4.2v6.66h-3.36v-19.11ZM173.35,92.22c2.4,0,3.93-1.26,3.93-3.19v-.05c0-2.05-1.47-3.17-3.96-3.17h-4.89v6.41h4.91Z" />
            <path class="cls-1"
                d="M185.09,82.75h7.12c6.01,0,10.15,4.12,10.15,9.5v.05c0,5.38-4.15,9.55-10.15,9.55h-7.12v-19.11ZM188.44,85.81v12.99h3.77c4.01,0,6.63-2.7,6.63-6.44v-.05c0-3.74-2.62-6.5-6.63-6.5h-3.77Z" />
            <path class="cls-1" d="M206.9,82.75h3.36v19.11h-3.36v-19.11Z" />
            <path class="cls-1"
                d="M214.79,92.36v-.05c0-5.38,4.15-9.88,10.02-9.88s9.96,4.45,9.96,9.83v.05c0,5.38-4.15,9.88-10.02,9.88s-9.96-4.45-9.96-9.83ZM231.25,92.36v-.05c0-3.71-2.7-6.8-6.5-6.8s-6.44,3.03-6.44,6.74v.05c0,3.71,2.7,6.77,6.5,6.77s6.44-3,6.44-6.72Z" />
            <path class="cls-1" d="M239.11,82.75h3.36v16.05h10.05v3.06h-13.4v-19.11Z" />
            <path class="cls-1"
                d="M254.34,92.36v-.05c0-5.38,4.15-9.88,10.02-9.88s9.96,4.45,9.96,9.83v.05c0,5.38-4.15,9.88-10.02,9.88s-9.96-4.45-9.96-9.83ZM270.8,92.36v-.05c0-3.71-2.7-6.8-6.5-6.8s-6.44,3.03-6.44,6.74v.05c0,3.71,2.7,6.77,6.5,6.77s6.44-3,6.44-6.72Z" />
            <path class="cls-1"
                d="M277.82,92.36v-.05c0-5.35,4.09-9.88,9.85-9.88,3.33,0,5.38.93,7.34,2.59l-2.13,2.54c-1.47-1.26-2.92-2.05-5.35-2.05-3.52,0-6.2,3.08-6.2,6.74v.05c0,3.93,2.59,6.82,6.5,6.82,1.8,0,3.44-.57,4.61-1.45v-3.58h-4.89v-2.92h8.13v8.02c-1.88,1.61-4.59,2.98-7.97,2.98-5.98,0-9.91-4.26-9.91-9.83Z" />
            <path class="cls-1"
                d="M305.15,94.33l-7.59-11.57h3.98l5.32,8.43,5.4-8.43h3.85l-7.59,11.49v7.62h-3.38v-7.53Z" />
            <path class="cls-1"
                d="M312.48,98.32v-.02c0-2.06,1.67-3.79,3.77-3.79s3.77,1.71,3.77,3.77v.02c0,2.06-1.67,3.79-3.77,3.79s-3.77-1.71-3.77-3.77ZM319.59,98.29v-.02c0-1.84-1.43-3.36-3.34-3.36s-3.34,1.54-3.34,3.38v.02c0,1.84,1.43,3.36,3.34,3.36s3.34-1.54,3.34-3.38ZM314.69,96.26h1.84c.91,0,1.58.41,1.58,1.3,0,.63-.35,1.04-.87,1.21l1,1.41h-1.15l-.85-1.24h-.61v1.24h-.95v-3.92ZM316.47,98.16c.43,0,.67-.22.67-.54,0-.35-.26-.54-.67-.54h-.82v1.08h.82Z" />
        </g>
    </g>
    <g>
        <text class="cls-4" transform="translate(411.26 82.69)">
            <tspan class="cls-7" x="0" y="0">Ca</tspan>
            <tspan class="cls-8" x="51.06" y="0">r</tspan>
            <tspan class="cls-7" x="66.42" y="0">dioSmart360</tspan>
        </text>
        <path class="cls-6"
            d="M383.17,89.66c-.55-.03-.55-.04-1.54-1.93-1.58-3.01-5.77-11.02-8.29-13.48-3.72-3.65-7.55-7.4-9.04-13.69-2.45-10.39,2.23-20.97,11.15-25.14,1.17-.55,2.41-.98,3.68-1.28,11.01-2.6,22.26,5.03,25.09,17,1.4,5.93-.17,10.75-1.69,15.42l-.27.85c-1.96,6.07-1.43,13.83-1.26,16.38.07.98.08,1.4-.5,1.72-8.36,4.58-8.64,4.64-17.33,4.14M383.82,87.8c5.98.68,5.79,1.1,15.33-3.54l-.05-.33c-.18-2.64-.73-10.67,1.34-17.1l.28-.85c1.44-4.41,2.92-8.97,1.65-14.39-2.59-10.95-12.81-17.94-22.8-15.59-1.14.27-2.26.66-3.31,1.15-8.1,3.8-12.35,13.46-10.1,22.98,1.36,5.75,4.98,9.3,8.49,12.74,2.75,2.7,6.89,10.6,8.66,13.98.18.36.37.7.5.95" />
        <path class="cls-6"
            d="M384.8,70.18c-.5-.4-.99-.83-1.47-1.29-2.14-1.44-8.85-6.95-9.35-8.7-.65-2.31-.36-4.58.7-6.18.96-1.44,2.14-2.24,3.34-2.58.82-.23,1.63-.25,2.38-.15,1.13.14,2.12.54,2.84.9.15.08.3.16.43.23.18-.33.43-.72.74-1.14.38-.51.86-1.04,1.45-1.52.59-.47,1.29-.89,2.11-1.11,1.19-.34,2.62-.28,4.18.45,1.75.81,3.19,2.59,3.84,4.9.5,1.76.54,3.81-.03,6-.91,3.43-3.49,6.95-4.7,9.15-3.38,6.17-.04,16.04-.04,16.04l-1.89.36c-2.8-14.37-1.47-14.15-.08-16.79,0,0,4.29-6.31,5.1-9.38.5-1.88.44-3.56.05-4.93-.51-1.82-1.6-3.1-2.81-3.65-1.26-.58-2.26-.6-3.13-.36-.59.16-1.12.47-1.58.84-.69.56-1.23,1.27-1.59,1.84-.18.28-.31.53-.4.71l-.09.2-.02.05h0s0,0,0,0c-.09.23-.28.4-.51.46h-.02c-.22.07-.47.02-.67-.13-.04-.03-.71-.5-1.67-.87-.49-.19-1.05-.35-1.63-.42-.58-.07-1.18-.05-1.76.11-.86.25-1.7.79-2.48,1.94-.74,1.11-.99,2.77-.48,4.58.39,1.37,7.4,6.45,8.8,7.79.41.4.84.77,1.28,1.13l.09.07-.94,1.45Z" />
        <path class="cls-6"
            d="M392.64,87.31s-3.01,1.06-3.09.71c-3.03-14.89-2.27-16.13-.68-19.51l.03-.04c.04-.06,4.26-6.28,5.04-9.24.43-1.65.45-3.27.05-4.7-.44-1.57-1.4-2.83-2.57-3.37-1.03-.47-1.93-.58-2.82-.33-.49.14-.97.39-1.42.76-.68.55-1.19,1.24-1.49,1.73-.18.28-.31.52-.38.67l-.09.18-.02.05c-.15.36-.44.62-.8.72-.37.11-.76.03-1.08-.19,0,0-.65-.46-1.57-.81-.52-.2-1.04-.34-1.52-.4-.57-.07-1.1-.03-1.58.1-.89.26-1.59.91-2.23,1.76-.78,1.04-1.46,2.88-.21,4.32.98,1.13,3.85,3.74,5.81,5.3,1.18.94,4.31,3.63,4.31,3.63l-1.44,2.19s-10.07-8.28-11.22-10.05c-1.36-2.1-1.35-4.87.01-6.72,1.19-1.62,2.79-2.68,4.18-3.07.82-.23,1.68-.29,2.58-.17.97.12,1.97.44,2.98.94l.06.03c.17-.28.36-.55.55-.82.47-.62.98-1.16,1.53-1.6,1.97-1.59,4.38-1.83,6.77-.72,1.91.88,3.4,2.77,4.08,5.18.54,1.93.53,4.08-.04,6.23-.69,2.61-2.3,5.22-3.59,7.32-.43.7-.92,1.33-1.15,1.93-2.99,7.59.98,17.99.98,17.99" />
        <path class="cls-6"
            d="M397.21,91.77c-4.04,1.89-9.18,2.98-13.48,1.33-.63-.24-.94-.95-.7-1.57.24-.63.95-.94,1.57-.7,4.82,1.85,11.94-.58,15.77-3.9.51-.44,1.28-.38,1.72.13.44.51.39,1.28-.12,1.72-1.21,1.04-2.86,2.11-4.76,3" />
        <path class="cls-6"
            d="M397.84,95.54c-3.76,1.76-8.56,2.78-12.57,1.24-.63-.24-.94-.95-.7-1.58.24-.63.95-.94,1.57-.7,4.44,1.7,11-.54,14.54-3.6.51-.44,1.28-.39,1.72.13.44.51.39,1.28-.12,1.72-1.12.97-2.66,1.97-4.43,2.79" />
        <path class="cls-6"
            d="M398.34,99.32c-3.35,1.57-7.63,2.47-11.21,1.1-.63-.24-.94-.95-.7-1.57.24-.63.95-.94,1.57-.7,3.87,1.48,9.6-.48,12.69-3.15.51-.44,1.28-.38,1.72.12.44.51.39,1.28-.12,1.72-1,.86-2.37,1.75-3.94,2.48" />
    </g>
    <rect class="cls-2" width="753" height="130" />
</svg>