<svg width="17" height="14" viewBox="0 0 17 14" fill="none" xmlns="http://www.w3.org/2000/svg">
    <g clip-path="url(#clip0_3999_105)">
        <path
            d="M16.6377 6.82031C16.6377 6.54781 16.5234 6.28422 16.3212 6.09082L10.5468 0.316406C10.3183 0.0966859 10.081 0 9.83493 0C9.27243 0 8.86813 0.3955 8.86813 0.931641C8.86813 1.21289 8.98243 1.4502 9.15823 1.62598L11.1357 3.62988L13.6845 5.95898L11.6455 5.83588H0.993134C0.404263 5.83588 0 6.24021 0 6.82031C0 7.39161 0.404263 7.7959 0.993134 7.7959H11.6455L13.6845 7.67279L11.1357 10.0019L9.15823 12.0059C8.98243 12.1816 8.86813 12.4189 8.86813 12.7002C8.86813 13.2363 9.27243 13.6318 9.83493 13.6318C10.081 13.6318 10.3183 13.5352 10.5293 13.333L16.3212 7.54102C16.5234 7.34772 16.6377 7.08401 16.6377 6.82031Z"
            fill="#8E8E93" />
    </g>
    <defs>
        <clipPath id="clip0_3999_105">
            <rect width="16.6377" height="13.6318" fill="white" />
        </clipPath>
    </defs>
</svg>
