<svg width="24" height="28" viewBox="0 0 24 28" fill="none" xmlns="http://www.w3.org/2000/svg">
    <g clip-path="url(#clip0_4180_173)">
        <path
            d="M6.4251 27.4373H17.5871C19.4575 27.4373 20.6599 26.3077 20.757 24.4373L21.5709 6.94736H22.9069C23.5263 6.94736 24 6.46152 24 5.85423C24 5.24695 23.5141 4.78542 22.9069 4.78542H17.5141V2.96356C17.5141 1.09312 16.3239 0 14.2955 0H9.68016C7.65179 0 6.46153 1.09312 6.46153 2.96356V4.78542H1.09309C0.485808 4.78542 0 5.2591 0 5.85423C0 6.47366 0.485808 6.94736 1.09309 6.94736H2.42913L3.24291 24.4373C3.34007 26.3199 4.53036 27.4373 6.4251 27.4373ZM8.73272 3.07287C8.73272 2.45343 9.16995 2.05262 9.83797 2.05262H14.1377C14.8057 2.05262 15.2429 2.45343 15.2429 3.07287V4.78542H8.73272V3.07287ZM6.66801 25.2632C5.99999 25.2632 5.51416 24.7652 5.47772 24.0486L4.66395 6.94736H19.2995L18.51 24.0486C18.4859 24.7774 18.0122 25.2632 17.3198 25.2632H6.66801ZM8.41696 23.3077C8.93933 23.3077 9.26725 22.9798 9.25509 22.4939L8.89067 9.78948C8.87851 9.30364 8.53843 8.98786 8.04053 8.98786C7.53032 8.98786 7.20239 9.31578 7.21455 9.80156L7.57894 22.5061C7.5911 22.992 7.93122 23.3077 8.41696 23.3077ZM12 23.3077C12.51 23.3077 12.8623 22.992 12.8623 22.5061V9.80156C12.8623 9.31578 12.51 8.98786 12 8.98786C11.4899 8.98786 11.1498 9.31578 11.1498 9.80156V22.5061C11.1498 22.992 11.4899 23.3077 12 23.3077ZM15.583 23.3199C16.0688 23.3199 16.4088 22.992 16.421 22.5061L16.7854 9.80156C16.7976 9.31578 16.4697 9.00002 15.9595 9.00002C15.4616 9.00002 15.1214 9.31578 15.1093 9.80156L14.7449 22.5061C14.7327 22.9798 15.0607 23.3199 15.583 23.3199Z"
            fill="#8E8E93" />
    </g>
    <defs>
        <clipPath id="clip0_4180_173">
            <rect width="24" height="27.4373" fill="white" />
        </clipPath>
    </defs>
</svg>
