<svg width="24" height="21" viewBox="0 0 24 21" fill="none" xmlns="http://www.w3.org/2000/svg">
    <path
        d="M0 8.80383C0 12.6666 3.2476 16.4841 8.29536 19.7407C8.57584 19.9216 8.91961 20.1026 9.1548 20.1026C9.38998 20.1026 9.73376 19.9216 10.0142 19.7407C15.0711 16.4841 18.3096 12.6666 18.3096 8.80383C18.3096 5.46574 16.0028 3.1499 13.0447 3.1499C11.3169 3.1499 9.96895 3.93693 9.1548 5.13103C8.35877 3.94597 7.00179 3.1499 5.27396 3.1499C2.3068 3.1499 0 5.46574 0 8.80383ZM1.86353 8.7948C1.86353 6.51513 3.36521 4.9682 5.38255 4.9682C7.01084 4.9682 7.92452 5.95425 8.49442 6.81364C8.74772 7.18454 8.91961 7.30215 9.1548 7.30215C9.39904 7.30215 9.55281 7.17549 9.81517 6.81364C10.4304 5.97233 11.3078 4.9682 12.927 4.9682C14.9535 4.9682 16.4551 6.51513 16.4551 8.7948C16.4551 11.979 13.1442 15.5071 9.32668 18.04C9.24527 18.0943 9.19103 18.1305 9.1548 18.1305C9.11867 18.1305 9.06433 18.0943 8.99197 18.04C5.17443 15.5071 1.86353 11.979 1.86353 8.7948Z"
        fill="#8E8E93" />
    <path
        d="M22.644 3.09344L23.6215 2.12486C24.1058 1.64057 24.1237 1.11144 23.6843 0.663031L23.3346 0.304286C22.8951 -0.135167 22.348 -0.090297 21.8726 0.385024L20.8951 1.34464L22.644 3.09344ZM11.6578 14.0617L21.783 3.93644L20.0432 2.20557L9.91792 12.3129L9.03902 14.4293C8.94037 14.6984 9.21839 14.9944 9.48744 14.8958L11.6578 14.0617Z"
        fill="#8E8E93" />
</svg>
