<svg width="753" height="130" viewBox="0 0 753 130" fill="none" xmlns="http://www.w3.org/2000/svg">
    <path d="M348.16 26.52V103.48" stroke="#002D5B" stroke-width="1.55" />
    <path
        d="M113.94 65C113.94 91.64 92.3399 113.25 65.6899 113.25C39.0399 113.25 17.4399 91.65 17.4399 65C17.4399 38.35 39.0399 16.75 65.6899 16.75C92.3399 16.75 113.94 38.35 113.94 65Z"
        fill="white" />
    <path
        d="M111.24 65C111.24 90.16 90.8499 110.55 65.6899 110.55C40.5299 110.55 20.1399 90.16 20.1399 65C20.1399 39.84 40.5299 19.46 65.6899 19.46C90.8499 19.46 111.24 39.85 111.24 65Z"
        fill="white" />
    <path
        d="M65.6899 111.14C40.2499 111.14 19.5499 90.44 19.5499 65C19.5499 39.56 40.2499 18.87 65.6899 18.87C91.1299 18.87 111.83 39.57 111.83 65C111.83 90.43 91.1299 111.14 65.6899 111.14ZM65.6899 20.05C40.8999 20.05 20.7299 40.22 20.7299 65C20.7299 89.78 40.8999 109.96 65.6899 109.96C90.4799 109.96 110.65 89.79 110.65 65C110.65 40.21 90.4799 20.05 65.6899 20.05Z"
        fill="#002856" />
    <path
        d="M111.83 65.01C111.83 90.49 91.1699 111.15 65.6899 111.15C40.2099 111.15 19.5399 90.49 19.5399 65.01C19.5399 39.53 40.1999 18.87 65.6899 18.87C91.1799 18.87 111.83 39.53 111.83 65.01Z"
        fill="#002856" />
    <path
        d="M67.5799 66.16C67.0299 66.03 63.1999 64.44 63.1399 64.39C62.8399 64.15 63.0799 63.67 63.6699 63.91C63.8999 64 67.6099 65.43 67.9099 65.53C68.2999 65.65 68.3899 66.36 67.5799 66.17V66.16Z"
        fill="white" />
    <path
        d="M105.89 65C105.89 87.2 87.8899 105.19 65.6899 105.19C43.4899 105.19 25.4899 87.2 25.4899 65C25.4899 42.8 43.4899 24.79 65.6899 24.79C87.8899 24.79 105.89 42.78 105.89 65Z"
        fill="white" />
    <path
        d="M65.6899 105.78C43.1999 105.78 24.8899 87.48 24.8899 64.99C24.8899 42.5 43.1899 24.19 65.6899 24.19C88.1899 24.19 106.48 42.49 106.48 64.99C106.48 87.49 88.1799 105.78 65.6899 105.78ZM65.6899 25.38C43.8499 25.38 26.0799 43.15 26.0799 65C26.0799 86.85 43.8499 104.6 65.6899 104.6C87.5299 104.6 105.3 86.83 105.3 65C105.3 43.17 87.5299 25.38 65.6899 25.38Z"
        fill="#002856" />
    <path
        d="M101.99 65.01C101.99 85.11 85.6899 101.41 65.5999 101.41C45.5099 101.41 29.2 85.12 29.2 65.01C29.2 44.9 45.4999 28.61 65.5999 28.61C85.6999 28.61 101.99 44.9 101.99 65.01Z"
        fill="white" />
    <mask id="mask0_4177_87" style="mask-type:luminance" maskUnits="userSpaceOnUse" x="29" y="28"
        width="73" height="74">
        <path
            d="M101.99 65.01C101.99 85.11 85.6899 101.41 65.5999 101.41C45.5099 101.41 29.2 85.12 29.2 65.01C29.2 44.9 45.4999 28.61 65.5999 28.61C85.6999 28.61 101.99 44.9 101.99 65.01Z"
            fill="white" />
    </mask>
    <g mask="url(#mask0_4177_87)">
        <path
            d="M56.89 28.61C57.14 28.78 58.5 28.99 58.9 29.01C59.3 29.02 59.24 28.68 59.07 28.71C58.9 28.74 56.73 28.24 56.46 28.24C56.2 28.24 55.8 28.01 55.62 27.95C55.43 27.89 55.05 27.7 55.18 27.95L55.11 28.09C55.28 28.28 56.64 28.44 56.89 28.62V28.61Z"
            fill="#002856" />
        <path
            d="M84.31 90.38C84.62 90.2 84.76 89.86 84.43 89.96C84.1 90.05 82.36 90.64 82.03 90.48C81.78 90.36 81.27 90.77 81.68 90.79C82.09 90.81 84.01 90.56 84.31 90.38Z"
            fill="#002856" />
        <path
            d="M88.5 89.54C88.72 89.09 88.39 89.69 87.93 90.02C81.94 94.15 74.21 93.72 73.78 93.61C73.36 93.5 70.73 93.55 70.48 93.57C70.23 93.59 70.11 93.83 69.96 93.86C69.81 93.89 69.37 94.03 69.94 94.11C70.52 94.19 73.24 94 73.48 94.02C78.33 94.21 82.03 93.19 82.89 92.94C83.75 92.7 87.85 90.89 88.5 89.55V89.54Z"
            fill="#002856" />
        <path
            d="M62.16 50.89C62.08 50.59 62.42 50.64 62.76 50.49C63.11 50.34 64.38 51.12 64.88 51C65.39 50.88 66.44 50.91 67.09 51.38C67.73 51.86 69.1901 52.38 69.5101 52.42C69.8301 52.45 70.08 52.81 69.89 52.97C69.7 53.13 70.9601 54.49 71.0401 54.85C71.0901 55.21 71.75 55.87 72.2 56.79C72.67 57.73 74.56 58.28 74.85 58.36C75.14 58.43 75.3101 58.84 75.6101 58.79C75.9201 58.73 75.58 58.42 75.56 58.3C75.53 58.18 75.7401 58.23 75.9401 58.32C76.1401 58.41 76.35 58.68 76.39 58.55C76.42 58.41 76.49 58.41 76.75 58.51C77.02 58.62 77.05 58.8 77.21 58.83C77.37 58.86 77.32 58.75 77.17 58.56C77.01 58.37 77.23 58.18 77.43 58.3C77.64 58.42 78.0801 58.99 78.3601 58.97C78.6301 58.95 78.3301 58.64 78.2601 58.4C78.1801 58.16 78.5001 58.17 78.6601 58.4C78.8201 58.62 79.39 59.2 79.77 59.23C80.14 59.26 79.69 58.81 79.71 58.56C79.73 58.3 79.9101 58.46 80.1101 58.7C80.3001 58.95 81.27 60.34 81.49 60.21C81.72 60.08 82.91 62.26 83.17 63.24C83.44 64.22 83.7601 64.05 83.7201 63.89C82.3101 58.73 80.67 58.4 80.14 58.03C79.6 57.66 72.27 56.03 72.2 55.65C72.13 55.26 70.68 53.58 70.68 53.58C70.68 53.58 69.62 52.15 69.43 51.97C69.24 51.78 66.74 50.12 66.06 49.8C65.38 49.49 64.8201 49.46 63.6101 49.14C62.4101 48.83 62.37 48.77 61.78 48.63C61.2 48.48 60.43 49.43 60.3 49.7C60.85 50.25 61.67 51.11 62.34 51.88C62.77 52.01 63.1801 52.11 63.2401 52.1C63.3601 52.08 62.2401 51.19 62.1501 50.89H62.16Z"
            fill="#002856" />
        <path
            d="M71.41 86.85C71.01 86.82 70.83 86.8 70.49 86.75C70.15 86.7 69.98 87.02 70.24 87.13C70.5 87.24 70.99 87.31 71.29 87.26C71.59 87.21 71.82 86.87 71.41 86.85Z"
            fill="#002856" />
        <path
            d="M69.35 84.42C69.73 84.32 69.6 84.08 69.59 84C69.58 83.9 68.56 83.72 68.38 83.66C68.04 83.54 67.78 84.02 68.18 84.13C68.58 84.25 68.97 84.52 69.36 84.42H69.35Z"
            fill="#002856" />
        <path
            d="M70 85.61C69.62 85.57 69.13 85.39 68.86 85.35C68.49 85.29 68.3 85.7 68.59 85.77C68.89 85.85 69.64 86.05 69.8 86.03C69.95 86 70.22 85.64 70.01 85.62L70 85.61Z"
            fill="#002856" />
        <path
            d="M71.07 88.32C71.25 88.45 73.03 88.63 73.29 88.55C73.56 88.47 73.71 88.29 73.69 88.2C73.69 88.11 73.45 88.05 73.16 88.17C72.86 88.28 71.68 88.12 71.5 88.08C71.19 88 70.89 88.2 71.07 88.32Z"
            fill="#002856" />
        <path
            d="M71.31 89.7C71.49 89.83 73.27 90.01 73.53 89.93C73.8 89.85 73.95 89.67 73.93 89.58C73.93 89.49 73.69 89.43 73.4 89.55C73.1 89.67 71.93 89.51 71.74 89.46C71.43 89.39 71.13 89.58 71.31 89.7Z"
            fill="#002856" />
        <path
            d="M72.09 90.84C72.27 90.97 74.05 91.15 74.31 91.07C74.58 90.99 74.73 90.81 74.71 90.72C74.71 90.63 74.47 90.57 74.18 90.69C73.88 90.81 72.7 90.65 72.52 90.6C72.21 90.52 71.91 90.72 72.09 90.84Z"
            fill="#002856" />
        <path
            d="M87.39 50.18C82.59 45.89 77.05 44.25 71.92 44.37C72.08 43.5 72.23 42.44 72.36 41.28C72.97 41.32 74.22 41.34 75.04 41.37C75.45 41.39 75.85 41.17 75.75 40.94C75.65 40.72 75.23 39.78 74.61 39.65C74.28 39.57 73.27 39 72.62 38.79C72.83 36.4 72.99 33.79 73.04 31.47C73.14 26.42 70.3 22.48 65.86 22.32C65.08 22.29 64.74 21.81 64.91 20.87C65.2 19.34 65.85 17.38 66.34 15.83C66.6 15.02 66.13 14.25 65.36 14.38C64.83 14.47 64.33 14.51 63.86 14.4C63.4 14.3 62.81 14.66 62.81 14.66C62.19 14.9 61.93 15.48 61.78 15.9C61.64 16.33 60.65 18.8 60.49 19.18C60.34 19.56 60.19 21.22 59.84 20.76C59.6 20.44 59.41 20.38 59.29 20.25C59.09 18.59 58.96 16.94 58.82 16.19C58.63 15.14 57.62 14.92 56.96 15.74C56.67 16.1 56.41 16.46 56.08 16.8C55.72 17.17 55.29 17.25 54.79 17.14C54.29 17.04 53.82 17.23 53.47 17.61C53.11 18.01 52.43 18.14 51.96 17.85C51.63 17.64 51.3 17.42 50.92 17.35C50.54 17.29 50.3 17.51 50.34 17.82C50.52 19.5 50.78 21.24 50.91 22.68L51.05 25.53C51.05 26.79 51.02 28.03 50.94 28.86C50.83 30.01 50.78 31.09 50.86 31.86C50.92 32.43 50.83 32.82 50.69 33.29C50.33 34.5 50.13 35.61 50.16 37.18C50.2 38.75 50.18 41.13 50.1 43.27C50.04 45.4 49.73 49.19 49.84 52.36C49.85 52.36 49.86 52.35 49.88 52.34C49.4 52.62 48.95 52.93 48.51 53.26C48.56 53.23 48.59 53.2 48.63 53.16V53.13C48.34 49.95 48.73 46.01 48.1 42.41C47.8 40.7 46.13 40.73 45.6 42.31C45.43 42.83 45.32 43.16 45.14 43.62C44.88 44.26 44.52 44.54 43.78 44.67C42.87 44.83 41.83 45.12 41.17 45.4C40.83 45.55 40.64 45.91 40.69 46.44C40.83 47.73 41 50.81 41.2 54.86C40.74 55 40.31 55.26 39.98 55.65C39.19 56.56 38.92 57.78 39.44 59.48C40.18 61.91 40.05 63.12 39.44 64.64C38.25 67.64 38.91 71.88 41.3 74.87C41.35 74.93 41.39 74.98 41.43 75.02C41.64 75.25 41.87 75.38 42.11 75.45C42.11 75.45 42.09 75.44 42.08 75.44C42.43 84.45 42.71 92.88 42.79 96.31C42.78 96.78 43.08 97.32 43.62 97.74C44.41 98.34 45.37 97.88 45.82 97.35C46.26 96.82 46.84 97.16 46.87 97.93C46.9 98.59 47.43 99.03 47.78 99.34C48.1 99.62 48.57 99.96 48.99 100.29C49.68 100.84 50.39 100.66 50.42 100.15C50.39 96.45 50.18 90.58 49.96 86.65C49.9 86.58 49.84 86.51 49.78 86.43C52.57 89.81 56.15 92.52 60.42 94.03H60.41C61.29 97.46 62.36 103.94 62.4 104.1C62.51 104.82 63.23 105.5 64.53 105.6C65.33 105.66 66.14 105.23 66.84 105.11C67.55 104.99 68.16 105.25 68.74 105.58C69.7 106.13 71.2 106.22 72.2 105.73C72.82 105.43 72.99 104.94 72.88 104.5C72.88 104.52 72.89 104.53 72.89 104.55L71.07 95.79L71.39 95.76C72.36 95.93 73.35 95.9 74.34 95.66C78.05 95.75 81.5 95.13 84.32 93.88C86.99 92.7 89.01 91.02 90.14 89.01C91.05 87.42 91.35 85.72 91.05 84.04C90.87 83 90.45 81.97 89.81 80.98L89.74 80.87C87.78 77.83 85.91 74.91 85.31 71.53C85.07 70.17 85.29 68.69 85.56 67.14C85.74 66.01 85.7 64.74 85.48 63.47C85.21 61.91 84.64 60.34 83.87 59.03C83.87 59.03 85.86 59.94 87.49 60.79C88.11 61.1 88.45 60.64 88.22 60.15C88.09 59.88 87.83 59.47 87.54 59.04C87.24 58.59 87 58.21 87.09 57.68C87.23 56.89 87 55.81 86.47 54.5C85.63 52.44 86.13 51.39 87.17 51.11C87.61 50.99 87.67 50.5 87.36 50.22L87.39 50.18ZM72.63 104.65C72.63 104.65 72.61 104.59 72.61 104.57C72.61 104.59 72.62 104.62 72.63 104.65ZM71.22 44.18C70.16 44.22 67.11 44.61 66.08 44.79C66.01 44.41 66.3 42.44 66.69 42.29C67.1 42.26 69.52 41.88 69.89 41.88C70.6 41.86 71 41.73 71.56 41.74C71.46 42.66 71.34 43.48 71.22 44.19V44.18ZM53.12 39.05C53.3 39.03 53.5 38.97 54.09 39.09C54.68 39.2 54.3 38.83 54.12 38.78C53.93 38.72 53.5 38.65 53 38.59C51.62 38.44 51.94 37.66 52.38 37.66C52.82 37.66 54.14 37.77 54.63 37.81C55.12 37.86 54.93 37.56 54.59 37.44C54.27 37.32 53.2 37.24 52.75 37.13C51.29 36.76 51.64 36 52 36.07C52.36 36.14 53.65 36.27 54.06 36.37C54.48 36.47 54.45 35.98 54 35.89C53.55 35.79 52.23 35.5 52.04 35.44C51.85 35.39 51.47 34.67 52.53 34.64C53.02 34.62 54.68 34.93 55.17 34.97C55.67 35.02 55.59 34.85 55.25 34.65C54.91 34.45 53.15 34.16 52.63 33.99C52.11 33.82 51.67 33.29 52.47 33.36C53.28 33.44 54.07 33.6 54.75 33.71C55.43 33.81 55.17 33.39 54.81 33.33C54.44 33.26 52.95 32.84 52.44 32.71C51.93 32.58 51.84 32.04 52.16 32.11C52.49 32.19 54.52 32.66 55.06 32.74C55.61 32.82 55.63 32.47 55.07 32.3C54.51 32.13 52.62 31.63 52.01 31.47C51.41 31.31 51.53 30.98 51.94 31.04C52.34 31.1 54.51 31.51 55.15 31.62C55.79 31.73 55.32 31.19 54.95 31.08C54.57 30.97 52.58 30.66 52.19 30.43C51.79 30.19 51.78 29.88 52.18 30.08C52.57 30.27 53.6 30.14 53.4 30C53.2 29.86 52.92 29.55 53.24 29.59C53.55 29.62 53.99 29.85 54.36 29.92C54.72 29.99 54.7 29.86 54.3 29.62C53.91 29.38 53.14 29.29 52.76 29.18C52.39 29.07 52.16 28.54 52.52 28.61C52.89 28.68 53.88 29.03 54.53 29.18C55.17 29.33 54.94 28.98 54.48 28.92C54.03 28.87 53.05 28.38 52.24 28.03C51.43 27.69 51.85 27.52 52.34 27.57C52.84 27.62 53.48 27.99 53.72 28.08C53.96 28.17 54.29 28.07 53.78 27.89C53.26 27.72 52.66 27.34 52.24 27.24C51.83 27.14 51.77 26.79 52.3 26.83C52.84 26.87 53.88 27.26 54.44 27.38C54.99 27.51 55.28 27.15 54.64 27.04C54 26.93 52.61 26.34 52.38 26.29C52.16 26.24 52 25.87 52.31 25.9C52.63 25.94 53.52 26.22 53.79 26.26C54.07 26.31 54.33 26.08 53.66 26.02C52.98 25.96 52.75 25.65 52.18 25.44C51.62 25.23 52.06 24.98 52.37 25.01C52.69 25.04 53.48 25.3 53.99 25.43C54.49 25.56 54.25 25.21 53.76 25.12C53.26 25.03 52.25 24.59 51.85 24.35C51.46 24.11 51.48 24.02 51.94 24.07C52.39 24.12 53.06 24.4 53.66 24.56C54.26 24.72 54.43 24.39 54.01 24.28C53.59 24.18 52.25 23.58 52.01 23.49C51.78 23.4 51.56 23.17 51.87 23.2C52.19 23.23 52.89 23.46 53.27 23.61C53.65 23.77 54.12 23.41 53.64 23.23C53.17 23.05 52.14 22.74 51.67 22.56C51.19 22.38 51.42 22.16 51.73 22.15C52.03 22.15 53.21 22.55 53.65 22.56C54.1 22.57 54 22.28 53.55 22.27C53.1 22.27 51.91 21.72 51.6 21.47C51.28 21.21 51.46 21.23 51.82 21.25C52.18 21.27 52.6 21.42 52.87 21.46C53.14 21.5 53.46 21.31 52.87 21.23C52.29 21.16 52.11 20.92 51.7 20.82C51.28 20.71 51.37 20.44 51.54 20.41C51.71 20.38 51.99 20.46 52.18 20.52C52.37 20.57 53.32 20.45 52.63 20.35C51.95 20.25 52.09 20.05 51.7 19.85C51.31 19.65 51.04 19.65 51.34 19.56C51.63 19.46 51.84 19.61 52.38 19.68C52.92 19.76 53.35 19.95 53.26 19.66C53.16 19.37 52.84 19.56 51.64 19.24C50.43 18.92 50.82 18.85 50.99 18.56C51.11 18.35 51.39 18.47 51.62 18.41C52.23 18.72 53.05 18.57 53.53 18.05C53.68 17.88 54.01 17.61 54.45 17.71C55.12 17.85 55.66 17.71 56.09 17.26C56.35 17 56.56 16.72 56.77 16.45L57 16.17C57.22 15.9 57.48 15.78 57.7 15.84C57.92 15.89 58.08 16.11 58.14 16.45C58.22 16.87 58.29 17.61 58.39 18.47C58.49 19.44 58.6 20.55 58.75 21.6C58.88 22.49 59.38 22.59 59.54 22.6C59.92 22.62 60.25 22.33 60.38 21.86C60.38 21.84 60.38 21.81 60.4 21.79C60.51 21.83 60.7 21.63 60.65 21.51C60.59 21.36 60.79 21.07 60.88 20.99C60.99 20.91 61.13 20.61 61.07 20.43C61.01 20.25 61.23 19.82 61.43 19.45C61.59 19.16 61.46 18.89 61.36 18.61C61.46 18.31 61.55 18.04 61.64 17.76C61.72 17.86 61.84 17.78 62 17.88C62.19 18 62.66 17.56 62.67 17.35C62.68 17.13 63.06 16.26 63.18 16.03C63.27 15.84 63.47 15.35 63.48 14.99C64.06 15.11 64.63 15.04 65.07 14.96C65.24 14.92 65.39 14.97 65.49 15.09C65.56 15.17 65.61 15.28 65.63 15.41C65.66 15.56 65.65 15.73 65.59 15.89L65.43 16.4C64.96 17.89 64.42 19.59 64.17 20.98C64.1 21.3 64.1 21.58 64.14 21.82C64.19 22.05 64.27 22.25 64.4 22.42C64.64 22.72 65 22.88 65.48 22.9C68.89 23.04 71.39 25.59 72.06 29.35C72.19 30.07 72.24 30.85 72.23 31.65C72.18 33.84 72.04 36.38 71.82 38.85C71.52 38.81 71.22 38.79 70.91 38.8C70.37 38.82 69.86 38.76 69.4 38.63C67.99 38.24 66.91 38.22 66.11 38.58C66.11 38.58 66.08 38.6 66.06 38.6C66.13 37.69 66.15 36.76 66.14 35.96C66.2 35.94 66.29 35.98 66.36 35.96C66.55 35.93 66.6 36.16 66.6 36.41C66.6 36.64 66.61 37.83 66.66 38.1C66.71 38.37 66.95 38.15 66.92 37.97C66.89 37.8 66.94 37.52 66.93 37.05C66.93 36.57 66.88 35.15 66.83 34.74C66.79 34.39 66.83 33.92 66.73 33.58C66.63 33.24 66.4 33.48 66.43 33.73C66.46 33.98 66.41 34.32 66.45 34.73C66.5 35.07 66.33 34.89 66.09 34.87C66.07 34.57 66.03 34.29 66 34.01C65.96 33.54 65.89 33.1 65.82 32.69C65.56 31.24 65.16 30.1 64.61 29.32C64.39 29 64.09 28.81 63.79 28.79C63.75 28.46 63.44 28.5 63.34 28.48C63.23 28.46 63 28.16 63.02 28.05C63.05 27.94 63.36 27.73 62.89 27.57C62.42 27.41 62.45 27.54 62.32 27.67C62.19 27.8 61.59 27.8 61.91 27.99C62.23 28.17 62.81 28.45 62.72 28.56C62.63 28.66 62.59 28.8 62.37 28.73C62.16 28.66 61.61 28.53 61.4 28.48C61.19 28.43 61.01 28.64 61.26 28.72C61.52 28.81 62.17 28.65 62.36 28.84C62.43 28.91 62.79 28.82 62.59 29.96C62.47 30.2 60.51 33.43 60.55 33.47C60.43 33.63 57.9 36.26 57.93 36.43C57.67 36.68 57.39 36.94 57.1 37.2C56.6 37.65 54.04 40.36 53.59 41.03C53.44 40.96 53.17 40.86 52.86 40.74C51.48 40.2 51.9 39.16 53.09 39.06L53.12 39.05ZM53.44 42.92C54.41 40.87 56.04 39.23 57.66 37.78C60.87 34.9 62.26 32.66 63.59 29.76C63.65 29.63 63.72 29.58 63.76 29.57C63.8 29.57 64.28 30.22 64.34 30.35C64.26 30.4 64.7 31.28 64.55 31.42C64.4 31.56 64.21 31.34 63.95 31.23C63.69 31.12 63.61 31.46 63.86 31.66C64.12 31.86 64.65 32.21 64.76 32.34C64.87 32.45 64.98 32.94 64.72 32.88C64.47 32.81 63.86 32.34 63.52 32.05C63.18 31.75 63.02 32.28 63.22 32.4C63.42 32.52 64.32 33.42 64.63 33.59C64.93 33.75 64.72 34.01 64.77 34.41C63.58 35.72 62.76 37.2 62.27 38.91C62.24 39.04 62.22 39.17 62.25 39.28C62.28 39.45 62.37 39.61 62.51 39.71C62.74 39.89 63.06 39.89 63.34 39.73C63.99 39.34 64.9 39.2 65.32 39.43C65.74 39.66 66.14 39.48 66.46 39.34H66.48C67.09 39.05 68.02 39.08 69.23 39.42C69.77 39.57 70.36 39.64 70.97 39.62C71.28 39.62 71.57 39.63 71.85 39.67L72.95 39.98C73.22 40.1 73.49 40.25 73.72 40.43C73.66 40.56 73.61 40.64 73.46 40.68C73.14 40.77 70.99 41.04 70.99 41.05C70.84 41.08 70.69 41.1 70.53 41.13C70.17 40.79 69.26 40.22 69.14 40.02C69 39.81 68.7 40.05 68.88 40.22C69.06 40.39 69.66 40.92 69.89 41.17C69.75 41.17 69.52 41.17 69.25 41.19C69.23 41.17 69.21 41.16 69.19 41.14C68.9 40.9 68.48 40.44 68.24 40.19C68 39.94 67.76 40.23 67.98 40.38C68.2 40.54 68.54 41.07 68.61 41.19C68.61 41.21 68.61 41.21 68.61 41.22C68.54 41.22 68.47 41.24 68.4 41.24C68.29 41.22 68.17 41.16 68.1 41.09C67.92 40.92 67.29 40.4 67.07 40.24C66.84 40.08 66.52 40.19 66.64 40.32C66.76 40.45 67.53 40.94 67.62 41.17C67.65 41.25 67.62 41.3 67.56 41.33C67.52 41.33 67.47 41.33 67.43 41.35C67.32 41.35 67.16 41.29 67.04 41.18C66.75 40.94 66.32 40.47 66.11 40.36C65.9 40.25 65.79 40.51 65.98 40.72C66.16 40.94 66.52 41.07 66.63 41.34C66.65 41.4 66.64 41.46 66.63 41.5H66.61C66.48 41.53 66.36 41.57 66.24 41.62C66.19 41.6 66.13 41.57 66.07 41.53C65.79 41.28 65.58 40.93 65.3 40.78C65.03 40.63 64.75 40.68 64.93 40.89C65.12 41.1 65.81 41.42 65.84 41.61C65.86 41.69 65.83 41.78 65.78 41.83C65.75 41.84 65.73 41.86 65.71 41.87C65.65 41.87 65.6 41.87 65.54 41.81C65.37 41.65 65.37 41.7 65.1 41.55C64.82 41.41 64.88 41.98 65.16 42.18C65.18 42.19 65.19 42.2 65.2 42.22C65.07 42.33 64.94 42.43 64.8 42.55C64.49 42.25 63.77 41.79 63.77 41.79C63.77 41.79 63.26 41.68 63.54 41.88C63.82 42.08 64.29 42.53 64.13 42.7C63.96 42.88 63.41 42.48 63.14 42.34C62.87 42.2 62.7 42.32 62.87 42.48C63.05 42.65 63.83 42.9 63.92 43.17C64.02 43.45 63.86 43.62 63.49 43.49C63.12 43.36 62.7 43.19 62.38 43.01C62.05 42.82 62.12 43.21 62.29 43.32C62.46 43.44 63.35 44.06 63.15 44.29C62.95 44.52 61.94 44.06 61.65 43.87C61.37 43.68 61.12 43.92 61.35 44.08C61.57 44.24 62.65 44.82 62.45 45.06C62.25 45.29 61.25 44.63 61.02 44.43C60.79 44.23 60.62 44.4 60.81 44.61C60.99 44.82 62.11 45.36 61.91 45.59C61.71 45.82 60.4 45.08 60.07 44.89C59.74 44.7 59.57 45.08 59.88 45.21C60.2 45.35 61.8 46.14 61.43 46.5C61.05 46.86 59.91 45.93 59.43 45.68C58.95 45.43 58.75 45.7 59.08 45.94C59.42 46.18 60.19 46.63 60.41 46.83C60.64 47.03 60.7 47.32 60.27 47.1C59.84 46.88 58.26 45.98 57.93 46C57.58 46 57.53 46.27 57.91 46.44C58.29 46.62 59.48 46.99 59.71 47.24C59.96 47.49 59.51 47.47 59.15 47.34C58.78 47.21 57.84 46.59 57.6 46.63C57.36 46.67 57.01 46.63 57.45 46.9C57.88 47.17 58.86 47.38 58.53 47.49C58.21 47.6 57.54 47.57 57 47.57C56.57 47.57 54.04 49.34 52.62 50.58C51.23 50.94 50.3 48.76 52.03 45.4C52.05 45.24 53.4 43 53.45 42.9L53.44 42.92ZM50.13 54.28C50.23 54.21 50.38 54.16 50.51 54.23C50.81 54.38 52.38 55.22 52.63 55.38C52.75 55.45 52.81 55.58 52.75 55.69C52.69 55.82 52.49 55.9 52.19 55.8C51.93 55.71 51.4 55.41 50.93 55.15C50.59 54.95 50.26 54.77 50.13 54.72C50.01 54.67 49.98 54.59 49.98 54.55C49.96 54.46 50.02 54.35 50.12 54.28H50.13ZM48.72 55.51C48.72 55.45 48.77 55.39 48.85 55.35C48.95 55.31 49.09 55.33 49.2 55.45C49.32 55.59 51.83 56.72 52.24 56.82C52.6 56.92 52.58 57.02 52.58 57.05C52.57 57.13 52.45 57.34 51.99 57.32C51.48 57.3 50.04 56.58 49.23 56.15L48.74 55.89C48.57 55.82 48.72 55.56 48.73 55.5L48.72 55.51ZM55.47 66.77C55.71 66.84 55.74 66.93 55.72 67C55.69 67.14 55.39 67.18 55.06 67.11C54.72 67.03 54.1 66.79 53.6 66.6C53.31 66.49 53.07 66.39 52.96 66.37C52.81 66.32 52.72 66.2 52.7 66.11C52.68 66.04 52.7 65.97 52.76 65.93C52.81 65.89 52.91 65.87 53.08 65.96C53.39 66.11 55 66.65 55.46 66.79L55.47 66.77ZM51.37 80.42C51.37 80.42 51.37 80.36 51.39 80.34C51.47 80.27 51.76 80.35 53.63 81.06C54.16 81.27 54.68 81.47 54.81 81.5C55.08 81.56 56.55 82.09 56.62 82.33C56.65 82.42 56.67 82.55 56.62 82.64C56.58 82.71 56.43 82.96 56.33 82.99C56.15 83.03 54.84 82.52 54.84 82.52C53.96 82.15 52.25 81.58 51.98 81.52C51.54 81.43 51.39 80.89 51.4 80.66C51.4 80.58 51.4 80.5 51.38 80.42H51.37ZM57.41 82.16L57.1 81.98C56.94 81.9 56.91 81.78 56.91 81.74C56.91 81.67 56.95 81.6 57.03 81.56C57.12 81.51 57.28 81.5 57.45 81.61C57.51 81.66 57.68 81.72 57.84 81.79C58.26 81.96 59.48 82.32 59.49 82.4C59.5 82.46 59.49 82.57 59.42 82.66C59.37 82.73 59.29 82.77 59.21 82.77C59.06 82.78 57.69 82.33 57.41 82.16ZM59.02 79.63C59 79.69 58.93 79.78 58.72 79.78C58.44 79.78 56.14 79.01 55.74 78.89L55.57 78.84L55.44 78.81C55.29 78.79 55.13 78.76 55.08 78.5C55.08 78.41 55.03 78.06 55.13 78.03C55.31 77.95 57.72 78.83 57.99 78.85C58.32 78.88 58.62 78.91 58.75 79.01C58.91 79.14 59.05 79.53 59.02 79.63ZM58.06 77.79C57.6 77.82 55.1 76.89 54.78 76.7C54.67 76.64 54.29 76.47 53.86 76.28C52.85 75.84 51.93 75.48 51.73 75.4C50.65 74.98 49.26 74.9 49.39 74.07C49.41 73.95 49.54 73.62 49.62 73.56C49.67 73.53 49.76 73.5 49.9 73.59C49.97 73.64 50.24 73.74 50.52 73.84C50.97 74 52.41 74.63 52.91 74.77C53.38 74.91 57.23 76.43 57.41 76.46C57.7 76.53 57.98 76.59 58.12 76.74C58.16 76.79 58.2 76.85 58.2 76.91C58.2 76.97 58.2 77.12 58.2 77.18C58.16 77.38 58.39 77.75 58.07 77.78L58.06 77.79ZM45.01 67.85C45.04 67.71 45.08 67.46 45.48 67.64C45.63 67.71 50.85 69.67 51.07 69.75C51.11 69.77 51.19 70.14 51.17 70.17C51.13 70.29 50.86 70.37 50.69 70.31L47.09 69.04C46.1 68.75 45.16 68.45 45.02 68.17C44.95 68.02 44.99 67.94 45.01 67.85ZM44.79 73.07C45.02 73.07 46.92 74.01 47.12 74.17C47.56 74.52 47.78 75.67 47.8 75.69C47.95 75.84 46.48 75.25 46.2 75.16C45.66 74.99 44.76 74.65 44.66 74.5C44.57 74.37 44.53 74.03 44.58 73.96C44.62 73.89 44.58 73.07 44.79 73.07ZM44.81 76.67C44.86 76.56 44.86 76.01 44.97 76.01C45.03 76.01 47.88 76.86 47.95 76.89C48.52 77.16 48.5 78.28 48.5 78.28C48.45 78.35 48.39 78.39 48.32 78.4C48.18 78.42 45.95 77.63 45.74 77.58C45.52 77.53 45.07 77.43 44.96 77.33C44.88 77.25 44.76 76.8 44.8 76.67H44.81ZM46.57 70.01C46.56 69.91 46.65 69.64 46.81 69.6C46.99 69.55 48.66 70.23 49.03 70.38C49.44 70.56 49.71 70.68 49.78 70.74C49.87 70.83 49.89 70.96 49.87 71.06C49.85 71.14 49.8 71.37 49.74 71.39C49.69 71.41 49.61 71.4 49.52 71.3C49.28 71.07 46.61 70.19 46.58 70.02L46.57 70.01ZM57.67 75.4C57.71 75.58 57.67 75.73 57.55 75.79C57.42 75.87 52.7 74.1 52.47 73.92C52.41 73.87 50.25 72.98 49.97 72.75C49.9 72.68 50.11 72.35 50.15 72.29C50.24 72.17 50.42 72.11 50.6 72.22C50.77 72.33 53.04 72.99 53.43 73.15L54.07 73.42C54.54 73.63 56.18 74.23 56.38 74.29L56.53 74.32C56.69 74.34 56.89 74.38 57.26 74.57C57.68 74.78 57.66 75.34 57.66 75.39L57.67 75.4ZM57.28 73.73C57.24 73.91 56.9 73.9 56.82 73.85C56.82 73.85 52.56 72.16 52.18 72.06C51.56 71.88 50.87 71.76 50.85 71.53C50.83 71.33 51.08 70.35 52.68 71.05C53 71.19 56.83 72.45 56.83 72.45C57.13 72.56 57.11 72.93 57.24 73.29C57.24 73.29 57.36 73.4 57.29 73.73H57.28ZM45.17 60.44C45.3 60.21 45.76 60.2 45.91 60.37C46.05 60.53 51.43 62.58 51.92 62.69C52.11 62.72 52.17 62.81 52.19 62.87C52.22 62.95 52.17 63.92 52.1 64C51.99 64.12 51.78 64.21 51.56 64.16C51.14 64.06 45.44 61.61 45.15 61.37C45.08 61.31 45 61.23 45.02 61.14C45.04 61.1 45.14 60.51 45.18 60.44H45.17ZM45.19 62.62C45.29 62.68 45.64 62.8 45.92 62.91C46.13 62.99 46.31 63.05 46.38 63.09C46.52 63.16 49.16 64.14 50.1 64.51L50.76 64.77C50.9 64.82 50.99 64.96 51 65.05C51 65.09 50.95 65.4 50.92 65.43C50.88 65.46 50.99 65.85 49.98 65.54C48.61 65.13 44.46 64.1 44.7 62.91C44.72 62.83 45.11 62.56 45.2 62.62H45.19ZM55 68.19L54.44 68.04C53.76 67.87 52.83 67.64 52.48 67.44C52.21 67.28 52.19 67.14 52.22 67.06C52.27 66.91 52.35 66.95 52.65 66.97C53.03 67 53.84 67.33 54.49 67.48C54.85 67.56 55.12 67.76 55.27 67.81C55.44 67.86 55.53 67.93 55.55 68.01C55.56 68.06 55.55 68.12 55.5 68.15C55.41 68.24 55.21 68.25 54.99 68.19H55ZM51.75 61.31C51.56 61.43 49.32 60.48 48.82 60.36C48.32 60.25 46.9 59.6 46.54 59.44C46.38 59.36 46.33 59.15 46.33 59.09C46.35 58.95 46.56 58.42 46.71 58.38C46.79 58.36 47.12 58.38 47.2 58.47C47.31 58.59 48.99 59.3 49.46 59.41C49.73 59.47 50.28 59.7 50.82 59.92C51.25 60.1 51.66 60.27 51.84 60.32C51.99 60.35 52.03 60.43 52.04 60.49C52.04 60.6 51.86 61.24 51.76 61.31H51.75ZM47.64 56.73C47.76 56.73 48.06 56.79 48.1 56.89C48.24 57.04 50.42 57.95 51.57 58.43C51.76 58.51 52.14 58.68 52.14 58.77C52.14 59.08 51.88 59.29 51.57 59.3C51.01 59.32 47.7 57.7 47.51 57.48C47.43 57.39 47.33 57.2 47.34 57.16C47.37 57.08 47.52 56.73 47.63 56.73H47.64ZM41.99 46.05C42.28 46.18 44.05 46.89 44.28 46.98C44.52 47.07 44.55 46.8 44.36 46.7C44.16 46.6 43.07 45.91 42.73 45.74C42.39 45.58 42.87 45.49 43.05 45.55C43.24 45.6 44.08 45.85 44.32 45.94C44.55 46.03 44.78 45.81 44.63 45.71C44.49 45.61 44.33 45.41 43.93 45.17C44.69 45 45.11 44.62 45.4 43.91C45.57 43.47 45.68 43.13 45.86 42.58C46.08 41.92 46.5 41.64 46.82 41.67C47.18 41.69 47.47 42.06 47.56 42.63C47.94 44.76 47.95 47 47.97 49.17C47.97 50.57 47.99 51.89 48.09 53.12C47.45 53.63 46.85 54.2 46.3 54.83L46.28 54.79C46.28 54.79 46.11 54.82 45.75 54.83C45.4 54.85 45.11 54.51 45.37 54.46C45.63 54.42 45.84 54.15 45.63 54.14C45.41 54.14 45.26 54.08 44.8 53.98C44.34 53.88 44.37 53.57 44.59 53.53C44.8 53.49 45.14 53.66 45.44 53.83C45.73 54 46.15 53.57 45.69 53.47C45.23 53.38 44.57 52.92 44.02 52.84C43.47 52.76 43.31 52.34 43.73 52.45C44.15 52.56 44.74 52.63 45.28 52.67C45.82 52.71 45.61 52.34 45.34 52.26C45.06 52.18 44.05 52 43.63 51.86C43.21 51.71 43.28 51.39 43.59 51.38C43.9 51.38 45.23 51.85 45.6 51.96C45.97 52.07 46.13 51.69 45.48 51.54C44.83 51.39 43.63 50.89 43.4 50.8C43.16 50.71 43.12 50.45 43.52 50.51C43.94 50.57 45.05 50.9 45.29 50.96C45.52 51.01 45.62 50.85 45.17 50.76C44.71 50.66 43.72 50.09 43.25 50C42.79 49.89 42.87 49.58 43.19 49.65C43.52 49.73 44.74 50.13 45.11 50.2C45.47 50.27 45.56 49.99 44.96 49.88C44.36 49.76 43.19 49.17 42.77 49.02C42.34 48.87 42.42 48.55 42.83 48.66C43.25 48.76 44.01 49.25 44.36 49.23C44.71 49.21 44.59 49.01 44.31 48.98C44.04 48.93 43.14 48.38 42.9 48.25C42.65 48.12 42.76 48.01 42.94 47.98C43.11 47.95 43.61 48.26 43.84 48.31C44.07 48.36 44.25 48.11 43.93 48.03C43.6 47.96 42.96 47.62 42.64 47.54C42.32 47.47 42.4 47.19 42.64 47.24C42.87 47.28 43.67 47.59 44 47.66C44.33 47.73 44.34 47.6 44.02 47.52C43.7 47.45 42.48 46.82 42.03 46.58C41.59 46.35 41.7 45.98 41.99 46.1V46.05ZM45.56 65.23C47.75 65.77 49.74 66.76 51.06 67.23C52.11 67.61 51.41 67.91 51.7 68.06C52.05 68.25 52.75 68.53 53.79 68.9C54.74 69.23 55.64 69.54 55.87 69.67C56.11 69.81 56.15 70.25 56.14 70.37C56.14 70.46 56.09 70.53 56.01 70.57C55.92 70.6 55.79 70.57 55.69 70.47C55.53 70.32 54.3 69.91 53.11 69.5C51.96 69.1 50.76 68.69 50.39 68.49C49.96 68.26 49.32 68.06 48.75 67.89C48.28 67.74 47.82 67.61 47.55 67.45C46.75 67.01 45.76 66.84 44.95 66.35C44.84 66.28 45.03 65.1 45.54 65.23H45.56ZM41.17 73.32C41.35 73.25 41.13 72.88 40.83 72.67C40.53 72.46 40.19 71.81 40.44 71.99C40.7 72.17 41.41 72.66 41.71 72.87C42.01 73.08 42.25 72.87 41.79 72.59C41.34 72.31 40.59 71.56 40.33 71.34C40.07 71.12 39.92 70.52 40.17 70.71C40.42 70.88 41.29 71.53 41.51 71.75C41.73 71.98 41.86 71.69 41.69 71.5C41.52 71.3 40.72 70.64 40.27 70.24C39.5 69.57 39.73 68.43 40 68.47C40.24 68.51 41.98 69.99 42.29 70.25C42.5 70.42 42.67 70.18 42.39 69.87C42.1 69.55 40.5 68.18 40.28 68.01C39.66 67.53 39.84 66.7 39.86 66.64C39.92 66.51 40.13 66.32 40.26 66.41C40.51 66.58 41.81 67.87 41.98 68.06C42.14 68.25 42.37 67.98 42.11 67.81C41.86 67.63 40.98 66.72 40.67 66.43C40.35 66.13 40.67 65.89 40.96 66.02C41.25 66.15 42.25 67.26 42.53 67.38C42.82 67.51 42.77 67.26 42.62 67.15C42.47 67.04 40.81 65.47 40.61 65.29C40.51 65.2 40.31 65.04 40.44 64.8C40.63 64.45 40.67 64.16 41.18 64.48C41.34 64.58 41.69 64.88 41.85 65.03C42 65.18 42.2 65.01 42.03 64.82C41.86 64.63 41.14 64.09 40.93 63.91C40.72 63.73 40.83 63.35 41.19 63.55C41.53 63.76 42.43 64.58 42.54 64.7C42.65 64.81 43.12 64.72 42.77 64.47C42.41 64.22 40.96 62.77 40.93 62.62C40.84 62.19 40.79 60.55 41.01 60.78C41.23 61.01 41.81 61.31 42.19 61.68C42.57 62.06 42.43 61.51 42.2 61.24C42.03 61.02 40.88 60.21 40.32 59.24C40.27 59.09 40.21 58.95 40.15 58.81C39.53 57.31 40.17 55.9 41.44 55.34C41.92 55.22 42.41 55.24 42.81 55.36C43.14 55.47 43.3 55.71 43.29 55.84C43.28 55.96 43.09 56.05 42.8 56.09C42.08 56.16 41.52 56.53 41.23 57.09C40.98 57.57 41 58.14 41.25 58.57C41.5 58.99 41.76 59.36 42.12 59.87L42.91 61C44.03 62.65 44.17 65.26 43.95 67C43.84 67.9 43.68 69.14 43.92 70.75C44.16 72.35 43.95 73.59 43.24 74.65C43 75.01 42.69 75.22 42.4 75.23C42.28 75.23 41.82 75.04 41.65 74.84C41.39 74.54 40.63 73.55 41.18 73.31L41.17 73.32ZM45.86 96.93C45.72 96.99 45.59 97.1 45.46 97.24C45.23 97.51 44.66 97.9 44.11 97.72L44.05 97.58C43.97 97.32 44.15 96.96 44.43 97C44.71 97.04 45.32 96.75 45.35 96.62C45.39 96.49 45.84 96.38 45.85 96.59C45.85 96.67 45.87 96.79 45.85 96.92L45.86 96.93ZM49.91 100.34C49.82 100.41 49.51 100.4 49.17 100.13L49.08 100.06C49.13 99.91 49.29 99.73 49.47 99.65C49.67 99.8 49.85 99.97 49.9 100.12C49.92 100.15 49.97 100.29 49.9 100.33L49.91 100.34ZM49.58 95.6C49.48 96.68 49.91 97.91 49.93 99C49.8 98.91 49.69 98.82 49.58 98.75L49.27 98.53C49.05 98.36 43.69 93.88 43.31 94.33C43.25 94.4 43.18 94.49 43.1 94.6C43.1 94.6 43.39 94.06 43.2 93.92C43.01 93.78 43.16 93.1 43.29 92.91C43.43 92.71 43.51 92.91 43.83 93.03C44.15 93.15 44.02 92.8 43.87 92.7C43.73 92.59 43.46 92.51 43.3 92.38C43.15 92.23 43.13 91.9 43.33 92.03C43.52 92.17 43.72 92.17 43.99 92.29C44.27 92.41 44.18 92.13 43.99 91.99C43.8 91.85 43.5 91.74 43.25 91.53C43 91.32 43.15 90.99 43.4 91.16C43.64 91.33 44.02 91.52 44.4 91.75C44.78 91.98 44.67 91.46 44.4 91.38C44.13 91.3 43.63 90.9 43.43 90.78C43.11 90.6 42.88 89.77 43.46 89.82C43.87 89.85 44.16 90.14 44.52 90.3C44.87 90.45 44.97 90.13 44.66 89.89C44.37 89.64 43.74 89.27 43.41 89.07C43.02 88.85 43.17 88.19 43.56 88.22C43.74 88.24 44.06 88.39 44.29 88.51C44.53 88.64 44.65 88.4 44.46 88.27C44.26 88.13 43.93 87.96 43.73 87.83C43.54 87.69 43.52 87.03 43.9 87.27C44.28 87.5 44.39 87.5 44.72 87.62C45.04 87.73 44.96 87.38 44.82 87.28C44.67 87.18 44.11 86.98 43.86 86.8C43.61 86.63 43.71 86.25 44 86.41C44.28 86.58 44.65 86.74 44.91 86.85C45.19 86.97 45.47 86.76 45.28 86.63C45.09 86.49 44.82 86.26 44.6 86.18C43.45 85.78 43.94 81.78 46.01 83.33C46.47 83.68 48.28 85.87 48.86 85.78C49.68 85.66 49.61 95.39 49.58 95.6ZM46.14 80.44C45.88 80.38 45.25 79.04 45.59 78.96C45.87 78.9 48.23 79.77 48.76 79.89C49.68 80.09 49.66 81.51 49.18 81.42C48.53 81.31 46.51 80.53 46.14 80.44ZM58.83 91.06C58.62 91 55.36 89.66 55.05 89.43C54.75 89.2 54.94 88.43 55.53 88.65C55.76 88.74 58.86 89.96 59.15 90.08C60.65 90.68 60.47 91.55 58.83 91.06ZM52.75 83.86C52.39 83.77 52.03 83.48 51.89 83.17C51.83 83.03 52.08 82.6 53.04 82.92C53.37 83.03 54.63 83.53 55.37 83.71L55.86 83.84L56.18 83.94C56.47 84.04 58.39 84.71 58.54 84.77C59.03 84.98 60.62 85.52 61.05 85.63C61.2 85.67 61.22 86.07 61.15 86.29C60.91 87.07 53.11 83.94 52.76 83.86H52.75ZM66.98 104.9C66.42 104.86 64.82 105.28 64.24 105.44C63.66 105.6 63.63 105.19 63.68 104.92C63.72 104.65 64.27 104.14 64.67 103.91C65.07 103.68 65.89 103.22 66.15 103.48C66.7 104.03 67.12 104.06 67.72 104.49C68.33 104.91 67.55 104.94 66.99 104.9H66.98ZM71.51 105.32C71.51 105.73 70.56 105.9 70.12 105.98C69.69 106.06 68.74 105.56 68.33 105.3C67.91 105.04 68.47 104.57 68.72 104.39C69.05 104.16 69.52 104.34 69.79 104.45C70 104.53 70.72 104.34 70.99 104.46C71.26 104.58 71.52 104.9 71.5 105.32H71.51ZM69.14 103.29C68.75 103.4 68.44 103.45 68.13 103.41C68.21 103.27 68.25 103.1 68.05 103.06C67.67 102.99 66.96 102.42 66.81 102.23C66.66 102.03 66.71 102.29 66.45 102.22C66.19 102.16 65.91 102.15 65.36 102.22C64.81 102.3 64.82 99.79 64.81 99.41C64.81 99.08 65.38 98.2 66.45 98.37C66.97 98.45 67.44 98.2 67.47 97.87C67.48 97.7 67.38 96.9 67.57 96.91C68.44 96.97 68.05 96.18 68.14 95.88C68.82 95.88 69.51 95.84 70.21 95.77C70.27 95.79 70.34 95.81 70.4 95.83C70.48 96.2 71.56 101.42 71.96 103.38C71.01 102.9 69.92 103.09 69.14 103.3V103.29ZM84.6 67.3C84.62 67.21 84.63 67.13 84.64 67.04C84.64 67.13 84.62 67.21 84.6 67.3ZM84.69 66.66C84.69 66.61 84.69 66.55 84.69 66.49C84.69 66.54 84.69 66.6 84.69 66.66ZM84.58 64.05C84.56 63.95 84.55 63.85 84.53 63.75C84.55 63.85 84.56 63.94 84.58 64.05ZM84.71 66.1C84.71 66.05 84.71 65.99 84.71 65.94C84.71 65.99 84.71 66.04 84.71 66.1ZM84.7 65.23C84.7 65.18 84.7 65.12 84.7 65.06C84.7 65.12 84.7 65.17 84.7 65.23ZM84.69 64.94C84.68 64.88 84.68 64.82 84.67 64.76C84.67 64.82 84.67 64.88 84.69 64.94ZM84.65 64.65C84.65 64.59 84.64 64.52 84.63 64.46C84.63 64.53 84.65 64.59 84.65 64.65ZM84.62 64.35C84.6 64.27 84.6 64.18 84.59 64.09C84.6 64.17 84.61 64.26 84.62 64.35ZM84.51 63.67C84.5 63.59 84.48 63.53 84.47 63.46C84.48 63.53 84.5 63.6 84.51 63.67ZM84.45 63.34C84.45 63.27 84.43 63.21 84.41 63.15C84.43 63.21 84.44 63.27 84.45 63.34ZM84.39 63.03C84.38 62.97 84.35 62.91 84.34 62.85C84.35 62.91 84.37 62.97 84.39 63.03ZM84.31 62.73C84.3 62.67 84.28 62.62 84.27 62.56C84.27 62.62 84.3 62.67 84.31 62.73ZM84.23 62.43C84.22 62.37 84.2 62.31 84.18 62.26C84.2 62.32 84.22 62.37 84.23 62.43ZM84.14 62.13C84.14 62.07 84.11 62.02 84.09 61.96C84.1 62.02 84.13 62.07 84.14 62.13ZM83.95 61.54C83.93 61.47 83.91 61.42 83.89 61.36C83.92 61.42 83.94 61.47 83.95 61.54ZM83.73 60.97C83.7 60.89 83.67 60.81 83.64 60.74C83.68 60.81 83.7 60.89 83.73 60.97ZM82.71 58.98C82.71 58.98 82.65 58.88 82.61 58.84C82.65 58.89 82.68 58.93 82.71 58.98ZM83.17 59.75C83.14 59.7 83.11 59.65 83.08 59.6C83.1 59.65 83.14 59.7 83.17 59.75ZM83.02 59.48C82.99 59.43 82.96 59.38 82.94 59.33C82.97 59.38 83 59.43 83.02 59.48ZM82.87 59.23C82.84 59.18 82.81 59.13 82.78 59.08C82.81 59.13 82.84 59.17 82.87 59.23ZM83.92 67.06C83 72.71 85.76 77.06 88.45 81.25L88.52 81.36C88.99 82.12 89.6 83.5 89.73 83.95C89.88 84.39 89.95 85.69 89.9 86.26C89.84 86.83 88.93 88.77 88.72 89.11C88.5 89.47 87.96 90.09 87.58 90.41C87.5 90.49 83.94 96.43 67.32 94.9C65.94 94.48 65.64 93.43 65.54 93.09C65.43 92.75 63.43 91.85 62.98 91.79C62.52 91.73 62.59 91.37 62.93 91.26C63.27 91.16 62.6 90.83 62.21 90.67C60.53 89.99 61.39 88.88 61.87 89.06C62.35 89.25 64.07 89.84 64.68 89.92C65.27 90 64.85 89.62 64.61 89.53C64.36 89.44 62.98 89.06 62.59 88.85C61.03 88.05 62.69 87.12 63.29 87.2C63.52 87.23 65.16 87.63 65.73 87.8C66.3 87.97 66.02 87.66 65.5 87.48C64.97 87.3 64.74 87.21 64.11 87C63.49 86.8 64.11 86.74 64.28 86.7C64.45 86.67 65.59 87 65.5 86.8C65.37 86.51 64.55 86.3 63.73 85.96C62.83 85.6 59.73 82.13 64.47 83.43C64.92 83.56 65.01 82.97 64.81 82.87C64.61 82.77 62.09 81.74 61.67 81.63C60.45 81.29 60.38 79.97 60.62 80.06C60.86 80.15 63.04 81.03 63.36 81.01C63.67 81.01 63.69 80.55 63.4 80.42C63.1 80.29 61.25 79.6 60.92 79.52C60.59 79.44 60.16 79.21 60.27 79.02C60.36 78.82 60.02 78.87 59.69 78.52C59.36 78.17 59.77 77.97 60.39 78.17C61.01 78.38 60.71 77.9 60.5 77.76C60.29 77.61 59.74 77.31 59.4 76.91C59.03 76.48 58.9 75.6 58.71 75.28C58.51 74.95 59 75.18 59.37 75.2C59.73 75.22 59.46 74.96 59.04 74.86C58.62 74.75 58.53 74.5 58.39 74.21C58.26 73.92 59.06 74.18 59.42 74.16C59.78 74.14 59.58 74.04 59.18 73.84C58.79 73.63 58.44 73.43 58.44 73.21C58.44 72.98 58.84 73.23 59.42 73.17C59.88 73.13 59.62 72.83 59.28 72.72C58.94 72.6 58.6 72.64 58.25 72.43C57.9 72.23 58.07 72.09 58.02 71.83C57.97 71.57 58.27 71.54 58.67 71.56C59.08 71.58 59.26 71.47 59.21 71.35C59.09 71.05 58.4 71.09 58.18 71.09C57.95 71.09 57.67 70.75 57.87 70.59C58.06 70.42 57.77 70.03 57.57 69.92C57.37 69.83 57.83 69.66 58.02 69.67C58.21 69.69 58.25 69.05 57.54 69.17C56.79 69.29 57.25 68.59 57.22 67.92C57.19 67.25 57.39 67.35 57.17 67.08C56.94 66.81 56.11 67.76 56.23 67.16C56.35 66.55 55.97 66.4 55.86 66.33C55.76 66.26 55.83 65.93 55.68 65.82C55.52 65.71 53.54 65.17 53.01 64.95C52.47 64.73 53.07 63.81 54.21 64.12C54.67 64.24 55.23 64.35 55.27 64.01C55.29 63.79 54.9 63.76 54.04 63.42C53.17 63.09 53.42 62.3 54.37 62.35C54.77 62.37 54.96 62.17 54.85 62.01C54.73 61.85 54.3 61.91 53.97 61.74C53.41 61.45 52.83 59.71 54.32 59.91C54.61 59.95 54.76 59.62 54.34 59.51C53.92 59.41 53.91 59.37 53.63 59.28C53.34 59.2 53.69 57.88 54 57.82C54.31 57.77 54.62 57.99 54.95 58.1C55.29 58.22 55.33 57.94 55.03 57.77C54.73 57.6 54.47 57.42 54.23 57.28C53.98 57.15 54.29 57.06 54.48 56.89C54.68 56.73 55.2 57.06 55.65 57.21C56.09 57.36 56.15 56.89 55.7 56.64C55.44 56.5 54.59 56.31 54.6 56.09C54.6 55.86 54.63 55.27 54.9 55.27C55.17 55.27 56.03 55.5 56.03 55.5C56.03 55.5 56.48 55.06 56.03 54.93C55.8 54.86 55.74 54.97 55 54.62C54.39 54.33 54.98 53.66 55.31 53.72C55.52 53.76 56.48 54.08 57.06 53.97C57.66 53.86 57.49 53.46 57.06 53.32C56.63 53.17 55.47 52.92 55.08 52.72C54.69 52.52 55.42 51.29 55.94 51.12C56.49 50.95 57.91 49.81 59.22 51.55C59.46 51.87 60.15 52.14 60.4 52.32C60.66 52.49 61.62 53.09 61.81 53.41C61.99 53.74 62.48 53.67 63.02 53.42C63.3 53.29 62.79 52.55 62.07 51.71C61.67 51.58 61.26 51.43 61.13 51.32C60.84 51.09 59.89 49.8 60.04 49.53C59.68 49.17 59.45 48.95 59.45 48.95L58.65 48.26C61.03 47.84 63.77 48.16 66.95 49.18C66.95 49.18 71.83 54.6 71.9 54.72C71.97 54.83 72.73 55.08 72.93 54.91C73.13 54.76 72.87 53.86 72.46 53.86C72.06 53.86 71.62 52.49 71.35 52.2C71.1 51.92 69.26 49.83 69 49.49C68.74 49.15 69.2 49.15 69.38 49.38C69.57 49.59 70.18 50.13 70.36 50.01C70.54 49.9 70.29 49.77 69.94 49.35C69.59 48.93 70.21 49.3 70.25 49.07C70.25 49.05 70.25 49.04 70.25 49.03C71.86 49.24 73.54 49.9 75.16 50.98C77.54 52.56 79.53 54.86 80.47 57.12L80.51 57.21L80.59 57.27C83.21 59.41 84.44 64.06 83.95 67.06H83.92ZM84.75 59.01C84.75 59.1 84.75 59.19 84.76 59.27C84.56 59.16 84.36 59.05 84.16 58.94C83.99 58.37 83.08 57.31 82.89 57.15C82.68 56.98 83.07 56.64 83.66 57.08C84.24 57.51 84.74 58.63 84.75 59.01ZM82.99 49.91C82.54 49.91 82.14 50.33 82.26 50.7C82.39 51.06 82.32 51.83 82.27 52.13C82.24 52.44 82.65 53.05 82.85 53.17C83.05 53.28 83.24 54 83.01 54.1C82.79 54.2 82.47 54.25 82.58 54.56C82.7 54.87 82.44 55.3 82.32 55.12C82.2 54.93 82.13 54.7 82 54.31C81.86 53.91 81.57 53.79 81.71 54.18C81.84 54.58 81.88 54.84 82.01 55.23C82.14 55.63 81.82 55.81 81.69 55.32C81.58 54.84 81.17 54.39 81.1 54.02C81.03 53.64 80.79 53.77 80.89 54.15C80.98 54.52 80.69 54.73 80.54 54.24C80.4 53.76 79.91 52.35 79.78 51.95C79.65 51.55 79.33 51.6 79.42 51.8C79.51 51.99 79.56 52.37 79.58 52.55C79.61 52.72 79.31 53.02 79.24 52.64C79.16 52.26 78.93 51.8 78.88 51.5C78.83 51.21 78.26 50.87 78.41 51.23C78.57 51.59 78.51 51.81 78.52 52.23C78.54 52.65 78.27 52.34 78.21 52.14C78.15 51.94 77.99 51.58 77.92 51.32C77.85 51.06 77.56 50.82 77.6 51.05C77.64 51.28 77.68 51.51 77.5 51.46C77.31 51.4 77.28 51.05 77.21 50.82C77.14 50.59 76.87 49.92 76.75 49.58C76.63 49.24 76.25 49.16 76.38 49.37C76.51 49.59 76.55 50.18 76.63 50.47C76.7 50.75 76.24 50.63 76.17 50.43C76.11 50.23 75.64 49.24 75.5 48.99C75.36 48.75 75.1 48.92 75.25 49.13C75.41 49.34 75.55 49.83 75.64 50.11C75.73 50.39 75.25 49.93 75.14 49.81C75.03 49.68 74.68 49.05 74.57 48.77C74.46 48.49 74.07 48.53 74.24 48.77C74.4 49.02 74.35 49.08 74.47 49.42C74.59 49.76 74.05 49.37 73.96 49.24C73.88 49.1 73.4 48.23 73.32 48C73.26 47.77 72.87 47.99 73.07 48.26C73.27 48.52 73.19 48.75 73.29 48.97C73.39 49.19 72.74 48.8 72.65 48.61C72.56 48.42 72.14 47.73 71.91 47.3C71.69 46.87 71.62 47.33 71.71 47.52C71.8 47.72 72.01 48.06 72.06 48.36C72.11 48.65 71.81 48.49 71.73 48.36C71.65 48.22 71.4 47.64 71.3 47.45C71.2 47.25 70.67 47.08 71.03 47.77C71.39 48.45 71.13 48.35 70.92 48.36C70.71 48.36 70.46 48.11 70.46 48.11C70.46 48.11 70.29 47.66 70.2 47.35C70.12 47.03 69.87 47.17 69.95 47.3C70.04 47.43 69.97 47.71 70.02 48C70.07 48.3 69.71 48.09 69.68 47.95C69.65 47.8 69.39 47.31 69.3 47.2C69.22 47.09 68.95 47.09 69.07 47.21C69.18 47.34 69.21 47.54 69.23 47.81C69.25 48.08 69.19 48.09 69.08 47.96C68.97 47.83 68.69 47.61 68.49 47.32C68.29 47.03 67.92 47.48 67.75 47.51C67.57 47.54 67.08 46.94 66.97 46.84C66.86 46.74 66.67 46.84 66.76 47C66.85 47.17 67.18 47.44 67.08 47.63C67 47.83 67.12 48.19 66.79 48.22C66.47 48.25 66.09 47.62 65.73 47.6C65.36 47.57 64.92 47.62 64.79 47.89C64.79 47.89 64.78 47.89 64.78 47.9C64.42 47.82 64.07 47.76 63.72 47.71C63.39 47.58 63.08 47.45 62.94 47.41C62.71 47.35 62.73 47.27 62.82 47.06C69.11 44.05 78.14 43.81 85.66 49.88C85.59 49.9 85.5 49.92 85.43 49.93C85.24 49.79 84.73 49.76 84.51 49.74C84.26 49.72 83.44 49.96 82.99 49.95V49.91ZM86.02 51.18C85.78 51.35 85.59 51.57 85.45 51.84C85.23 52.29 85.17 52.86 85.29 53.52C85.37 53.92 85.49 54.35 85.68 54.82C85.96 55.52 86.15 56.13 86.24 56.66C86.32 57.1 86.33 57.48 86.28 57.79C86.25 58 86.25 58.19 86.28 58.36C86.35 58.78 86.58 59.12 86.79 59.44C87.01 59.76 87.31 60.23 87.44 60.5C87.46 60.54 87.47 60.56 87.48 60.59C87.48 60.63 87.48 60.65 87.48 60.67C87.46 60.67 87.21 60.62 87.07 60.54C86.76 60.37 86.25 59.81 85.87 59.19C85.73 58.93 85.64 58.68 85.59 58.4C85.57 58.28 85.59 57.83 85.63 57.74C85.93 56.9 85.01 55.09 84.84 54.82C84.73 54.65 84.44 54.22 84.27 53.86C84.23 53.7 83.87 52.52 84.44 51.9C84.68 51.64 85.29 51.23 85.63 51.05C85.91 50.89 86.02 50.99 86.03 51.2L86.02 51.18Z"
            fill="#002856" />
        <path
            d="M67.8 49.22C67.8 49.22 67.78 49.19 67.77 49.19C67.73 49.14 67.52 49.03 67.2 48.89C66.4 48.49 65.54 48.17 64.65 47.95C64.26 47.82 63.93 47.73 63.79 47.71C63.62 47.69 63.31 47.66 62.92 47.62C62.56 47.57 62.21 47.54 61.85 47.53C61.1 47.47 60.31 47.44 59.85 47.5C59.65 47.52 59.37 47.59 59.06 47.68C57.72 47.89 56.44 48.3 55.33 48.93C55.31 48.93 55.3 48.95 55.28 48.95C54.64 49.32 54.06 49.75 53.55 50.26C53.06 50.75 52.49 50.97 52.03 51.13C49 52.21 46.08 54.23 44.7 57.71C44.62 57.92 44.82 58.03 44.92 57.87C46.76 54.84 49.81 52.99 52.29 52.25C53.02 52.04 53.38 52.55 53.43 53.08C53.55 54.23 53.63 55.2 53.43 55.86C53.24 56.53 52.94 57.16 52.7 57.79C52.45 58.42 52.29 59.34 52.38 60.18C52.57 61.9 52.93 64.11 51.72 66.23C51.55 66.53 51.76 66.7 52.03 66.44C53.53 65 53.58 62.74 53.41 60.53C53.35 59.65 53.54 58.86 53.81 58.36C54.64 56.81 55.07 55.75 54.99 54.45C54.94 53.7 54.93 52.89 54.86 52.23C54.78 51.57 55 51.11 55.36 50.75C55.86 50.25 56.93 49.62 57.8 49.46C58.41 49.35 58.75 49.69 59.03 50.15C60.29 52.17 61.83 53.15 64.26 54.08C65.22 54.45 65.42 55.04 65.3 55.92C65.18 56.79 65.09 57.73 64.2 58.54C62.65 59.94 61.69 61.36 61.24 62.88C61.07 63.45 60.58 64.11 59.79 64.31C56.9 65.04 55.18 67.12 56.1 69.52C56.87 71.52 57.21 72.31 57.58 73.9C57.95 75.5 58.63 77.94 59.21 79.55C60.1 82.04 61.17 84.22 62.04 85.39C62.27 85.71 62.52 85.49 62.34 85.15C61.15 82.93 59.97 79.55 59.49 77.61C59.43 77.35 59.58 77.05 59.9 77.09C60.86 77.19 63.26 77.8 65.02 78.61C65.31 78.75 65.48 78.44 65.18 78.27C63.49 77.3 60.93 76.33 59.62 76.07C59.27 76 59.09 75.59 58.99 75.15C58.61 73.44 58.25 71.4 57.42 69.32C56.91 68.05 57.37 67.24 58.2 66.57C58.71 66.16 59.91 65.76 60.4 65.78C60.54 65.78 60.66 65.81 60.76 65.87C60.83 65.95 60.91 66.03 60.99 66.09C61.07 66.2 61.11 66.31 61.15 66.46C61.45 67.62 62.15 69.02 62.98 69.95C63.82 70.88 64.24 71.66 64.46 72.47C64.59 72.94 64.88 72.89 64.85 72.4C64.8 71.6 64.38 70.46 63.67 69.5C62.95 68.55 62.33 67.27 62.15 66.31C61.98 65.35 62.13 64.57 62.36 63.71C62.83 62.01 64.08 60.44 65.15 59.63C66.23 58.81 67 57.36 66.86 55.6C66.82 55.15 67.37 54.88 67.65 55.46C68.52 57.25 69.71 58.73 71.02 59.56C74.27 61.63 74.41 64.69 71.71 66.45C68.16 68.75 68.25 71.87 69.82 74.76C70.53 76.07 71.01 76.7 71.47 77.34C71.94 77.97 72 78.72 71.66 79.41C70.64 81.45 70.68 83.58 71.76 85.08C72.56 86.2 73.07 87.13 73.3 87.68C73.51 88.18 73.84 88.07 73.7 87.61C73.4 86.58 72.75 85.45 72.35 84.73C71.73 83.58 71.92 81.56 72.29 80.67C72.59 79.96 72.85 79.43 73.03 79.04C73.19 78.65 73.57 78.44 73.88 78.78C74.63 79.6 75.22 80.93 75.61 81.76C76 82.59 76.61 82.95 77.19 83.22C78.5 83.82 79.79 84.73 80.18 85.92C80.31 86.31 80.6 86.15 80.53 85.86C80.21 84.35 79.12 83.65 77.75 82.69C76.93 82.12 76.57 81.82 76.26 81.04C75.61 79.41 75.3 77.96 74.03 77.23C73.23 76.77 72.69 76.66 72.2 76.05C70.82 74.32 70.08 72.53 70.18 71.08C70.29 69.63 71.37 68.33 72.72 67.46C74.28 66.46 75.23 64.91 75.15 63.25C75.12 62.77 75.57 62.58 76.01 62.68C77.63 63.05 79.49 64.09 79.99 66.89C80.07 67.35 80.5 67.22 80.45 66.81C80.3 65.34 79.9 62.97 77.22 61.87C76.96 61.7 76.71 61.58 76.55 61.59C76.5 61.59 76.44 61.59 76.38 61.59C76.19 61.54 75.99 61.5 75.78 61.45C75.29 61.37 74.78 61.37 74.46 60.79C73.75 59.48 72.72 58.7 71.71 58.1C70.71 57.5 69.94 56.31 69.24 55.06C68.54 53.81 67.88 52.9 66.5 52.78C64.15 52.6 62.13 51.68 60.76 49.83C60.53 49.51 60.69 49.06 61.22 49.09C64.64 49.28 66.7 49.95 68.59 51.64C69.92 52.82 70.79 54.04 71.66 55.28C73.11 57.36 75.19 57.73 77.52 57.72C80.02 57.72 81.67 58.68 82.89 61.88C83.8 64.28 83.95 66.43 82.79 68.15C81.67 69.81 81.42 71.76 81.84 73.53C82.11 74.62 81.98 75.24 82.22 76.34C82.47 77.44 83.17 78.62 84.22 79.75C84.94 80.52 85.19 81.15 85.41 82.09C85.64 83.03 85.95 83.89 86.63 84.64C86.83 84.85 87.13 84.67 86.91 84.37C86.69 84.08 86.2 83.19 86.09 81.91C85.97 80.63 85.38 79.75 84.97 79.28C84.56 78.81 84.2 78.33 83.89 77.46C83.67 76.85 84.18 76.64 84.68 77C86.48 78.28 88.55 80.47 89.26 83.25C89.37 83.66 89.67 83.61 89.64 83.24C89.45 80.85 87.67 77.93 85.51 76.14C84.61 75.39 83.42 74.45 83.08 72.82C82.74 71.2 83.28 69.96 84.15 68.45C85.03 66.94 85.08 64.43 84.04 61.3C83.21 58.8 82 57.56 80.77 56.94C80.73 56.89 80.64 56.85 80.53 56.81C79.45 56.34 78.38 56.3 77.54 56.24C75.67 56.14 74.12 55.98 72.93 54.45C72.44 53.82 71.39 52.17 69.62 50.53"
            fill="white" />
        <path
            d="M59.8199 47.33L58.9999 47.51C57.6199 47.72 56.3499 48.15 55.2399 48.78H55.2199L55.1999 48.8C54.5299 49.19 53.9399 49.64 53.4299 50.14C52.9799 50.59 52.4599 50.79 51.9699 50.97C49.4299 51.88 46.0699 53.77 44.5399 57.65C44.4599 57.85 44.5399 58.03 44.6699 58.09C44.8099 58.16 44.9799 58.11 45.0599 57.96C46.6299 55.38 49.3499 53.31 52.3299 52.42C52.5699 52.35 52.7699 52.37 52.9199 52.47C53.0999 52.58 53.2099 52.82 53.2399 53.1C53.3599 54.26 53.4299 55.19 53.2399 55.82C53.1099 56.28 52.9199 56.74 52.7399 57.18L52.5099 57.74C52.2799 58.31 52.0799 59.26 52.1799 60.21L52.2199 60.57C52.4099 62.2 52.6399 64.23 51.5399 66.16C51.3899 66.42 51.4599 66.61 51.5699 66.69C51.6799 66.78 51.8899 66.8 52.1199 66.58C53.6699 65.1 53.7199 62.8 53.5499 60.53C53.4899 59.76 53.6399 58.99 53.9299 58.46C54.7899 56.85 55.2099 55.79 55.1299 54.46L55.0899 53.58L55.0099 52.23C54.9499 51.69 55.0899 51.26 55.4599 50.89C55.9399 50.41 56.9799 49.8 57.8099 49.65C58.3199 49.56 58.5899 49.81 58.8699 50.25C60.1999 52.4 61.6499 53.54 63.9399 54.42C64.7399 54.73 65.0199 55.04 64.8999 55.94V56.04C64.7799 56.87 64.7099 57.66 63.8999 58.4C62.3399 59.8 61.3499 61.27 60.8899 62.85C60.7399 63.33 60.3799 63.88 59.6299 64.07C57.8999 64.51 56.6499 65.52 56.0399 66.71C55.5799 67.6 55.5399 68.59 55.9199 69.59L56.1999 70.3C56.7799 71.82 57.0699 72.57 57.3999 73.95C57.7599 75.51 58.4399 77.95 59.0299 79.62C59.8999 82.08 60.9699 84.28 61.8799 85.5C62.0699 85.76 62.2799 85.76 62.3999 85.68C62.5399 85.59 62.6199 85.37 62.4699 85.08C61.3299 82.95 60.1299 79.59 59.6399 77.58C59.6199 77.49 59.6399 77.39 59.6899 77.33C59.7299 77.28 59.7899 77.27 59.8599 77.27C60.8199 77.37 63.2099 77.99 64.9199 78.78C65.1599 78.89 65.3699 78.8 65.4499 78.64C65.5299 78.49 65.4899 78.27 65.2399 78.13C63.4599 77.11 60.8999 76.16 59.6299 75.9C59.3499 75.84 59.2099 75.44 59.1399 75.11L58.9499 74.26C58.6199 72.74 58.2599 71.02 57.5599 69.25C57.1399 68.22 57.3699 67.43 58.2899 66.71C58.7799 66.32 59.9299 65.93 60.3799 65.95C60.4899 65.95 60.5699 65.98 60.6499 66.02C60.6899 66.06 60.7999 66.16 60.8399 66.19C60.8999 66.27 60.9399 66.37 60.9699 66.49C61.2899 67.74 62.0199 69.15 62.8399 70.05C63.6099 70.91 64.0599 71.66 64.2799 72.51C64.4099 72.98 64.6599 72.97 64.7299 72.96C64.7999 72.95 65.0399 72.87 65.0099 72.39C64.9499 71.5 64.4799 70.32 63.7999 69.4C63.0799 68.43 62.4799 67.18 62.3099 66.28C62.1599 65.4 62.2799 64.66 62.5199 63.76C62.9799 62.09 64.2199 60.55 65.2499 59.77C66.4899 58.83 67.1499 57.26 67.0299 55.59C67.0199 55.44 67.0999 55.34 67.1899 55.31C67.2999 55.28 67.2999 55.36 67.3799 55.52C68.2799 57.38 69.1999 58.92 70.5199 59.76C72.1299 60.78 73.1899 61.98 73.1999 63.32C73.1999 64.45 72.7899 65.54 71.6099 66.31C67.5899 68.92 68.3299 72.4 69.6599 74.85C70.3499 76.12 70.8199 76.76 71.2799 77.38L71.3299 77.45C71.7599 78.02 71.8199 78.69 71.4999 79.34C70.4499 81.44 70.4899 83.63 71.6199 85.19C72.2999 86.15 72.8699 87.11 73.1399 87.76C73.3099 88.16 73.5499 88.23 73.6999 88.18C73.8499 88.13 73.9799 87.94 73.8699 87.58C73.5999 86.64 73.0499 85.65 72.6399 84.91L72.4999 84.67C71.9199 83.59 72.0799 81.63 72.4499 80.75L72.9699 79.61L73.1899 79.13C73.2599 78.95 73.3899 78.81 73.5099 78.8C73.5899 78.78 73.6699 78.82 73.7499 78.91C74.4399 79.66 74.9999 80.89 75.3699 81.69L75.4499 81.84C75.8499 82.71 76.4899 83.09 77.1099 83.38C78.2099 83.89 79.6099 84.76 80.0099 85.98C80.1199 86.29 80.3199 86.36 80.4599 86.32C80.6399 86.27 80.7499 86.06 80.6999 85.83C80.3699 84.32 79.3199 83.59 77.9999 82.66L77.8499 82.56C77.0199 81.99 76.7099 81.72 76.4199 80.99L76.0899 80.14C75.6199 78.85 75.1999 77.73 74.1099 77.1L73.4499 76.76C72.9799 76.53 72.6499 76.36 72.3299 75.97C70.9599 74.25 70.2499 72.53 70.3499 71.11C70.4399 69.84 71.3399 68.57 72.8099 67.63C74.4599 66.57 75.3999 64.94 75.3199 63.27C75.3199 63.13 75.3499 63.03 75.4399 62.96C75.5599 62.86 75.7599 62.82 75.9699 62.87C78.1299 63.37 79.4299 64.74 79.8199 66.94C79.8799 67.28 80.0899 67.4 80.2799 67.37C80.4699 67.34 80.6599 67.14 80.6299 66.81C80.4999 65.65 80.2099 62.93 77.2999 61.73C76.9799 61.53 76.7399 61.43 76.5599 61.43C76.5599 61.43 76.4399 61.43 76.4099 61.43C76.3599 61.42 75.8399 61.3 75.8399 61.3L75.6299 61.27C75.2199 61.21 74.8699 61.15 74.6399 60.73C73.8799 59.32 72.7299 58.52 71.8199 57.98C70.8399 57.39 70.0799 56.2 69.4099 55C68.7299 53.78 68.0399 52.76 66.5399 52.64C64.0999 52.46 62.1999 51.49 60.9199 49.76C60.8799 49.7 60.8499 49.63 60.8499 49.56C60.8499 49.52 60.8499 49.48 60.8799 49.44C60.9399 49.33 61.0599 49.28 61.2299 49.29C64.6799 49.48 66.6499 50.16 68.4899 51.79C69.8199 52.97 70.6899 54.21 71.5299 55.4C73.0899 57.62 75.3399 57.92 77.5399 57.91C79.7399 57.91 81.4599 58.59 82.7499 61.96C83.7299 64.54 83.6999 66.54 82.6599 68.07C81.5699 69.69 81.2199 71.65 81.6899 73.59C81.8199 74.14 81.8499 74.56 81.8899 75.01C81.9199 75.43 81.9499 75.86 82.0799 76.4C82.3399 77.52 83.0399 78.73 84.1199 79.89C84.8299 80.65 85.0599 81.25 85.2699 82.15C85.4699 82.99 85.7699 83.95 86.5299 84.78C86.6899 84.95 86.9199 84.97 87.0699 84.85C87.1899 84.74 87.2499 84.53 87.0799 84.3C87.0499 84.26 86.4299 83.41 86.2899 81.92C86.1699 80.63 85.5999 79.73 85.1299 79.2C84.7599 78.77 84.3999 78.31 84.0799 77.44C84.0199 77.27 84.0299 77.13 84.0999 77.07C84.1799 77.01 84.3899 77.02 84.5999 77.17C85.6799 77.94 88.2799 80.09 89.1099 83.32C89.1999 83.67 89.3999 83.76 89.5499 83.74C89.6999 83.71 89.8499 83.56 89.8299 83.26C89.6399 80.89 87.9199 77.92 85.6299 76.04L85.5299 75.96C84.6599 75.23 83.5699 74.33 83.2599 72.82C83.1899 72.49 83.1599 72.19 83.1599 71.88C83.1599 70.79 83.5899 69.82 84.3099 68.56C84.7699 67.76 84.9999 66.75 84.9999 65.57C84.9999 64.3 84.7399 62.85 84.2099 61.27C83.4699 59.05 82.3799 57.61 80.8899 56.84C80.8799 56.84 80.7399 56.47 80.7399 56.47C79.7099 56.01 78.5199 55.77 77.6899 55.73H77.5599C75.6399 55.61 74.1899 55.81 73.0699 54.38L72.7199 53.9C72.1399 53.1 71.1799 51.76 69.7499 50.44C69.2299 49.94 68.5999 49.48 67.8999 49.08C67.8399 49 67.7299 48.94 67.2599 48.74C66.4799 48.35 65.6099 48.02 64.6799 47.78C64.3899 47.69 63.9899 47.57 63.7899 47.54L62.9199 47.44L61.8399 47.35C60.8699 47.28 60.2099 47.27 59.8199 47.32V47.33ZM55.4199 49.07C56.4899 48.47 57.7199 48.05 59.0799 47.85C59.0999 47.85 59.8699 47.67 59.8699 47.67C60.2399 47.62 60.8899 47.64 61.8299 47.71L62.8999 47.8L63.7699 47.9C63.8999 47.91 64.1999 48 64.5999 48.13C65.5099 48.37 66.3599 48.68 67.1299 49.06C67.2499 49.11 67.5899 49.26 67.6499 49.31L67.6999 49.35L67.6699 49.33L67.7199 49.38C68.3999 49.78 68.9999 50.22 69.5199 50.71C70.9199 52.02 71.8799 53.33 72.4499 54.12L72.8099 54.61C74.0199 56.16 75.5399 56.36 77.5499 56.47H77.6799C78.4799 56.53 79.4799 56.58 80.4799 57.02C80.4999 57.02 80.6599 57.1 80.6599 57.1L80.7099 57.14C82.1299 57.86 83.1799 59.25 83.8999 61.4C84.4099 62.92 84.6599 64.35 84.6599 65.59C84.6599 66.71 84.4499 67.68 84.0199 68.41C83.2699 69.72 82.8199 70.74 82.8199 71.88C82.8199 72.21 82.8599 72.55 82.9299 72.9C83.2699 74.52 84.3999 75.47 85.3199 76.24L85.4199 76.32C87.6399 78.15 89.3099 81.02 89.4899 83.3V83.33C89.4899 83.33 89.4899 83.34 89.4899 83.36C89.4699 83.33 89.4599 83.3 89.4499 83.25C88.5899 79.91 85.9199 77.7 84.8099 76.91C84.4899 76.68 84.1299 76.64 83.8999 76.82C83.8299 76.87 83.6999 77 83.6999 77.25C83.6999 77.34 83.7199 77.45 83.7599 77.58C84.0999 78.5 84.4999 79.01 84.8799 79.45C85.3099 79.94 85.8499 80.78 85.9499 81.98C86.0599 83.25 86.5399 84.18 86.7999 84.53C86.8299 84.57 86.8299 84.59 86.8299 84.61C86.8199 84.61 86.7999 84.61 86.7799 84.58C86.0799 83.81 85.7999 82.89 85.6099 82.1C85.3899 81.16 85.1299 80.5 84.3699 79.68C83.3399 78.57 82.6599 77.42 82.4199 76.36C82.2999 75.84 82.2699 75.42 82.2399 75.02C82.2099 74.58 82.1699 74.13 82.0299 73.55C81.8999 73.02 81.8399 72.48 81.8399 71.95C81.8399 70.65 82.2199 69.4 82.9499 68.3C83.5199 67.45 83.8099 66.48 83.8099 65.36C83.8099 64.33 83.5599 63.17 83.0799 61.87C81.9099 58.83 80.3099 57.59 77.5399 57.6C75.4299 57.6 73.2799 57.33 71.8199 55.23C70.9699 54.02 70.0899 52.77 68.7199 51.56C66.8399 49.89 64.7399 49.17 61.2499 48.97C60.9399 48.95 60.6999 49.07 60.5699 49.29C60.5199 49.38 60.4999 49.48 60.4999 49.58C60.4999 49.72 60.5499 49.86 60.6399 49.98C61.9699 51.77 63.9999 52.81 66.5099 53C67.8399 53.11 68.4699 54.06 69.1099 55.19C69.8099 56.43 70.5999 57.67 71.6399 58.3C72.5699 58.85 73.6099 59.59 74.3299 60.92C74.6499 61.49 75.1399 61.57 75.5799 61.63L75.7699 61.66L76.3799 61.8H76.5899C76.5899 61.8 76.7799 61.8 77.1499 62.04C79.5799 63.04 80.1099 65.03 80.2999 66.85C80.2999 66.87 80.2999 66.88 80.2999 66.89C80.2999 66.99 80.2599 67.03 80.2399 67.03C80.2399 67.03 80.1899 66.99 80.1699 66.88C79.6499 63.94 77.6499 62.89 76.0599 62.53C75.7499 62.45 75.4399 62.51 75.2299 62.69C75.0699 62.82 74.9899 63.01 74.9899 63.23V63.28C74.9899 63.34 74.9899 63.41 74.9899 63.47C74.9899 64.95 74.1199 66.39 72.6299 67.34C71.0599 68.35 70.1099 69.71 70.0099 71.09C70.0099 71.18 70.0099 71.28 70.0099 71.37C70.0099 72.82 70.7399 74.51 72.0799 76.18C72.4399 76.64 72.8499 76.84 73.3199 77.07L73.9599 77.4C74.9499 77.96 75.3399 79.03 75.7899 80.25L76.1099 81.11C76.4299 81.92 76.8099 82.25 77.6599 82.84L77.8099 82.94C79.1199 83.86 80.0699 84.52 80.3699 85.9C80.3699 85.9 80.3699 85.91 80.3699 85.92C80.3699 85.9 80.3499 85.9 80.3399 85.87C79.9099 84.53 78.4299 83.6 77.2599 83.06C76.7299 82.82 76.1399 82.49 75.7699 81.69L75.6999 81.54C75.3099 80.71 74.7399 79.46 74.0199 78.66C73.8599 78.49 73.6599 78.41 73.4699 78.45C73.2299 78.49 73.0099 78.69 72.8899 78.98L72.6699 79.45L72.1499 80.61C71.9399 81.11 71.7899 81.92 71.7899 82.75C71.7899 83.5 71.9099 84.26 72.2099 84.82L72.3499 85.07C72.7499 85.79 73.2899 86.77 73.5499 87.67C73.5699 87.72 73.5699 87.77 73.5699 87.8C73.5399 87.77 73.5099 87.71 73.4699 87.62C73.1899 86.95 72.6099 85.97 71.9099 84.98C71.3699 84.23 71.0999 83.32 71.0999 82.35C71.0999 81.43 71.3399 80.45 71.8199 79.49C71.9799 79.17 72.0599 78.84 72.0599 78.51C72.0599 78.07 71.9099 77.63 71.6199 77.24L71.5699 77.17C71.1199 76.56 70.6599 75.93 69.9799 74.68C68.7199 72.35 68.0099 69.06 71.8099 66.6C73.0899 65.77 73.7899 64.62 73.7799 63.37C73.7799 61.91 72.8299 60.51 71.1199 59.42C69.8499 58.62 68.6799 57.18 67.8099 55.39C67.6199 55 67.3199 54.92 67.1099 54.98C66.8699 55.05 66.6999 55.28 66.6999 55.56C66.6999 55.58 66.6999 55.6 66.6999 55.61C66.6999 55.73 66.7099 55.86 66.7099 55.98C66.7099 57.39 66.1099 58.68 65.0499 59.48C63.9799 60.3 62.6799 61.91 62.1999 63.66C62.0199 64.31 61.9099 64.89 61.9099 65.49C61.9099 65.76 61.9299 66.04 61.9899 66.33C62.1599 67.28 62.7899 68.59 63.5299 69.59C64.1799 70.46 64.6299 71.56 64.6799 72.39C64.6799 72.41 64.6799 72.44 64.6799 72.45C64.6799 72.48 64.6799 72.5 64.6799 72.52C64.6599 72.49 64.6499 72.45 64.6299 72.4C64.3899 71.51 63.9199 70.7 63.1099 69.81C62.3399 68.95 61.6199 67.58 61.3199 66.39C61.2699 66.22 61.2199 66.08 61.1299 65.97V65.95L61.0899 65.93L60.8699 65.72L60.8499 65.7C60.7199 65.62 60.5699 65.59 60.4099 65.59C59.8999 65.57 58.6599 65.98 58.0999 66.42C57.3899 66.99 57.0299 67.6 57.0299 68.31C57.0299 68.64 57.1099 68.99 57.2599 69.37C57.9499 71.11 58.3099 72.81 58.6399 74.32L58.8299 75.17C58.9699 75.8 59.2299 76.15 59.5899 76.23C60.8099 76.48 63.3799 77.43 65.0999 78.41C65.1399 78.44 65.1499 78.46 65.1599 78.47C65.1499 78.47 65.1199 78.47 65.0999 78.45C63.2799 77.61 60.8899 77.01 59.9199 76.91C59.7399 76.89 59.5699 76.96 59.4599 77.09C59.3599 77.2 59.3099 77.34 59.3099 77.49C59.3099 77.54 59.3099 77.6 59.3299 77.65C59.8299 79.68 61.0399 83.07 62.1899 85.23C62.2099 85.27 62.2099 85.29 62.2199 85.32C62.2099 85.31 62.1999 85.3 62.1899 85.29C61.2899 84.09 60.2499 81.93 59.3799 79.49C58.7899 77.84 58.1199 75.41 57.7599 73.87C57.4299 72.47 57.1399 71.7 56.5499 70.18L56.2699 69.46C56.1099 69.05 56.0299 68.64 56.0299 68.24C56.0299 67.76 56.1399 67.29 56.3699 66.86C56.9399 65.76 58.1999 64.89 59.8399 64.47C60.7299 64.25 61.2499 63.5 61.4099 62.93C61.8599 61.42 62.8199 60.02 64.3199 58.66C65.2199 57.84 65.3499 56.88 65.4599 56.03L65.4799 55.93C65.4999 55.78 65.5099 55.64 65.5099 55.5C65.5099 54.7 65.1399 54.21 64.3299 53.9C62.0499 53.03 60.4799 52.12 59.1899 50.05C58.9099 49.6 58.5199 49.15 57.7799 49.29C56.8699 49.45 55.7799 50.09 55.2499 50.62C54.8699 51 54.6799 51.44 54.6799 51.97C54.6799 52.06 54.6799 52.15 54.6999 52.24L54.7799 53.57L54.8199 54.46C54.8199 54.56 54.8199 54.66 54.8199 54.75C54.8199 55.87 54.4199 56.85 53.6499 58.28C53.3699 58.78 53.2199 59.48 53.2199 60.19C53.2199 60.31 53.2199 60.42 53.2399 60.54C53.2799 61.05 53.2999 61.57 53.2999 62.08C53.2999 63.72 53.0099 65.26 51.9099 66.31C51.8799 66.34 51.8799 66.34 51.8599 66.35C51.8599 66.33 51.8599 66.33 51.8699 66.31C52.5699 65.1 52.7599 63.86 52.7599 62.69C52.7599 61.92 52.6699 61.18 52.5999 60.51L52.5599 60.16C52.5499 60.01 52.5399 59.86 52.5399 59.7C52.5399 59.07 52.6599 58.39 52.8699 57.86L53.0899 57.3C53.2799 56.85 53.4699 56.39 53.5999 55.91C53.6899 55.6 53.7299 55.24 53.7299 54.82C53.7299 54.31 53.6799 53.72 53.6099 53.06C53.5699 52.67 53.3999 52.35 53.1399 52.17C52.9699 52.06 52.6799 51.95 52.2499 52.08C49.3599 52.95 46.7199 54.91 45.0699 57.35C46.6299 53.88 49.7199 52.13 52.0999 51.29C52.5999 51.11 53.1799 50.88 53.6799 50.38C54.1599 49.9 54.7299 49.47 55.3699 49.09L55.3299 49.11L55.4299 49.06L55.4199 49.07ZM80.8899 56.85L80.8399 56.82C80.8499 56.82 80.8699 56.84 80.8799 56.85H80.8899Z"
            fill="#002856" />
        <path
            d="M56.26 80.4C55.57 80.18 55.23 79.77 54.53 78.86C54.43 78.84 54.27 78.68 54.01 78.53C53.54 78.25 52.81 77.26 52.55 77.04C52.3 76.82 50.8 75.83 50.57 75.74C49.04 75.2 48.59 73.69 48.22 73.13L48.19 73.08C47.81 72.48 47.38 71.83 46.94 71.15C47 71.26 46.33 70.21 46.16 69.98C46.16 69.98 46.16 69.98 46.16 69.96C46.02 69.75 45.39 69.37 45.44 69.63C45.49 69.89 45.77 70.63 45.94 70.82C46.11 71.01 46.7 72.04 46.76 72.35C46.81 72.65 47.54 73.63 47.73 73.94C48.26 74.83 48.71 75.61 48.99 76.19C49.43 77.11 49.59 77.48 49.8 78.4C50.06 79.56 50.59 81.21 51.11 82.1C51.21 82.26 51.29 82.31 51.32 82.3C51.35 82.28 51.39 82.17 51.32 81.98C50.82 80.54 50.37 78.33 50.26 77.66C50.2 77.35 50.24 77.16 50.37 77.07C50.52 76.96 50.77 77.02 51.13 77.22C51.99 77.73 52.96 78.59 53.78 79.59C54.22 80.14 54.99 80.82 56.09 81.01C56.26 81.04 56.36 80.98 56.39 80.91V80.87C56.37 80.8 56.41 80.44 56.26 80.39V80.4Z"
            fill="white" />
    </g>
    <path
        d="M65.6 102C45.2 102 28.61 85.41 28.61 65.01C28.61 44.61 45.2 28.02 65.6 28.02C86 28.02 102.58 44.61 102.58 65.01C102.58 85.41 85.99 102 65.6 102ZM65.6 29.21C45.86 29.21 29.79 45.27 29.79 65.02C29.79 84.77 45.85 100.82 65.6 100.82C85.35 100.82 101.4 84.76 101.4 65.02C101.4 45.28 85.34 29.21 65.6 29.21Z"
        fill="#002856" />
    <path
        d="M129.59 28.02H132.7L141.11 47.26H137.56L135.62 42.65H126.58L124.62 47.26H121.18L129.59 28.02ZM134.39 39.67L131.09 32.03L127.81 39.67H134.39Z"
        fill="#002856" />
    <path
        d="M144.66 28.15H148.24L154.05 37.19L159.86 28.15H163.44V47.26H160.08V33.56L154.05 42.57H153.94L147.96 33.62V47.27H144.66V28.16V28.15Z"
        fill="#002856" />
    <path
        d="M168.63 28.15H182.8V31.15H171.99V36.12H181.57V39.12H171.99V44.25H182.94V47.25H168.64V28.14L168.63 28.15Z"
        fill="#002856" />
    <path
        d="M187.19 28.15H195.71C198.11 28.15 200 28.86 201.22 30.06C202.23 31.1 202.8 32.52 202.8 34.18V34.23C202.8 37.37 200.92 39.25 198.27 40.02L203.43 47.25H199.44L194.74 40.59H190.54V47.25H187.18V28.14L187.19 28.15ZM195.46 37.63C197.86 37.63 199.39 36.37 199.39 34.44V34.39C199.39 32.34 197.92 31.22 195.43 31.22H190.54V37.63H195.45H195.46Z"
        fill="#002856" />
    <path d="M207.39 28.15H210.75V47.26H207.39V28.15Z" fill="#002856" />
    <path
        d="M215.28 37.76V37.71C215.28 32.28 219.35 27.83 225.13 27.83C228.65 27.83 230.78 29.06 232.61 30.81L230.45 33.29C228.92 31.87 227.28 30.92 225.1 30.92C221.47 30.92 218.8 33.92 218.8 37.66V37.71C218.8 41.45 221.45 44.48 225.1 44.48C227.45 44.48 228.95 43.55 230.59 42.02L232.75 44.2C230.76 46.27 228.57 47.58 225 47.58C219.43 47.58 215.28 43.24 215.28 37.75V37.76Z"
        fill="#002856" />
    <path
        d="M243.32 28.02H246.43L254.84 47.26H251.29L249.35 42.65H240.31L238.35 47.26H234.91L243.32 28.02ZM248.12 39.67L244.82 32.03L241.54 39.67H248.12Z"
        fill="#002856" />
    <path
        d="M258.38 28.15H261.49L271.73 41.36V28.15H275.03V47.26H272.22L261.68 33.67V47.26H258.38V28.15Z"
        fill="#002856" />
    <path
        d="M121.97 65.06V65.01C121.97 59.58 126.04 55.13 131.82 55.13C135.34 55.13 137.47 56.36 139.3 58.11L137.14 60.59C135.61 59.17 133.97 58.22 131.79 58.22C128.16 58.22 125.49 61.22 125.49 64.96V65.01C125.49 68.75 128.14 71.78 131.79 71.78C134.14 71.78 135.64 70.85 137.28 69.32L139.44 71.5C137.45 73.57 135.26 74.88 131.69 74.88C126.12 74.88 121.97 70.54 121.97 65.05V65.06Z"
        fill="#002856" />
    <path
        d="M141.85 65.06V65.01C141.85 59.63 146 55.13 151.87 55.13C157.74 55.13 161.83 59.58 161.83 64.96V65.01C161.83 70.39 157.68 74.89 151.81 74.89C145.94 74.89 141.85 70.44 141.85 65.06ZM158.31 65.06V65.01C158.31 61.3 155.61 58.21 151.81 58.21C148.01 58.21 145.37 61.24 145.37 64.95V65C145.37 68.71 148.07 71.77 151.87 71.77C155.67 71.77 158.31 68.77 158.31 65.05V65.06Z"
        fill="#002856" />
    <path d="M166.17 55.45H169.53V71.5H179.58V74.56H166.18V55.45H166.17Z" fill="#002856" />
    <path d="M183.34 55.45H186.7V71.5H196.75V74.56H183.35V55.45H183.34Z" fill="#002856" />
    <path
        d="M200.51 55.45H214.68V58.45H203.87V63.42H213.45V66.42H203.87V71.55H214.82V74.55H200.52V55.44L200.51 55.45Z"
        fill="#002856" />
    <path
        d="M218.23 65.06V65.01C218.23 59.66 222.32 55.13 228.08 55.13C231.41 55.13 233.46 56.06 235.42 57.72L233.29 60.26C231.82 59 230.37 58.21 227.94 58.21C224.42 58.21 221.74 61.29 221.74 64.95V65C221.74 68.93 224.33 71.82 228.24 71.82C230.04 71.82 231.68 71.25 232.85 70.37V66.79H227.96V63.87H236.09V71.89C234.21 73.5 231.5 74.87 228.12 74.87C222.14 74.87 218.21 70.61 218.21 65.04L218.23 65.06Z"
        fill="#002856" />
    <path
        d="M240.75 55.45H254.92V58.45H244.11V63.42H253.69V66.42H244.11V71.55H255.06V74.55H240.76V55.44L240.75 55.45Z"
        fill="#002856" />
    <path
        d="M266.6 67.44V67.39C266.6 63.27 269.88 59.86 274.3 59.86C278.72 59.86 281.97 63.22 281.97 67.34V67.39C281.97 71.48 278.69 74.9 274.25 74.9C269.81 74.9 266.61 71.54 266.61 67.45L266.6 67.44ZM278.67 67.44V67.39C278.67 64.85 276.84 62.75 274.25 62.75C271.66 62.75 269.91 64.82 269.91 67.34V67.39C269.91 69.9 271.74 72 274.3 72C276.86 72 278.67 69.93 278.67 67.44Z"
        fill="#002856" />
    <path
        d="M286.34 62.99H284.51V60.23H286.34V59.17C286.34 57.59 286.75 56.39 287.51 55.62C288.27 54.86 289.34 54.47 290.76 54.47C291.91 54.47 292.7 54.63 293.44 54.85V57.63C292.78 57.41 292.21 57.28 291.5 57.28C290.24 57.28 289.59 57.96 289.59 59.46V60.25H293.41V62.98H289.64V74.55H286.34V62.98V62.99Z"
        fill="#002856" />
    <path
        d="M121.97 92.36V92.31C121.97 86.88 126.04 82.43 131.82 82.43C135.34 82.43 137.47 83.66 139.3 85.41L137.14 87.89C135.61 86.47 133.97 85.52 131.79 85.52C128.16 85.52 125.49 88.52 125.49 92.26V92.31C125.49 96.05 128.14 99.08 131.79 99.08C134.14 99.08 135.64 98.15 137.28 96.62L139.44 98.8C137.45 100.87 135.26 102.18 131.69 102.18C126.12 102.18 121.97 97.84 121.97 92.35V92.36Z"
        fill="#002856" />
    <path
        d="M150.01 82.62H153.12L161.53 101.86H157.98L156.04 97.25H147L145.04 101.86H141.6L150.01 82.62ZM154.81 94.27L151.51 86.63L148.23 94.27H154.81Z"
        fill="#002856" />
    <path
        d="M165.08 82.75H173.6C176 82.75 177.89 83.46 179.11 84.66C180.12 85.7 180.69 87.12 180.69 88.78V88.83C180.69 91.97 178.81 93.85 176.16 94.62L181.32 101.85H177.33L172.63 95.19H168.43V101.85H165.07V82.74L165.08 82.75ZM173.35 92.22C175.75 92.22 177.28 90.96 177.28 89.03V88.98C177.28 86.93 175.81 85.81 173.32 85.81H168.43V92.22H173.34H173.35Z"
        fill="#002856" />
    <path
        d="M185.09 82.75H192.21C198.22 82.75 202.36 86.87 202.36 92.25V92.3C202.36 97.68 198.21 101.85 192.21 101.85H185.09V82.74V82.75ZM188.44 85.81V98.8H192.21C196.22 98.8 198.84 96.1 198.84 92.36V92.31C198.84 88.57 196.22 85.81 192.21 85.81H188.44Z"
        fill="#002856" />
    <path d="M206.9 82.75H210.26V101.86H206.9V82.75Z" fill="#002856" />
    <path
        d="M214.79 92.36V92.31C214.79 86.93 218.94 82.43 224.81 82.43C230.68 82.43 234.77 86.88 234.77 92.26V92.31C234.77 97.69 230.62 102.19 224.75 102.19C218.88 102.19 214.79 97.74 214.79 92.36ZM231.25 92.36V92.31C231.25 88.6 228.55 85.51 224.75 85.51C220.95 85.51 218.31 88.54 218.31 92.25V92.3C218.31 96.01 221.01 99.07 224.81 99.07C228.61 99.07 231.25 96.07 231.25 92.35V92.36Z"
        fill="#002856" />
    <path d="M239.11 82.75H242.47V98.8H252.52V101.86H239.12V82.75H239.11Z" fill="#002856" />
    <path
        d="M254.34 92.36V92.31C254.34 86.93 258.49 82.43 264.36 82.43C270.23 82.43 274.32 86.88 274.32 92.26V92.31C274.32 97.69 270.17 102.19 264.3 102.19C258.43 102.19 254.34 97.74 254.34 92.36ZM270.8 92.36V92.31C270.8 88.6 268.1 85.51 264.3 85.51C260.5 85.51 257.86 88.54 257.86 92.25V92.3C257.86 96.01 260.56 99.07 264.36 99.07C268.16 99.07 270.8 96.07 270.8 92.35V92.36Z"
        fill="#002856" />
    <path
        d="M277.82 92.36V92.31C277.82 86.96 281.91 82.43 287.67 82.43C291 82.43 293.05 83.36 295.01 85.02L292.88 87.56C291.41 86.3 289.96 85.51 287.53 85.51C284.01 85.51 281.33 88.59 281.33 92.25V92.3C281.33 96.23 283.92 99.12 287.83 99.12C289.63 99.12 291.27 98.55 292.44 97.67V94.09H287.55V91.17H295.68V99.19C293.8 100.8 291.09 102.17 287.71 102.17C281.73 102.17 277.8 97.91 277.8 92.34L277.82 92.36Z"
        fill="#002856" />
    <path
        d="M305.15 94.33L297.56 82.76H301.54L306.86 91.19L312.26 82.76H316.11L308.52 94.25V101.87H305.14V94.34L305.15 94.33Z"
        fill="#002856" />
    <path
        d="M312.48 98.32V98.3C312.48 96.24 314.15 94.51 316.25 94.51C318.35 94.51 320.02 96.22 320.02 98.28V98.3C320.02 100.36 318.35 102.09 316.25 102.09C314.15 102.09 312.48 100.38 312.48 98.32ZM319.59 98.29V98.27C319.59 96.43 318.16 94.91 316.25 94.91C314.34 94.91 312.91 96.45 312.91 98.29V98.31C312.91 100.15 314.34 101.67 316.25 101.67C318.16 101.67 319.59 100.13 319.59 98.29ZM314.69 96.26H316.53C317.44 96.26 318.11 96.67 318.11 97.56C318.11 98.19 317.76 98.6 317.24 98.77L318.24 100.18H317.09L316.24 98.94H315.63V100.18H314.68V96.26H314.69ZM316.47 98.16C316.9 98.16 317.14 97.94 317.14 97.62C317.14 97.27 316.88 97.08 316.47 97.08H315.65V98.16H316.47Z"
        fill="#002856" />
    <path
        d="M419.34 76.69H418.283C418.22 76.386 418.111 76.119 417.955 75.8889C417.801 75.6588 417.614 75.4656 417.392 75.3093C417.173 75.1502 416.93 75.0309 416.663 74.9514C416.396 74.8718 416.118 74.832 415.828 74.832C415.3 74.832 414.821 74.9656 414.392 75.2326C413.966 75.4997 413.626 75.8931 413.374 76.413C413.124 76.9329 412.999 77.5707 412.999 78.3264C412.999 79.082 413.124 79.7198 413.374 80.2397C413.626 80.7596 413.966 81.1531 414.392 81.4201C414.821 81.6872 415.3 81.8207 415.828 81.8207C416.118 81.8207 416.396 81.7809 416.663 81.7014C416.93 81.6218 417.173 81.5039 417.392 81.3477C417.614 81.1886 417.801 80.994 417.955 80.7639C418.111 80.5309 418.22 80.2639 418.283 79.9627H419.34C419.26 80.4088 419.115 80.8079 418.905 81.1602C418.695 81.5124 418.433 81.8122 418.121 82.0593C417.808 82.3036 417.457 82.4897 417.068 82.6176C416.682 82.7454 416.269 82.8093 415.828 82.8093C415.084 82.8093 414.422 82.6275 413.842 82.2639C413.263 81.9002 412.807 81.3832 412.474 80.7127C412.142 80.0423 411.976 79.2468 411.976 78.3264C411.976 77.4059 412.142 76.6105 412.474 75.94C412.807 75.2695 413.263 74.7525 413.842 74.3889C414.422 74.0252 415.084 73.8434 415.828 73.8434C416.269 73.8434 416.682 73.9073 417.068 74.0352C417.457 74.163 417.808 74.3505 418.121 74.5977C418.433 74.842 418.695 75.1403 418.905 75.4926C419.115 75.842 419.26 76.2411 419.34 76.69ZM422.837 82.8434C422.422 82.8434 422.046 82.7653 421.708 82.609C421.37 82.4499 421.101 82.2213 420.902 81.923C420.704 81.6218 420.604 81.2582 420.604 80.832C420.604 80.457 420.678 80.1531 420.826 79.9201C420.973 79.6843 421.171 79.4997 421.418 79.3661C421.665 79.2326 421.938 79.1332 422.236 79.0678C422.537 78.9997 422.84 78.9457 423.144 78.9059C423.542 78.8548 423.864 78.8164 424.111 78.7909C424.361 78.7624 424.543 78.7156 424.657 78.6502C424.773 78.5849 424.831 78.4713 424.831 78.3093V78.2752C424.831 77.8548 424.716 77.5281 424.486 77.2951C424.259 77.0622 423.914 76.9457 423.451 76.9457C422.971 76.9457 422.594 77.0508 422.321 77.261C422.049 77.4713 421.857 77.6957 421.746 77.9343L420.792 77.5934C420.962 77.1957 421.189 76.886 421.473 76.6644C421.76 76.44 422.073 76.2838 422.411 76.1957C422.752 76.1048 423.087 76.0593 423.417 76.0593C423.627 76.0593 423.868 76.0849 424.141 76.136C424.417 76.1843 424.682 76.2852 424.938 76.4386C425.196 76.592 425.411 76.8235 425.581 77.1332C425.752 77.4428 425.837 77.8576 425.837 78.3775V82.69H424.831V81.8036H424.78C424.712 81.9457 424.598 82.0977 424.439 82.2596C424.28 82.4215 424.069 82.5593 423.804 82.673C423.54 82.7866 423.218 82.8434 422.837 82.8434ZM422.99 81.94C423.388 81.94 423.723 81.8619 423.996 81.7056C424.272 81.5494 424.479 81.3477 424.618 81.1005C424.76 80.8534 424.831 80.5934 424.831 80.3207V79.4002C424.789 79.4514 424.695 79.4982 424.55 79.5409C424.408 79.5806 424.243 79.6161 424.056 79.6474C423.871 79.6758 423.691 79.7014 423.515 79.7241C423.341 79.744 423.201 79.761 423.093 79.7752C422.831 79.8093 422.587 79.8647 422.36 79.9414C422.135 80.0153 421.954 80.1275 421.814 80.2781C421.678 80.4258 421.61 80.6275 421.61 80.8832C421.61 81.2326 421.739 81.4968 421.998 81.6758C422.259 81.8519 422.59 81.94 422.99 81.94ZM427.673 82.69V76.1445H428.644V77.1332H428.712C428.832 76.8093 429.048 76.5465 429.36 76.3448C429.673 76.1431 430.025 76.0423 430.417 76.0423C430.491 76.0423 430.583 76.0437 430.694 76.0465C430.805 76.0494 430.889 76.0536 430.945 76.0593V77.082C430.911 77.0735 430.833 77.0607 430.711 77.0437C430.592 77.0238 430.465 77.0139 430.332 77.0139C430.014 77.0139 429.729 77.0806 429.479 77.2142C429.232 77.3448 429.036 77.5266 428.891 77.7596C428.749 77.9897 428.678 78.2525 428.678 78.548V82.69H427.673ZM434.41 82.8264C433.864 82.8264 433.383 82.6886 432.965 82.413C432.548 82.1346 432.221 81.7426 431.985 81.2369C431.749 80.7284 431.631 80.1275 431.631 79.4343C431.631 78.7468 431.749 78.1502 431.985 77.6445C432.221 77.1389 432.549 76.7482 432.97 76.4727C433.39 76.1971 433.876 76.0593 434.427 76.0593C434.853 76.0593 435.19 76.1303 435.437 76.2724C435.687 76.4116 435.877 76.5707 436.008 76.7497C436.141 76.9258 436.245 77.0707 436.319 77.1843H436.404V73.9627H437.41V82.69H436.438V81.6843H436.319C436.245 81.8036 436.14 81.9542 436.004 82.136C435.867 82.315 435.673 82.4755 435.42 82.6176C435.167 82.7568 434.83 82.8264 434.41 82.8264ZM434.546 81.923C434.95 81.923 435.291 81.8178 435.569 81.6076C435.847 81.3945 436.059 81.1005 436.204 80.7255C436.349 80.3477 436.421 79.9116 436.421 79.4173C436.421 78.9286 436.35 78.5011 436.208 78.1346C436.066 77.7653 435.856 77.4784 435.577 77.2738C435.299 77.0664 434.955 76.9627 434.546 76.9627C434.12 76.9627 433.765 77.0721 433.481 77.2909C433.2 77.5068 432.988 77.8008 432.846 78.173C432.707 78.5423 432.637 78.957 432.637 79.4173C432.637 79.8832 432.708 80.3065 432.85 80.6872C432.995 81.065 433.208 81.3661 433.489 81.5906C433.774 81.8122 434.126 81.923 434.546 81.923ZM439.391 82.69V76.1445H440.397V82.69H439.391ZM439.903 75.0536C439.707 75.0536 439.538 74.9869 439.396 74.8534C439.256 74.7198 439.187 74.5593 439.187 74.3718C439.187 74.1843 439.256 74.0238 439.396 73.8903C439.538 73.7568 439.707 73.69 439.903 73.69C440.099 73.69 440.266 73.7568 440.406 73.8903C440.548 74.0238 440.619 74.1843 440.619 74.3718C440.619 74.5593 440.548 74.7198 440.406 74.8534C440.266 74.9869 440.099 75.0536 439.903 75.0536ZM444.898 82.8264C444.307 82.8264 443.789 82.6857 443.343 82.4045C442.9 82.1232 442.553 81.7298 442.303 81.2241C442.056 80.7184 441.932 80.1275 441.932 79.4514C441.932 78.7695 442.056 78.1744 442.303 77.6659C442.553 77.1573 442.9 76.7624 443.343 76.4812C443.789 76.1999 444.307 76.0593 444.898 76.0593C445.489 76.0593 446.006 76.1999 446.449 76.4812C446.895 76.7624 447.242 77.1573 447.489 77.6659C447.739 78.1744 447.864 78.7695 447.864 79.4514C447.864 80.1275 447.739 80.7184 447.489 81.2241C447.242 81.7298 446.895 82.1232 446.449 82.4045C446.006 82.6857 445.489 82.8264 444.898 82.8264ZM444.898 81.923C445.347 81.923 445.716 81.8079 446.006 81.5778C446.296 81.3477 446.51 81.0451 446.65 80.6701C446.789 80.2951 446.858 79.8889 446.858 79.4514C446.858 79.0139 446.789 78.6062 446.65 78.2284C446.51 77.8505 446.296 77.5451 446.006 77.3122C445.716 77.0792 445.347 76.9627 444.898 76.9627C444.449 76.9627 444.08 77.0792 443.79 77.3122C443.5 77.5451 443.286 77.8505 443.147 78.2284C443.008 78.6062 442.938 79.0139 442.938 79.4514C442.938 79.8889 443.008 80.2951 443.147 80.6701C443.286 81.0451 443.5 81.3477 443.79 81.5778C444.08 81.8079 444.449 81.923 444.898 81.923ZM454.308 76.1445C454.257 75.7127 454.05 75.3775 453.686 75.1389C453.323 74.9002 452.876 74.7809 452.348 74.7809C451.962 74.7809 451.624 74.8434 451.334 74.9684C451.047 75.0934 450.823 75.2653 450.661 75.484C450.501 75.7028 450.422 75.9514 450.422 76.2298C450.422 76.4627 450.477 76.663 450.588 76.8306C450.702 76.9954 450.847 77.1332 451.023 77.244C451.199 77.3519 451.384 77.4414 451.577 77.5124C451.77 77.5806 451.948 77.636 452.109 77.6786L452.996 77.9173C453.223 77.9769 453.476 78.0593 453.754 78.1644C454.036 78.2695 454.304 78.413 454.56 78.5948C454.818 78.7738 455.031 79.0039 455.199 79.2852C455.367 79.5664 455.45 79.9116 455.45 80.3207C455.45 80.7923 455.327 81.2184 455.08 81.5991C454.835 81.9798 454.477 82.2823 454.006 82.5068C453.537 82.7312 452.967 82.8434 452.297 82.8434C451.672 82.8434 451.131 82.7426 450.673 82.5409C450.219 82.3392 449.861 82.0579 449.599 81.6971C449.341 81.3363 449.195 80.9173 449.161 80.44H450.251C450.28 80.7695 450.391 81.0423 450.584 81.2582C450.78 81.4713 451.027 81.6303 451.325 81.7355C451.626 81.8377 451.95 81.8889 452.297 81.8889C452.7 81.8889 453.063 81.8235 453.384 81.6928C453.705 81.5593 453.959 81.3747 454.146 81.1389C454.334 80.9002 454.428 80.6218 454.428 80.3036C454.428 80.0139 454.347 79.7781 454.185 79.5963C454.023 79.4144 453.81 79.2667 453.546 79.1531C453.281 79.0394 452.996 78.94 452.689 78.8548L451.615 78.548C450.933 78.3519 450.394 78.0721 449.996 77.7085C449.598 77.3448 449.399 76.869 449.399 76.2809C449.399 75.7923 449.531 75.3661 449.796 75.0025C450.063 74.636 450.421 74.3519 450.869 74.1502C451.321 73.9457 451.825 73.8434 452.382 73.8434C452.945 73.8434 453.445 73.9443 453.882 74.146C454.32 74.3448 454.666 74.6176 454.922 74.9641C455.18 75.3107 455.317 75.7042 455.331 76.1445H454.308ZM457.052 82.69V76.1445H458.023V77.1673H458.108C458.245 76.8178 458.465 76.5465 458.769 76.3534C459.073 76.1573 459.438 76.0593 459.864 76.0593C460.296 76.0593 460.655 76.1573 460.942 76.3534C461.232 76.5465 461.458 76.8178 461.62 77.1673H461.688C461.856 76.8292 462.107 76.5607 462.442 76.3619C462.777 76.1602 463.179 76.0593 463.648 76.0593C464.233 76.0593 464.712 76.2426 465.084 76.609C465.456 76.9727 465.642 77.5394 465.642 78.3093V82.69H464.637V78.3093C464.637 77.8264 464.505 77.4812 464.24 77.2738C463.976 77.0664 463.665 76.9627 463.307 76.9627C462.847 76.9627 462.49 77.1019 462.238 77.3803C461.985 77.6559 461.858 78.0053 461.858 78.4286V82.69H460.836V78.207C460.836 77.8349 460.715 77.5352 460.473 77.3079C460.232 77.0778 459.921 76.9627 459.54 76.9627C459.279 76.9627 459.035 77.0323 458.807 77.1715C458.583 77.3107 458.401 77.5039 458.262 77.7511C458.125 77.9954 458.057 78.2781 458.057 78.5991V82.69H457.052ZM469.407 82.8434C468.993 82.8434 468.616 82.7653 468.278 82.609C467.94 82.4499 467.672 82.2213 467.473 81.923C467.274 81.6218 467.174 81.2582 467.174 80.832C467.174 80.457 467.248 80.1531 467.396 79.9201C467.544 79.6843 467.741 79.4997 467.988 79.3661C468.236 79.2326 468.508 79.1332 468.807 79.0678C469.108 78.9997 469.41 78.9457 469.714 78.9059C470.112 78.8548 470.434 78.8164 470.682 78.7909C470.932 78.7624 471.113 78.7156 471.227 78.6502C471.343 78.5849 471.402 78.4713 471.402 78.3093V78.2752C471.402 77.8548 471.287 77.5281 471.057 77.2951C470.829 77.0622 470.484 76.9457 470.021 76.9457C469.541 76.9457 469.164 77.0508 468.892 77.261C468.619 77.4713 468.427 77.6957 468.316 77.9343L467.362 77.5934C467.532 77.1957 467.76 76.886 468.044 76.6644C468.331 76.44 468.643 76.2838 468.981 76.1957C469.322 76.1048 469.657 76.0593 469.987 76.0593C470.197 76.0593 470.439 76.0849 470.711 76.136C470.987 76.1843 471.253 76.2852 471.508 76.4386C471.767 76.592 471.981 76.8235 472.152 77.1332C472.322 77.4428 472.407 77.8576 472.407 78.3775V82.69H471.402V81.8036H471.351C471.282 81.9457 471.169 82.0977 471.01 82.2596C470.851 82.4215 470.639 82.5593 470.375 82.673C470.111 82.7866 469.788 82.8434 469.407 82.8434ZM469.561 81.94C469.959 81.94 470.294 81.8619 470.566 81.7056C470.842 81.5494 471.049 81.3477 471.189 81.1005C471.331 80.8534 471.402 80.5934 471.402 80.3207V79.4002C471.359 79.4514 471.265 79.4982 471.12 79.5409C470.978 79.5806 470.814 79.6161 470.626 79.6474C470.441 79.6758 470.261 79.7014 470.085 79.7241C469.912 79.744 469.771 79.761 469.663 79.7752C469.402 79.8093 469.157 79.8647 468.93 79.9414C468.706 80.0153 468.524 80.1275 468.385 80.2781C468.248 80.4258 468.18 80.6275 468.18 80.8832C468.18 81.2326 468.309 81.4968 468.568 81.6758C468.829 81.8519 469.16 81.94 469.561 81.94ZM474.243 82.69V76.1445H475.215V77.1332H475.283C475.402 76.8093 475.618 76.5465 475.93 76.3448C476.243 76.1431 476.595 76.0423 476.987 76.0423C477.061 76.0423 477.153 76.0437 477.264 76.0465C477.375 76.0494 477.459 76.0536 477.516 76.0593V77.082C477.482 77.0735 477.403 77.0607 477.281 77.0437C477.162 77.0238 477.036 77.0139 476.902 77.0139C476.584 77.0139 476.3 77.0806 476.05 77.2142C475.803 77.3448 475.607 77.5266 475.462 77.7596C475.32 77.9897 475.249 78.2525 475.249 78.548V82.69H474.243ZM481.965 76.1445V76.9968H478.573V76.1445H481.965ZM479.561 74.5764H480.567V80.815C480.567 81.0991 480.608 81.3122 480.69 81.4542C480.776 81.5934 480.884 81.6872 481.014 81.7355C481.148 81.7809 481.288 81.8036 481.436 81.8036C481.547 81.8036 481.638 81.798 481.709 81.7866C481.78 81.7724 481.837 81.761 481.879 81.7525L482.084 82.6559C482.016 82.6815 481.921 82.707 481.798 82.7326C481.676 82.761 481.521 82.7752 481.334 82.7752C481.05 82.7752 480.771 82.7142 480.499 82.592C480.229 82.4698 480.004 82.2838 479.825 82.0338C479.649 81.7838 479.561 81.4684 479.561 81.0877V74.5764ZM486.409 82.8093C485.847 82.8093 485.345 82.7127 484.905 82.5195C484.467 82.3264 484.119 82.0579 483.861 81.7142C483.605 81.3676 483.466 80.9656 483.443 80.5082H484.517C484.54 80.7894 484.636 81.0323 484.807 81.2369C484.977 81.4386 485.2 81.5948 485.476 81.7056C485.751 81.8164 486.057 81.8718 486.392 81.8718C486.767 81.8718 487.099 81.8065 487.389 81.6758C487.679 81.5451 487.906 81.3633 488.071 81.1303C488.236 80.8974 488.318 80.6275 488.318 80.3207C488.318 79.9997 488.239 79.717 488.08 79.4727C487.921 79.2255 487.688 79.0323 487.381 78.8931C487.074 78.7539 486.699 78.6843 486.256 78.6843H485.557V77.7468H486.256C486.602 77.7468 486.906 77.6843 487.168 77.5593C487.432 77.4343 487.638 77.2582 487.786 77.0309C487.936 76.8036 488.011 76.5366 488.011 76.2298C488.011 75.9343 487.946 75.6772 487.815 75.4585C487.685 75.2397 487.5 75.0693 487.261 74.9471C487.026 74.8249 486.747 74.7639 486.426 74.7639C486.125 74.7639 485.841 74.8193 485.574 74.9301C485.31 75.038 485.094 75.1957 484.926 75.4031C484.759 75.6076 484.668 75.8548 484.653 76.1445H483.631C483.648 75.6872 483.786 75.2866 484.044 74.9428C484.303 74.5963 484.641 74.3264 485.058 74.1332C485.479 73.94 485.94 73.8434 486.443 73.8434C486.983 73.8434 487.446 73.9528 487.832 74.1715C488.219 74.3874 488.516 74.673 488.723 75.0281C488.93 75.3832 489.034 75.7667 489.034 76.1786C489.034 76.6701 488.905 77.0891 488.646 77.4357C488.391 77.7823 488.043 78.0224 487.602 78.1559V78.2241C488.153 78.315 488.584 78.5494 488.894 78.9272C489.203 79.3022 489.358 79.7667 489.358 80.3207C489.358 80.7951 489.229 81.2213 488.97 81.5991C488.715 81.9741 488.365 82.2695 487.922 82.4855C487.479 82.7014 486.974 82.8093 486.409 82.8093ZM493.999 82.8093C493.641 82.8036 493.283 82.7355 492.925 82.6048C492.567 82.4741 492.24 82.2539 491.945 81.9443C491.649 81.6318 491.412 81.2099 491.233 80.6786C491.054 80.1445 490.965 79.4741 490.965 78.6673C490.965 77.8945 491.037 77.2099 491.182 76.6133C491.327 76.0139 491.537 75.5096 491.813 75.1005C492.088 74.6886 492.421 74.3761 492.81 74.163C493.202 73.9499 493.644 73.8434 494.135 73.8434C494.624 73.8434 495.058 73.9414 495.439 74.1374C495.823 74.3306 496.135 74.6005 496.376 74.9471C496.618 75.2937 496.774 75.6928 496.845 76.1445H495.805C495.709 75.7525 495.521 75.4272 495.243 75.1687C494.965 74.9102 494.595 74.7809 494.135 74.7809C493.459 74.7809 492.926 75.0749 492.537 75.663C492.151 76.2511 491.956 77.0764 491.953 78.1389H492.021C492.18 77.8974 492.369 77.6914 492.588 77.521C492.81 77.3477 493.054 77.2142 493.321 77.1204C493.588 77.0267 493.871 76.9798 494.169 76.9798C494.669 76.9798 495.126 77.1048 495.541 77.3548C495.956 77.6019 496.288 77.9443 496.538 78.3818C496.788 78.8164 496.913 79.315 496.913 79.8775C496.913 80.4173 496.793 80.9116 496.551 81.3605C496.31 81.8065 495.97 82.1616 495.533 82.4258C495.098 82.6872 494.587 82.815 493.999 82.8093ZM493.999 81.8718C494.357 81.8718 494.678 81.7823 494.962 81.6034C495.249 81.4244 495.474 81.1843 495.639 80.8832C495.807 80.582 495.891 80.2468 495.891 79.8775C495.891 79.5167 495.81 79.1886 495.648 78.8931C495.489 78.5948 495.269 78.3576 494.987 78.1815C494.709 78.0053 494.391 77.9173 494.033 77.9173C493.763 77.9173 493.511 77.9713 493.278 78.0792C493.046 78.1843 492.841 78.3292 492.665 78.5139C492.492 78.6985 492.355 78.9102 492.256 79.1488C492.156 79.3846 492.107 79.6332 492.107 79.8945C492.107 80.2411 492.188 80.565 492.349 80.8661C492.514 81.1673 492.739 81.4102 493.023 81.5948C493.31 81.7795 493.635 81.8718 493.999 81.8718ZM501.436 82.8093C500.794 82.8093 500.247 82.6346 499.795 82.2852C499.343 81.9329 498.998 81.423 498.76 80.7553C498.521 80.0849 498.402 79.2752 498.402 78.3264C498.402 77.3832 498.521 76.5778 498.76 75.9102C499.001 75.2397 499.348 74.7284 499.799 74.3761C500.254 74.021 500.799 73.8434 501.436 73.8434C502.072 73.8434 502.616 74.021 503.068 74.3761C503.522 74.7284 503.869 75.2397 504.108 75.9102C504.349 76.5778 504.47 77.3832 504.47 78.3264C504.47 79.2752 504.351 80.0849 504.112 80.7553C503.873 81.423 503.528 81.9329 503.076 82.2852C502.625 82.6346 502.078 82.8093 501.436 82.8093ZM501.436 81.8718C502.072 81.8718 502.566 81.565 502.919 80.9514C503.271 80.3377 503.447 79.4627 503.447 78.3264C503.447 77.5707 503.366 76.9272 503.204 76.396C503.045 75.8647 502.815 75.4599 502.514 75.1815C502.216 74.9031 501.856 74.7639 501.436 74.7639C500.805 74.7639 500.312 75.0749 499.957 75.6971C499.602 76.3164 499.424 77.1928 499.424 78.3264C499.424 79.082 499.504 79.7241 499.663 80.2525C499.822 80.7809 500.051 81.1829 500.349 81.4585C500.65 81.734 501.012 81.8718 501.436 81.8718Z"
        fill="#002D5B" />
    <path
        d="M383.17 89.66C382.62 89.63 382.62 89.62 381.63 87.73C380.05 84.72 375.86 76.71 373.34 74.25C369.62 70.6 365.79 66.85 364.3 60.56C361.85 50.17 366.53 39.59 375.45 35.42C376.62 34.87 377.86 34.44 379.13 34.14C390.14 31.54 401.39 39.17 404.22 51.14C405.62 57.07 404.05 61.89 402.53 66.56L402.26 67.41C400.3 73.48 400.83 81.24 401 83.79C401.07 84.77 401.08 85.19 400.5 85.51C392.14 90.09 391.86 90.15 383.17 89.65M383.82 87.8C389.8 88.48 389.61 88.9 399.15 84.26L399.1 83.93C398.92 81.29 398.37 73.26 400.44 66.83L400.72 65.98C402.16 61.57 403.64 57.01 402.37 51.59C399.78 40.64 389.56 33.65 379.57 36C378.43 36.27 377.31 36.66 376.26 37.15C368.16 40.95 363.91 50.61 366.16 60.13C367.52 65.88 371.14 69.43 374.65 72.87C377.4 75.57 381.54 83.47 383.31 86.85C383.49 87.21 383.68 87.55 383.81 87.8"
        fill="#192F59" />
    <path
        d="M384.8 70.18C384.3 69.78 383.81 69.35 383.33 68.89C381.19 67.45 374.48 61.94 373.98 60.19C373.33 57.88 373.62 55.61 374.68 54.01C375.64 52.57 376.82 51.77 378.02 51.43C378.84 51.2 379.65 51.18 380.4 51.28C381.53 51.42 382.52 51.82 383.24 52.18C383.39 52.26 383.54 52.34 383.67 52.41C383.85 52.08 384.1 51.69 384.41 51.27C384.79 50.76 385.27 50.23 385.86 49.75C386.45 49.28 387.15 48.86 387.97 48.64C389.16 48.3 390.59 48.36 392.15 49.09C393.9 49.9 395.34 51.68 395.99 53.99C396.49 55.75 396.53 57.8 395.96 59.99C395.05 63.42 392.47 66.94 391.26 69.14C387.88 75.31 391.22 85.18 391.22 85.18L389.33 85.54C386.53 71.17 387.86 71.39 389.25 68.75C389.25 68.75 393.54 62.44 394.35 59.37C394.85 57.49 394.79 55.81 394.4 54.44C393.89 52.62 392.8 51.34 391.59 50.79C390.33 50.21 389.33 50.19 388.46 50.43C387.87 50.59 387.34 50.9 386.88 51.27C386.19 51.83 385.65 52.54 385.29 53.11C385.11 53.39 384.98 53.64 384.89 53.82L384.8 54.02L384.78 54.07C384.69 54.3 384.5 54.47 384.27 54.53H384.25C384.03 54.6 383.78 54.55 383.58 54.4C383.54 54.37 382.87 53.9 381.91 53.53C381.42 53.34 380.86 53.18 380.28 53.11C379.7 53.04 379.1 53.06 378.52 53.22C377.66 53.47 376.82 54.01 376.04 55.16C375.3 56.27 375.05 57.93 375.56 59.74C375.95 61.11 382.96 66.19 384.36 67.53C384.77 67.93 385.2 68.3 385.64 68.66L385.73 68.73L384.79 70.18H384.8Z"
        fill="#192F59" />
    <path
        d="M392.64 87.31C392.64 87.31 389.63 88.37 389.55 88.02C386.52 73.13 387.28 71.89 388.87 68.51L388.9 68.47C388.94 68.41 393.16 62.19 393.94 59.23C394.37 57.58 394.39 55.96 393.99 54.53C393.55 52.96 392.59 51.7 391.42 51.16C390.39 50.69 389.49 50.58 388.6 50.83C388.11 50.97 387.63 51.22 387.18 51.59C386.5 52.14 385.99 52.83 385.69 53.32C385.51 53.6 385.38 53.84 385.31 53.99L385.22 54.17L385.2 54.22C385.05 54.58 384.76 54.84 384.4 54.94C384.03 55.05 383.64 54.97 383.32 54.75C383.32 54.75 382.67 54.29 381.75 53.94C381.23 53.74 380.71 53.6 380.23 53.54C379.66 53.47 379.13 53.51 378.65 53.64C377.76 53.9 377.06 54.55 376.42 55.4C375.64 56.44 374.96 58.28 376.21 59.72C377.19 60.85 380.06 63.46 382.02 65.02C383.2 65.96 386.33 68.65 386.33 68.65L384.89 70.84C384.89 70.84 374.82 62.56 373.67 60.79C372.31 58.69 372.32 55.92 373.68 54.07C374.87 52.45 376.47 51.39 377.86 51C378.68 50.77 379.54 50.71 380.44 50.83C381.41 50.95 382.41 51.27 383.42 51.77L383.48 51.8C383.65 51.52 383.84 51.25 384.03 50.98C384.5 50.36 385.01 49.82 385.56 49.38C387.53 47.79 389.94 47.55 392.33 48.66C394.24 49.54 395.73 51.43 396.41 53.84C396.95 55.77 396.94 57.92 396.37 60.07C395.68 62.68 394.07 65.29 392.78 67.39C392.35 68.09 391.86 68.72 391.63 69.32C388.64 76.91 392.61 87.31 392.61 87.31"
        fill="#192F59" />
    <path
        d="M397.21 91.77C393.17 93.66 388.03 94.75 383.73 93.1C383.1 92.86 382.79 92.15 383.03 91.53C383.27 90.9 383.98 90.59 384.6 90.83C389.42 92.68 396.54 90.25 400.37 86.93C400.88 86.49 401.65 86.55 402.09 87.06C402.53 87.57 402.48 88.34 401.97 88.78C400.76 89.82 399.11 90.89 397.21 91.78"
        fill="#192F59" />
    <path
        d="M397.84 95.54C394.08 97.3 389.28 98.32 385.27 96.78C384.64 96.54 384.33 95.83 384.57 95.2C384.81 94.57 385.52 94.26 386.14 94.5C390.58 96.2 397.14 93.96 400.68 90.9C401.19 90.46 401.96 90.51 402.4 91.03C402.84 91.54 402.79 92.31 402.28 92.75C401.16 93.72 399.62 94.72 397.85 95.54"
        fill="#192F59" />
    <path
        d="M398.34 99.32C394.99 100.89 390.71 101.79 387.13 100.42C386.5 100.18 386.19 99.47 386.43 98.85C386.67 98.22 387.38 97.91 388 98.15C391.87 99.63 397.6 97.67 400.69 95C401.2 94.56 401.97 94.62 402.41 95.12C402.85 95.63 402.8 96.4 402.29 96.84C401.29 97.7 399.92 98.59 398.35 99.32"
        fill="#192F59" />
</svg>
