<svg width="34" height="34" viewBox="0 0 34 34" fill="none" xmlns="http://www.w3.org/2000/svg">
    <path
        d="M13.9002 27.8005C16.7086 27.8005 19.3403 26.9526 21.5304 25.5043L29.2664 33.2581C29.7787 33.7526 30.4322 34 31.1388 34C32.6046 34 33.6821 32.8519 33.6821 31.4036C33.6821 30.7324 33.4524 30.0789 32.9578 29.5844L25.2748 21.866C26.8644 19.6052 27.8005 16.8676 27.8005 13.9002C27.8005 6.25247 21.5481 0 13.9002 0C6.27013 0 0 6.25247 0 13.9002C0 21.5481 6.25247 27.8005 13.9002 27.8005ZM13.9002 24.0914C8.30129 24.0914 3.7091 19.4991 3.7091 13.9002C3.7091 8.3013 8.30129 3.70906 13.9002 3.70906C19.4993 3.70906 24.0914 8.3013 24.0914 13.9002C24.0914 19.4991 19.4993 24.0914 13.9002 24.0914Z"
        fill="#015697" />
</svg>
