<svg width="36" height="36" viewBox="0 0 36 36" fill="none" xmlns="http://www.w3.org/2000/svg">
    <g clip-path="url(#clip0_4145_172)">
        <path
            d="M17.5904 33.5809C26.4217 33.5809 33.5808 26.4217 33.5808 17.5905C33.5808 8.75919 26.4217 1.60004 17.5904 1.60004C8.75913 1.60004 1.59998 8.75919 1.59998 17.5905C1.59998 26.4217 8.75913 33.5809 17.5904 33.5809Z"
            stroke="#015697" stroke-width="3.2" />
        <path
            d="M14.4336 26L17.2109 12.8984H20.7383L17.9609 26H14.4336ZM19.543 11.2695C19.043 11.2695 18.6211 11.1602 18.2773 10.9414C17.9414 10.7227 17.7734 10.3516 17.7734 9.82812C17.7734 9.375 17.8555 8.99609 18.0195 8.69141C18.1914 8.38672 18.4375 8.15625 18.7578 8C19.0781 7.84375 19.4609 7.76562 19.9062 7.76562C20.375 7.76562 20.7812 7.86719 21.125 8.07031C21.4766 8.27344 21.6523 8.64062 21.6523 9.17188C21.6523 9.79688 21.4805 10.3047 21.1367 10.6953C20.793 11.0781 20.2617 11.2695 19.543 11.2695Z"
            fill="#015697" />
    </g>
    <defs>
        <clipPath id="clip0_4145_172">
            <rect width="35.1808" height="35.1808" fill="white" />
        </clipPath>
    </defs>
</svg>
