<svg width="37" height="37" viewBox="0 0 37 37" fill="none" xmlns="http://www.w3.org/2000/svg">
    <g clip-path="url(#clip0_4203_2)">
        <path
            d="M14.6 26.4625L25.55 18.25L14.6 10.0375V26.4625ZM18.25 0C8.176 0 0 8.176 0 18.25C0 28.324 8.176 36.5 18.25 36.5C28.324 36.5 36.5 28.324 36.5 18.25C36.5 8.176 28.324 0 18.25 0ZM18.25 32.85C10.2017 32.85 3.64999 26.2983 3.64999 18.25C3.64999 10.2017 10.2017 3.65002 18.25 3.65002C26.2983 3.65002 32.85 10.2017 32.85 18.25C32.85 26.2983 26.2983 32.85 18.25 32.85Z"
            fill="#8E8E93" />
    </g>
    <defs>
        <clipPath id="clip0_4203_2">
            <rect width="36.5" height="36.5" fill="white" />
        </clipPath>
    </defs>
</svg>
