<svg width="24" height="23" viewBox="0 0 24 23" fill="none" xmlns="http://www.w3.org/2000/svg">
    <g clip-path="url(#clip0_4180_183)">
        <path
            d="M21.6 5.60685H12L9.59998 3.20685H2.4C1.08 3.20685 0.0119957 4.28685 0.0119957 5.60685L0 20.0069C0 21.3269 1.08 22.4068 2.4 22.4068H21.6C22.92 22.4068 24 21.3269 24 20.0069V8.00686C24 6.68686 22.92 5.60685 21.6 5.60685ZM21.6 20.0069H2.4V8.00686H21.6V20.0069Z"
            fill="#8E8E93" />
        <path
            d="M12.3893 0C11.772 0 11.3417 0.430249 11.3417 1.04757V12.599L11.4259 14.6287L8.99406 11.9162L6.87082 9.80233C6.68375 9.61524 6.42188 9.49373 6.12258 9.49373C5.55202 9.49373 5.1311 9.92398 5.1311 10.5132C5.1311 10.7845 5.234 11.037 5.45847 11.2615L11.613 17.4347C11.8188 17.6498 12.0993 17.7621 12.3893 17.7621C12.6699 17.7621 12.9505 17.6498 13.1563 17.4347L19.3202 11.2615C19.5446 11.037 19.6475 10.7845 19.6475 10.5132C19.6475 9.92398 19.2173 9.49373 18.6468 9.49373C18.3568 9.49373 18.0948 9.61524 17.9078 9.80233L15.7752 11.9162L13.3528 14.6194L13.4276 12.599V1.04757C13.4276 0.430249 12.9973 0 12.3893 0Z"
            fill="#8E8E93" />
    </g>
    <defs>
        <clipPath id="clip0_4180_183">
            <rect width="24" height="22.4068" fill="white" />
        </clipPath>
    </defs>
</svg>
