<svg width="19" height="19" viewBox="0 0 19 19" fill="none" xmlns="http://www.w3.org/2000/svg">
    <path
        d="M1 7.62399C1 6.71089 1.1715 5.85589 1.5146 5.05899C1.8577 4.25659 2.3336 3.55109 2.9424 2.94229C3.5511 2.33359 4.2539 1.85769 5.0508 1.51459C5.8532 1.17149 6.7109 1 7.624 1C8.5371 1 9.3921 1.17149 10.1889 1.51459C10.9914 1.85769 11.6969 2.33359 12.3056 2.94229C12.9144 3.55109 13.3903 4.25659 13.7334 5.05899C14.0765 5.85589 14.248 6.71089 14.248 7.62399C14.248 8.38209 14.1263 9.1015 13.8828 9.7822C13.6448 10.4629 13.3128 11.0799 12.8867 11.6333L16.9458 15.7173C17.0343 15.8058 17.1007 15.9082 17.145 16.0244C17.1948 16.1406 17.2197 16.2651 17.2197 16.3979C17.2197 16.5805 17.1782 16.7465 17.0952 16.896C17.0177 17.0454 16.907 17.1616 16.7632 17.2446C16.6193 17.3331 16.4533 17.3774 16.2651 17.3774C16.1323 17.3774 16.005 17.3525 15.8833 17.3027C15.7671 17.2584 15.6592 17.1893 15.5596 17.0952L11.4756 13.0029C10.9332 13.3903 10.3356 13.6946 9.6826 13.916C9.0296 14.1373 8.3434 14.248 7.624 14.248C6.7109 14.248 5.8532 14.0765 5.0508 13.7334C4.2539 13.3903 3.5511 12.9144 2.9424 12.3056C2.3336 11.6969 1.8577 10.9941 1.5146 10.1972C1.1715 9.3948 1 8.53709 1 7.62399ZM2.4194 7.62399C2.4194 8.34339 2.5522 9.01848 2.8179 9.64938C3.089 10.2747 3.4625 10.8253 3.9385 11.3012C4.4199 11.7771 4.9733 12.1507 5.5986 12.4218C6.2295 12.693 6.9046 12.8286 7.624 12.8286C8.3434 12.8286 9.0158 12.693 9.6411 12.4218C10.272 12.1507 10.8253 11.7771 11.3012 11.3012C11.7772 10.8253 12.1507 10.2747 12.4219 9.64938C12.693 9.01848 12.8286 8.34339 12.8286 7.62399C12.8286 6.90459 12.693 6.2322 12.4219 5.6069C12.1507 4.976 11.7772 4.42269 11.3012 3.94669C10.8253 3.46529 10.272 3.09178 9.6411 2.82608C9.0158 2.55498 8.3434 2.4194 7.624 2.4194C6.9046 2.4194 6.2295 2.55498 5.5986 2.82608C4.9733 3.09178 4.4199 3.46529 3.9385 3.94669C3.4625 4.42269 3.089 4.976 2.8179 5.6069C2.5522 6.2322 2.4194 6.90459 2.4194 7.62399Z"
        fill="#015697" fill-opacity="0.6" stroke="#015697" />
</svg>
