<svg width="24" height="30" viewBox="0 0 24 30" fill="none" xmlns="http://www.w3.org/2000/svg">
    <path
        d="M2.2481 18.9266H21.752C23.1089 18.9266 24 18.0557 24 16.7189V2.21773C24 0.88101 23.1089 0 21.752 0H2.2481C0.881016 0 0 0.88101 0 2.21773V16.7189C0 18.0557 0.881016 18.9266 2.2481 18.9266ZM2.22785 3.89874C1.94431 3.89874 1.75191 3.69621 1.75191 3.43292V2.38988C1.75191 2.08608 1.95444 1.87342 2.25823 1.87342H3.44304C3.71647 1.87342 3.90887 2.07596 3.90887 2.3595V3.43292C3.90887 3.69621 3.71647 3.89874 3.44304 3.89874H2.22785ZM5.99495 8.5266C5.6709 8.5266 5.46836 8.32404 5.46836 8.01007V2.38988C5.46836 2.06583 5.6709 1.87342 5.99495 1.87342H17.9848C18.2988 1.87342 18.5013 2.06583 18.5013 2.38988V8.01007C18.5013 8.32404 18.2988 8.5266 17.9848 8.5266H5.99495ZM20.5368 3.89874C20.2532 3.89874 20.0608 3.69621 20.0608 3.43292V2.3595C20.0608 2.07596 20.2532 1.87342 20.5368 1.87342H21.7114C22.0152 1.87342 22.2279 2.08608 22.2279 2.38988V3.43292C22.2279 3.69621 22.0254 3.89874 21.7418 3.89874H20.5368ZM2.22785 7.21007C1.94431 7.21007 1.75191 6.99738 1.75191 6.74425V5.69115C1.75191 5.4076 1.94431 5.20507 2.22785 5.20507H3.44304C3.71647 5.20507 3.90887 5.4076 3.90887 5.69115V6.74425C3.90887 6.99738 3.71647 7.21007 3.44304 7.21007H2.22785ZM20.5368 7.21007C20.2532 7.21007 20.0608 6.99738 20.0608 6.74425V5.69115C20.0608 5.4076 20.2532 5.20507 20.5368 5.20507H21.7418C22.0355 5.20507 22.2279 5.4076 22.2279 5.69115V6.74425C22.2279 6.99738 22.0254 7.21007 21.7418 7.21007H20.5368ZM2.22785 10.4608C1.94431 10.4608 1.75191 10.2582 1.75191 9.99495V8.95184C1.75191 8.65827 1.94431 8.46584 2.22785 8.46584H3.44304C3.71647 8.46584 3.90887 8.65827 3.90887 8.95184V9.99495C3.90887 10.2582 3.71647 10.4608 3.44304 10.4608H2.22785ZM20.5368 10.4608C20.2532 10.4608 20.0608 10.2582 20.0608 9.99495V8.95184C20.0608 8.65827 20.2532 8.46584 20.5368 8.46584H21.7418C22.0355 8.46584 22.2279 8.65827 22.2279 8.95184V9.99495C22.2279 10.2582 22.0254 10.4608 21.7418 10.4608H20.5368ZM5.99495 17.0431C5.6709 17.0431 5.46836 16.8405 5.46836 16.5266V10.9367C5.46836 10.6228 5.6709 10.4202 5.99495 10.4202H17.9848C18.2988 10.4202 18.5013 10.6228 18.5013 10.9367V16.5266C18.5013 16.8405 18.2988 17.0431 17.9848 17.0431H5.99495ZM2.22785 13.7418C1.94431 13.7418 1.75191 13.519 1.75191 13.2658V12.2126C1.75191 11.9291 1.94431 11.7265 2.22785 11.7265H3.44304C3.71647 11.7265 3.90887 11.9291 3.90887 12.2126V13.2658C3.90887 13.519 3.71647 13.7418 3.44304 13.7418H2.22785ZM20.5368 13.7418C20.2532 13.7418 20.0608 13.519 20.0608 13.2658V12.2126C20.0608 11.9291 20.2532 11.7265 20.5368 11.7265H21.7418C22.0355 11.7265 22.2279 11.9291 22.2279 12.2126V13.2658C22.2279 13.519 22.0254 13.7418 21.7418 13.7418H20.5368ZM2.25823 17.0431C1.95444 17.0431 1.75191 16.8405 1.75191 16.5367V15.5038C1.75191 15.2203 1.94431 15.0279 2.22785 15.0279H3.44304C3.71647 15.0279 3.90887 15.2203 3.90887 15.5038V16.5671C3.90887 16.8507 3.71647 17.0431 3.44304 17.0431H2.25823ZM20.5368 17.0431C20.2532 17.0431 20.0608 16.8507 20.0608 16.5671V15.5038C20.0608 15.2203 20.2532 15.0279 20.5368 15.0279H21.7418C22.0254 15.0279 22.2279 15.2203 22.2279 15.5038V16.5367C22.2279 16.8405 22.0152 17.0431 21.7114 17.0431H20.5368Z"
        fill="#8E8E93" />
    <path
        d="M21.9992 21.8992L18.512 20.1633C18.3814 20.1095 18.2431 20.0788 18.0972 20.0788H17.5134V15.4701C17.5134 14.8325 16.9988 14.3179 16.3612 14.3179C15.7237 14.3179 15.209 14.8325 15.209 15.4701V23.7197C12.4438 23.1359 12.4899 23.1436 12.39 23.1436C12.1519 23.1436 11.9368 23.2434 11.7832 23.3971L11.1764 24.0116L14.9709 27.8061C15.1783 28.0135 15.4702 28.1441 15.7851 28.1441H21.0007C21.5768 28.1441 22.0223 27.7216 22.1068 27.1609L22.6829 23.1129C22.6905 23.0591 22.6982 23.0053 22.6982 22.9592C22.6982 22.483 22.4063 22.0682 21.9992 21.8992Z"
        fill="white" stroke="#8E8E93" />
</svg>
